<?xml version="1.0" encoding="UTF-8" standalone="no"?>
<!-- Created with Inkscape (http://www.inkscape.org/) -->

<svg
   xmlns:dc="http://purl.org/dc/elements/1.1/"
   xmlns:cc="http://creativecommons.org/ns#"
   xmlns:rdf="http://www.w3.org/1999/02/22-rdf-syntax-ns#"
   xmlns:svg="http://www.w3.org/2000/svg"
   xmlns="http://www.w3.org/2000/svg"
   xmlns:xlink="http://www.w3.org/1999/xlink"
   xmlns:sodipodi="http://sodipodi.sourceforge.net/DTD/sodipodi-0.dtd"
   xmlns:inkscape="http://www.inkscape.org/namespaces/inkscape"
   width="154.55838mm"
   height="165.91449mm"
   viewBox="0 0 154.55838 165.91449"
   version="1.1"
   id="svg8"
   inkscape:version="0.92.1 r15371"
   sodipodi:docname="biologia.svg">
  <defs
     id="defs2">
    <linearGradient
       inkscape:collect="always"
       id="linearGradient3860">
      <stop
         style="stop-color:#b3b3b3;stop-opacity:1;"
         offset="0"
         id="stop3856" />
      <stop
         style="stop-color:#b3b3b3;stop-opacity:0;"
         offset="1"
         id="stop3858" />
    </linearGradient>
    <linearGradient
       inkscape:collect="always"
       id="linearGradient3852">
      <stop
         style="stop-color:#b3b3b3;stop-opacity:1;"
         offset="0"
         id="stop3848" />
      <stop
         style="stop-color:#00ff00;stop-opacity:1"
         offset="1"
         id="stop3850" />
    </linearGradient>
    <linearGradient
       inkscape:collect="always"
       xlink:href="#linearGradient3852"
       id="linearGradient3854"
       x1="80.577652"
       y1="83.733299"
       x2="80.577652"
       y2="0.75034773"
       gradientUnits="userSpaceOnUse"
       gradientTransform="matrix(1,0,0,0.89959839,0,-0.00516258)" />
    <linearGradient
       inkscape:collect="always"
       xlink:href="#linearGradient3860"
       id="linearGradient3862"
       x1="75.767044"
       y1="106.98457"
       x2="75.366165"
       y2="173.53128"
       gradientUnits="userSpaceOnUse"
       gradientTransform="matrix(1,0,0,1.0047847,0,2.4602549e-4)" />
  </defs>
  <sodipodi:namedview
     id="base"
     pagecolor="#ffffff"
     bordercolor="#666666"
     borderopacity="1.0"
     inkscape:pageopacity="0.0"
     inkscape:pageshadow="2"
     inkscape:zoom="0.66"
     inkscape:cx="57.509009"
     inkscape:cy="289.91987"
     inkscape:document-units="mm"
     inkscape:current-layer="layer3"
     showgrid="false"
     inkscape:window-width="1366"
     inkscape:window-height="706"
     inkscape:window-x="-8"
     inkscape:window-y="-8"
     inkscape:window-maximized="1"
     inkscape:snap-bbox="false"
     inkscape:snap-others="true"
     inkscape:measure-start="0,0"
     inkscape:measure-end="0,0" />
  <metadata
     id="metadata5">
    <rdf:RDF>
      <cc:Work
         rdf:about="">
        <dc:format>image/svg+xml</dc:format>
        <dc:type
           rdf:resource="http://purl.org/dc/dcmitype/StillImage" />
        <dc:title />
      </cc:Work>
    </rdf:RDF>
  </metadata>
  <g
     inkscape:groupmode="layer"
     id="layer3"
     inkscape:label="fundo"
     style="display:inline">
    <rect
       id="rect3836"
       width="155.54294"
       height="168.37123"
       x="0"
       y="-0.051419333"
       style="fill:url(#linearGradient3862);fill-opacity:1;stroke-width:0.26521555" />
    <rect
       style="fill:url(#linearGradient3854);fill-opacity:1;stroke-width:0.25094977"
       id="rect3846"
       width="155.54292"
       height="89.797974"
       x="0"
       y="-0.051419333" />
  </g>
  <g
     inkscape:groupmode="layer"
     id="layer2"
     inkscape:label="Camada 2"
     style="display:inline"
     transform="translate(-64.283006,-38.572968)"
     sodipodi:insensitive="true">
    <path
       style="fill:none;stroke:#000000;stroke-width:0.26458332px;stroke-linecap:butt;stroke-linejoin:miter;stroke-opacity:1"
       d="m 97.657443,151.53973 v 0 0 0"
       id="path122"
       inkscape:connector-curvature="0" />
    <g
       id="g1084"
       transform="matrix(0.26458282,0,0,0.26458282,39.305505,54.398853)">
      <g
         id="g1027">
        <g
           id="g1025" />
      </g>
      <g
         id="g1029" />
      <g
         id="g1031" />
      <g
         id="g1033" />
      <g
         id="g1035" />
      <g
         id="g1037" />
      <g
         id="g1039" />
      <g
         id="g1041" />
      <g
         id="g1043" />
      <g
         id="g1045" />
      <g
         id="g1047" />
      <g
         id="g1049" />
      <g
         id="g1051" />
      <g
         id="g1053" />
      <g
         id="g1055" />
      <g
         id="g1057" />
    </g>
    <g
       id="g1948">
      <g
         transform="translate(44.296108,1.85965)"
         id="g978">
        <path
           id="path55-2-7"
           d="m 151.65046,101.03217 c 11.91479,-9.684432 15.35493,-30.693217 16.90324,-45.650091 0.16054,-1.550368 -0.96633,-2.937425 -2.51671,-3.097918 -14.96238,-1.54888 -36.23036,-2.485151 -48.15038,7.19317 -5.03927,4.601716 -8.09088,10.982835 -8.50977,17.794218 -0.99944,6.964346 0.64584,14.050323 4.61167,19.861939 7.21852,8.879042 27.15397,12.434972 37.66195,3.898682 z"
           style="display:inline;fill:#39ad3d;fill-opacity:1;stroke:#39ad3d;stroke-width:0.26458332;stroke-opacity:1"
           inkscape:connector-curvature="0"
           inkscape:transform-center-x="-0.35217281"
           inkscape:transform-center-y="0.77587319" />
        <path
           id="path55-2"
           d="M 85.217411,50.743155 C 74.777827,39.484119 53.589653,37.418987 38.56371,36.847681 c -1.557535,-0.05922 -2.868283,1.155508 -2.927501,2.713042 -0.571518,15.031496 -0.121221,36.315306 10.312592,47.579946 4.920017,4.729008 11.486266,7.358723 18.310469,7.333291 7.014639,0.543923 13.978472,-1.559182 19.519575,-5.894946 8.390277,-7.781237 10.640824,-27.905906 1.438566,-37.835859 z"
           style="display:inline;fill:#39ad3d;fill-opacity:1;stroke:#39ad3d;stroke-width:0.26458332;stroke-opacity:1"
           inkscape:connector-curvature="0"
           inkscape:transform-center-x="-2.655123"
           inkscape:transform-center-y="-0.29219601" />
        <path
           style="fill:#1d6614;fill-opacity:1;stroke:#1d6614;stroke-width:0.26458332px;stroke-linecap:butt;stroke-linejoin:miter;stroke-opacity:1"
           d="m 139.68615,77.140618 c 2.21799,-1.713296 -0.86483,-6.667996 -2.88824,-4.988791 C 123.42334,80.6131 106.85613,87.837787 98.408067,119.16293 94.162022,89.315211 82.022551,72.96418 65.788912,62.058177 c -2.51297,-1.608765 -5.862994,1.906033 -3.990711,3.990711 37.410952,23.216354 31.668671,76.312282 33.185727,83.631192 1.858081,2.73096 3.676165,2.21684 5.473262,0 0.71749,-19.49758 2.19142,-54.465266 39.22896,-72.539462 z"
           id="path126"
           inkscape:connector-curvature="0"
           sodipodi:nodetypes="cccccccc" />
      </g>
      <g
         transform="matrix(0.18110659,0.19288531,-0.19288531,0.18110659,144.67393,78.700915)"
         id="g1298">
        <rect
           x="368.65601"
           y="53.644001"
           transform="matrix(-0.7071,0.7071,-0.7071,-0.7071,745.6945,-52.1903)"
           style="fill:#d9d9d9"
           width="30"
           height="149.399"
           id="rect1198" />
        <rect
           x="372.71701"
           y="139.744"
           transform="matrix(-0.7071,-0.7071,0.7071,-0.7071,590.6071,554.1259)"
           style="fill:#c8c6cd"
           width="74.698997"
           height="30"
           id="rect1200" />
        <rect
           x="114.095"
           y="308.203"
           transform="matrix(-0.7071,0.7071,-0.7071,-0.7071,491.1319,562.3705)"
           style="fill:#d9d9d9"
           width="30"
           height="149.399"
           id="rect1202" />
        <rect
           x="118.163"
           y="394.31601"
           transform="matrix(0.7071,0.7071,-0.7071,0.7071,334.9787,9.9215)"
           style="fill:#c8c6cd"
           width="74.698997"
           height="30"
           id="rect1204" />
        <rect
           x="198.955"
           y="230.84801"
           transform="matrix(-0.7071,0.7071,-0.7071,-0.7071,575.9955,357.5091)"
           style="fill:#d9d9d9"
           width="30"
           height="134.399"
           id="rect1206" />
        <rect
           x="204.11"
           y="306.79599"
           transform="matrix(-0.7071,-0.7071,0.7071,-0.7071,178.2525,717.4256)"
           style="fill:#c8c6cd"
           width="67.198997"
           height="30"
           id="rect1208" />
        <rect
           x="241.375"
           y="165.623"
           transform="matrix(-0.7071,0.7071,-0.7071,-0.7071,618.4123,255.0904)"
           style="fill:#d9d9d9"
           width="30"
           height="179.998"
           id="rect1210" />
        <rect
           x="273.19501"
           y="242.44299"
           transform="matrix(-0.7071,0.7071,-0.7071,-0.7071,695.2323,286.9106)"
           style="fill:#c8c6cd"
           width="30"
           height="89.999001"
           id="rect1212" />
        <rect
           x="283.80499"
           y="145.989"
           transform="matrix(-0.7071,0.7071,-0.7071,-0.7071,660.8391,152.6477)"
           style="fill:#d9d9d9"
           width="30"
           height="134.399"
           id="rect1214" />
        <rect
           x="288.97198"
           y="221.94701"
           transform="matrix(-0.7071,-0.7071,0.7071,-0.7071,383.1181,632.5859)"
           style="fill:#c8c6cd"
           width="67.198997"
           height="30"
           id="rect1216" />
        <path
           inkscape:connector-curvature="0"
           style="fill:#1d6614;fill-opacity:1;stroke:#1d6614;stroke-opacity:1"
           d="m 203.348,202.586 c -25.667,25.667 -29.274,84.428 -18.88,124.946 1.697,6.364 3.607,12.515 5.94,17.818 22.909,53.033 11.244,113.49 -29.487,154.22 L 148.492,512 127.279,490.787 139.708,478.358 c 32.032,-32.032 40.943,-79.549 23.123,-121.128 -0.848,-1.697 -1.485,-3.606 -2.122,-5.939 -18.455,-49.004 -17.183,-131.31 21.426,-169.918 38.396,-38.396 124.31,-39.033 166.737,-22.486 0.848,0.423 2.12,0.848 3.181,1.06 51.973,19.303 93.551,12.515 127.067,-21.001 l 11.667,-11.667 21.213,21.213 -11.667,11.667 c -43.062,43.062 -97.793,51.971 -162.493,26.728 -2.97,-1.271 -5.94,-2.121 -9.546,-3.181 -36.698,-9.97 -98.853,-7.213 -124.946,18.88 z"
           id="path1218" />
        <g
           id="g1224">
          <path
             inkscape:connector-curvature="0"
             style="fill:#1e7b15;fill-opacity:1"
             d="m 512,148.492 -11.667,11.667 c -43.062,43.062 -97.793,51.971 -162.493,26.728 -2.97,-1.271 -5.94,-2.121 -9.546,-3.181 l 23.759,-23.759 c 51.973,19.303 93.551,12.515 127.067,-21.001 l 11.667,-11.667 z"
             id="path1220" />
          <path
             inkscape:connector-curvature="0"
             style="fill:#1e7b15;fill-opacity:1"
             d="M 160.921,499.571 148.492,512 127.279,490.787 139.708,478.358 c 32.032,-32.032 40.943,-79.549 23.123,-121.128 -0.848,-1.697 -1.485,-3.606 -2.122,-5.939 l 23.759,-23.759 c 1.697,6.364 3.607,12.515 5.94,17.818 22.909,53.034 11.244,113.491 -29.487,154.221 z"
             id="path1222" />
        </g>
        <path
           inkscape:connector-curvature="0"
           style="fill:#39ad3d;fill-opacity:1"
           d="m 330.627,329.865 c -38.608,38.608 -120.914,39.881 -169.918,21.426 -2.333,-0.637 -4.242,-1.274 -5.939,-2.122 -41.578,-17.82 -89.096,-8.909 -121.128,23.123 L 21.213,384.721 0,363.508 12.429,351.079 c 40.73,-40.73 101.187,-52.396 154.22,-29.487 5.303,2.333 11.455,4.243 17.818,5.94 40.73,10.182 99.279,6.787 124.946,-18.88 26.093,-26.093 28.85,-88.248 18.88,-124.946 -1.06,-3.606 -1.91,-6.576 -3.181,-9.546 C 299.868,109.46 308.777,54.73 351.84,11.667 L 363.508,0 384.721,21.213 373.054,32.88 c -33.516,33.516 -40.304,75.094 -21.001,127.067 0.212,1.062 0.637,2.333 1.06,3.181 16.547,42.427 15.91,128.341 -22.486,166.737 z"
           id="path1226" />
        <path
           inkscape:connector-curvature="0"
           style="fill:#2c842e;fill-opacity:1"
           d="m 330.627,329.865 c -38.608,38.608 -120.914,39.881 -169.918,21.426 l 23.759,-23.759 c 40.73,10.182 99.279,6.787 124.946,-18.88 26.093,-26.093 28.85,-88.248 18.88,-124.946 l 23.759,-23.759 c 0.212,1.062 0.637,2.333 1.06,3.181 16.547,42.427 15.91,128.341 -22.486,166.737 z"
           id="path1228" />
        <g
           id="g1230" />
        <g
           id="g1232" />
        <g
           id="g1234" />
        <g
           id="g1236" />
        <g
           id="g1238" />
        <g
           id="g1240" />
        <g
           id="g1242" />
        <g
           id="g1244" />
        <g
           id="g1246" />
        <g
           id="g1248" />
        <g
           id="g1250" />
        <g
           id="g1252" />
        <g
           id="g1254" />
        <g
           id="g1256" />
        <g
           id="g1258" />
      </g>
      <g
         transform="matrix(0.04181869,0,0,0.05647248,64.282991,159.44094)"
         id="g1672">
        <g
           transform="matrix(1.25,0,0,-1.25,0,45)"
           id="g1591">
          <g
             id="g1589">
            <g
               id="g1587">
              <g
                 id="g1551">
                <path
                   inkscape:connector-curvature="0"
                   style="fill:#c8c6cd;fill-opacity:1"
                   d="m 175.903,-37.599 c 5.518,23.097 4.369,35.715 -6.292,41.836 -10.661,6.11 3.823,30.322 22.494,9.011 18.671,-21.311 16.247,-41.165 7.521,-55.205 -8.716,-14.051 -26.556,-7.509 -23.723,4.358"
                   id="path1543" />
                <path
                   inkscape:connector-curvature="0"
                   style="fill:#c8c6cd;fill-opacity:1"
                   d="m 170.442,-71.277 c -10.422,-21.356 -19.331,-30.356 -31.448,-28.297 -12.106,2.048 -16.316,-25.839 11.639,-21.254 27.955,4.574 38.707,21.447 40.903,37.842 2.196,16.386 -15.735,22.677 -21.094,11.709"
                   id="path1545" />
                <path
                   inkscape:connector-curvature="0"
                   style="fill:#c8c6cd;fill-opacity:1"
                   d="m 299.42,-142.456 c -23.575,15.667 -61.235,-16.27 -64.842,-25.941 -3.618,-9.671 19.57,-39.378 13.028,-56.206 -6.565,-16.794 12.993,-20.116 21.845,-5.587 8.863,14.541 3.459,41.097 1.786,47.434 -1.695,6.337 24.906,13.87 41.756,0.421 16.874,-13.437 -3.663,33.28 -13.573,39.879"
                   id="path1547" />
                <path
                   inkscape:connector-curvature="0"
                   style="fill:#c8c6cd;fill-opacity:1"
                   d="m 311.572,-133.149 c -17.59,22.175 11.093,62.373 20.412,66.788 9.341,4.403 29.264,-4.585 45.477,3.345 16.202,7.93 19.854,-9.717 7.396,-21.322 -13.961,-12.993 -25.498,-15.178 -35.487,-17.351 -6.406,-1.388 -0.364,-23.131 -0.091,-45.181 0.249,-20.458 -30.312,4.391 -37.707,13.721"
                   id="path1549" />
              </g>
              <path
                 inkscape:connector-curvature="0"
                 id="SVGCleanerId_0"
                 style="fill:#c8c6cd;fill-opacity:1"
                 d="m 172.023,4.192 c 0,-4.551 -3.686,-8.238 -8.238,-8.238 -4.54,0 -8.226,3.686 -8.226,8.238 0,4.54 3.686,8.238 8.226,8.238 4.552,0 8.238,-3.698 8.238,-8.238" />
              <g
                 id="g1574">
                <path
                   inkscape:connector-curvature="0"
                   style="fill:#c8c6cd;fill-opacity:1"
                   d="m 137.901,-97.036 c 0,-4.54 -3.686,-8.238 -8.238,-8.238 -4.54,0 -8.238,3.698 -8.238,8.238 0,4.54 3.698,8.238 8.238,8.238 4.552,-0.001 8.238,-3.698 8.238,-8.238"
                   id="path1554" />
                <path
                   inkscape:connector-curvature="0"
                   style="fill:#c8c6cd;fill-opacity:1"
                   d="m 134.488,-116.117 c 0,-4.551 -3.686,-8.238 -8.238,-8.238 -4.551,0 -8.238,3.686 -8.238,8.238 0,4.54 3.686,8.238 8.238,8.238 4.552,0 8.238,-3.698 8.238,-8.238"
                   id="path1556" />
                <path
                   inkscape:connector-curvature="0"
                   style="fill:#c8c6cd;fill-opacity:1"
                   d="m 150.974,-124.354 c 0,-4.551 -3.686,-8.238 -8.238,-8.238 -4.54,0 -8.226,3.686 -8.226,8.238 0,4.552 3.686,8.238 8.226,8.238 4.552,-0.001 8.238,-3.687 8.238,-8.238"
                   id="path1558" />
                <path
                   inkscape:connector-curvature="0"
                   style="fill:#c8c6cd;fill-opacity:1"
                   d="m 248.493,-225.025 c 1.456,-4.301 -0.831,-9 -5.143,-10.468 -4.289,-1.468 -8.977,0.853 -10.445,5.154 -1.468,4.301 0.819,8.988 5.12,10.456 4.313,1.469 9.001,-0.841 10.468,-5.142"
                   id="path1560" />
                <path
                   inkscape:connector-curvature="0"
                   style="fill:#c8c6cd;fill-opacity:1"
                   d="m 257.323,-239.452 c 1.456,-4.301 -0.831,-8.988 -5.143,-10.456 -4.289,-1.456 -8.977,0.842 -10.445,5.143 -1.468,4.289 0.831,8.988 5.131,10.445 4.312,1.479 8.989,-0.831 10.457,-5.132"
                   id="path1562" />
                <path
                   inkscape:connector-curvature="0"
                   style="fill:#c8c6cd;fill-opacity:1"
                   d="m 275.834,-236.721 c 1.479,-4.289 -0.831,-8.988 -5.143,-10.456 -4.278,-1.468 -8.966,0.842 -10.433,5.131 -1.468,4.301 0.831,9 5.12,10.456 4.312,1.479 9,-0.83 10.456,-5.131"
                   id="path1564" />
                <path
                   inkscape:connector-curvature="0"
                   style="fill:#c8c6cd;fill-opacity:1"
                   d="m 387.416,-57.498 c 0,-4.54 -3.698,-8.238 -8.249,-8.238 -4.54,0 -8.226,3.698 -8.226,8.238 0,4.551 3.686,8.249 8.226,8.249 4.551,0 8.249,-3.698 8.249,-8.249"
                   id="path1566" />
                <path
                   inkscape:connector-curvature="0"
                   style="fill:#c8c6cd;fill-opacity:1"
                   d="m 404.483,-65.747 c 0,-4.54 -3.686,-8.238 -8.249,-8.238 -4.528,0 -8.215,3.698 -8.215,8.238 0,4.54 3.686,8.238 8.215,8.238 4.562,-10e-4 8.249,-3.698 8.249,-8.238"
                   id="path1568" />
                <path
                   inkscape:connector-curvature="0"
                   style="fill:#c8c6cd;fill-opacity:1"
                   d="m 400.546,-85.271 c 0,-4.54 -3.686,-8.238 -8.249,-8.238 -4.54,0 -8.226,3.698 -8.226,8.238 0,4.54 3.686,8.238 8.226,8.238 4.563,-0.001 8.249,-3.699 8.249,-8.238"
                   id="path1570" />
                <path
                   inkscape:connector-curvature="0"
                   style="fill:#c8c6cd;fill-opacity:1"
                   d="m 174.219,21.816 c 0,-4.54 -3.686,-8.238 -8.238,-8.238 -4.551,0 -8.238,3.698 -8.238,8.238 0,4.551 3.686,8.238 8.238,8.238 4.552,0 8.238,-3.687 8.238,-8.238"
                   id="path1572" />
              </g>
              <g
                 transform="translate(1.764,2.02)"
                 id="g1577">
                <path
                   inkscape:connector-curvature="0"
                   id="SVGCleanerId_0_1_"
                   style="fill:#c8c6cd;fill-opacity:1"
                   d="m 187.66515,25.045376 c 0,-4.551 -3.686,-8.238 -8.238,-8.238 -4.54,0 -8.226,3.686 -8.226,8.238 0,4.54 3.686,8.238 8.226,8.238 4.551,0 8.238,-3.698 8.238,-8.238" />
              </g>
              <path
                 inkscape:connector-curvature="0"
                 style="fill:#c8c6cd;fill-opacity:1"
                 d="m 0.094,-24.082 c 3.004,11.981 52.975,53.737 98.315,45.898 23.029,-3.994 33.473,-38.161 58.049,-39.014 128.455,-4.426 253.406,-126.726 214.437,-243.382 -17.124,-51.268 -63.92,-100.09 -175.912,-56.9 -22.244,8.579 -45.17,22.596 -89.02,13.961 -32.449,-6.406 -35.829,-35.942 -31.892,-51.166 3.095,-11.924 -1.832,-18 -7.964,-8.636 -13.949,21.254 -14.985,49.471 7.305,67.766 44.51,36.534 105.222,14.609 149.481,0.671 73.739,-23.256 112.833,41.54 72.192,117.362 -39.856,74.41 -111.638,94.708 -159.345,100.317 -13.289,1.559 -41.404,-23.313 -61.065,-19.831 -41.188,7.316 -76.743,64.262 -74.581,72.954"
                 id="path1579" />
              <path
                 inkscape:connector-curvature="0"
                 style="fill:#d9d9d9;fill-opacity:1"
                 d="m 0.094,-24.082 c 3.004,11.981 52.975,53.737 98.315,45.898 23.029,-3.994 33.473,-38.161 58.049,-39.014 128.455,-4.426 253.406,-126.726 214.437,-243.382 -17.124,-51.268 -63.92,-100.09 -175.912,-56.9 -22.244,8.579 -45.17,22.596 -89.02,13.961 -32.449,-6.406 -35.829,-35.942 -31.892,-51.166 1.525,-5.871 1.115,-10.308 -0.444,-12.208 -10.479,14.586 -15.497,49.38 7.532,66.731 40.266,30.345 97.485,1.49 151.336,-11.856 116.634,-28.911 138.615,90.965 89.975,169.244 C 263.455,-47.793 77.372,-25.197 0.094,-24.082"
                 id="path1581" />
              <path
                 inkscape:connector-curvature="0"
                 id="SVGCleanerId_1"
                 style="fill:#292f33"
                 d="m 88.749,6.092 c 0,-6.281 -5.097,-11.378 -11.378,-11.378 -6.281,0 -11.377,5.098 -11.377,11.378 0,6.28 5.097,11.378 11.378,11.378 6.281,0 11.377,-5.097 11.377,-11.378" />
              <g
                 transform="translate(-1,-7)"
                 id="g1585">
                <path
                   inkscape:connector-curvature="0"
                   id="SVGCleanerId_1_1_"
                   style="fill:#292f33"
                   d="m 77.372,-73.552 c 0,-6.281 -5.097,-11.378 -11.378,-11.378 -6.281,0 -11.378,5.097 -11.378,11.378 0,6.281 5.097,11.378 11.378,11.378 6.281,0 11.378,-5.098 11.378,-11.378" />
              </g>
            </g>
          </g>
        </g>
        <g
           id="g1593" />
        <g
           id="g1595" />
        <g
           id="g1597" />
        <g
           id="g1599" />
        <g
           id="g1601" />
        <g
           id="g1603" />
        <g
           id="g1605" />
        <g
           id="g1607" />
        <g
           id="g1609" />
        <g
           id="g1611" />
        <g
           id="g1613" />
        <g
           id="g1615" />
        <g
           id="g1617" />
        <g
           id="g1619" />
        <g
           id="g1621" />
      </g>
      <g
         transform="matrix(0.06771433,0,0,0.06183253,190.64343,163.19931)"
         id="g1838">
        <path
           inkscape:connector-curvature="0"
           style="fill:#d9d9d9;fill-opacity:1"
           d="m 415.345,402.472 -202.61,-284.96 c -6.43,-9.043 -9.885,-19.864 -9.885,-30.961 V 77.644 L 144.181,96.38 v 0.603 c 0,19.434 -5.702,38.339 -15.822,54.93 -7.889,12.932 -12.464,28.106 -12.547,44.344 -0.141,27.875 13.224,52.937 33.952,68.839 l 0.003,-0.003 158.977,103.563 -19.266,-54.495 117.887,95.794 c 4.988,4.056 11.706,-2.244 7.98,-7.483 z"
           id="path1741" />
        <path
           inkscape:connector-curvature="0"
           style="fill:#d9d9d9;fill-opacity:1"
           d="M 106.881,51.94 C 106.881,23.329 127.408,0 156.019,0 c 28.611,0 51.805,23.194 51.805,51.805 v 5.578 c 0,24.175 -19.598,43.773 -43.773,43.773 -24.175,0 -41.721,-22.004 -41.721,-46.179 z"
           id="path1747" />
        <path
           inkscape:connector-curvature="0"
           style="fill:#d0d0d0;fill-opacity:1"
           d="m 158.854,122.588 c 13.632,0 24.683,-11.051 24.683,-24.683 V 83.813 L 144.18,96.382 v 0.603 c 0,8.694 -1.149,17.28 -3.317,25.603 z"
           id="path1749" />
        <path
           inkscape:connector-curvature="0"
           style="fill:#ffffff"
           d="m 106.881,51.735 c 0,-24.308 17.439,-44.127 41.747,-44.127 24.308,0 44.013,19.705 44.013,44.013 v 4.739 c 0,49.456 -42.875,42.531 -42.875,42.531 0,0 -7.17,-7.351 -12.365,-10.773 -10.656,-7.021 -15.29,-20.895 -15.29,-34.703 z"
           id="path1751" />
        <path
           inkscape:connector-curvature="0"
           style="fill:#464655"
           d="m 104.214,51.805 c 0,6.727 1.282,13.154 3.615,19.051 0.358,0.905 1.619,0.956 2.048,0.083 0.961,-1.953 2.219,-4.142 3.87,-6.41 2.25,-3.09 4.581,-5.438 6.532,-7.145 0.003,3.786 0.488,14.876 8.316,25.664 5.231,7.209 12.608,12.759 21.192,15.718 2.915,-16.594 5.244,-35.339 6.232,-55.93 0.736,-15.342 0.631,-29.678 0,-42.836 -28.611,0 -51.805,23.194 -51.805,51.805 z"
           id="path1753" />
        <path
           inkscape:connector-curvature="0"
           style="fill:#35363f"
           d="m 149.787,98.766 c 2.915,-16.594 5.244,-35.339 6.232,-55.93 -5.201,0 -10.222,0.766 -14.958,2.192 -9.336,2.811 -17.782,10.066 -20.782,12.355 0.003,3.786 0.488,14.876 8.316,25.664 5.231,7.209 12.608,12.76 21.192,15.719 z"
           id="path1755" />
        <circle
           style="fill:#464655"
           cx="178.92"
           cy="33.605999"
           r="8.1230001"
           id="circle1757" />
        <path
           inkscape:connector-curvature="0"
           style="fill:#c8c6cd;fill-opacity:1"
           d="M 398.424,498.597 347.163,361.039 273.829,301.448 380.396,506.602 c 5.713,10.997 22.356,3.607 18.028,-8.005 z"
           id="path1759" />
        <path
           inkscape:connector-curvature="0"
           style="fill:#b5b3b9;fill-opacity:1"
           d="m 415.346,402.472 c 3.725,5.239 -2.993,11.539 -7.982,7.485 l -225.23,-183.022 -4.984,-4.049 c -11.596,-9.102 -19.045,-23.247 -19.045,-39.132 0,-27.46 22.261,-49.72 49.72,-49.72 6.865,0 13.405,1.391 19.353,3.907"
           id="path1761" />
        <path
           inkscape:connector-curvature="0"
           style="fill:#d9d9d9;fill-opacity:1"
           d="m 222.297,364.079 c -4.376,0 -7.923,-3.547 -7.923,-7.923 v -55.963 c 0,-4.376 3.547,-7.923 7.923,-7.923 4.376,0 7.923,3.547 7.923,7.923 v 55.963 c 0,4.375 -3.547,7.923 -7.923,7.923 z"
           id="path1763" />
        <path
           inkscape:connector-curvature="0"
           style="fill:#464655"
           d="m 198.45,388.261 c -4.376,0 -7.923,-3.547 -7.923,-7.923 0,-17.703 14.403,-32.105 32.106,-32.105 4.376,0 7.923,3.547 7.923,7.923 0,4.376 -3.547,7.923 -7.923,7.923 -8.966,0 -16.26,7.294 -16.26,16.259 0,4.376 -3.546,7.923 -7.923,7.923 z"
           id="path1765" />
        <path
           inkscape:connector-curvature="0"
           style="fill:#d9d9d9;fill-opacity:1"
           d="m 186.164,339.896 c -4.376,0 -7.923,-3.547 -7.923,-7.923 v -54.139 c 0,-4.376 3.547,-7.923 7.923,-7.923 4.376,0 7.923,3.547 7.923,7.923 v 54.139 c 0,4.376 -3.547,7.923 -7.923,7.923 z"
           id="path1767" />
        <path
           inkscape:connector-curvature="0"
           style="fill:#464655"
           d="m 162.318,364.079 c -4.376,0 -7.923,-3.547 -7.923,-7.923 0,-17.703 14.402,-32.106 32.105,-32.106 4.376,0 7.923,3.547 7.923,7.923 0,4.376 -3.547,7.923 -7.923,7.923 -8.965,0 -16.259,7.294 -16.259,16.26 0,4.376 -3.546,7.923 -7.923,7.923 z"
           id="path1769" />
        <g
           id="g1771" />
        <g
           id="g1773" />
        <g
           id="g1775" />
        <g
           id="g1777" />
        <g
           id="g1779" />
        <g
           id="g1781" />
        <g
           id="g1783" />
        <g
           id="g1785" />
        <g
           id="g1787" />
        <g
           id="g1789" />
        <g
           id="g1791" />
        <g
           id="g1793" />
        <g
           id="g1795" />
        <g
           id="g1797" />
        <g
           id="g1799" />
      </g>
    </g>
  </g>
</svg>
