<?xml version="1.0" encoding="UTF-8" standalone="no"?>
<!-- Created with Inkscape (http://www.inkscape.org/) -->

<svg
   xmlns:dc="http://purl.org/dc/elements/1.1/"
   xmlns:cc="http://creativecommons.org/ns#"
   xmlns:rdf="http://www.w3.org/1999/02/22-rdf-syntax-ns#"
   xmlns:svg="http://www.w3.org/2000/svg"
   xmlns="http://www.w3.org/2000/svg"
   xmlns:xlink="http://www.w3.org/1999/xlink"
   xmlns:sodipodi="http://sodipodi.sourceforge.net/DTD/sodipodi-0.dtd"
   xmlns:inkscape="http://www.inkscape.org/namespaces/inkscape"
   width="207.50574mm"
   height="169.56569mm"
   viewBox="0 0 207.50574 169.56569"
   version="1.1"
   id="svg8"
   inkscape:version="0.92.1 r15371"
   sodipodi:docname="geografia.svg">
  <defs
     id="defs2">
    <linearGradient
       inkscape:collect="always"
       id="linearGradient970">
      <stop
         style="stop-color:#008080;stop-opacity:1"
         offset="0"
         id="stop966" />
      <stop
         style="stop-color:#ffffff;stop-opacity:1"
         offset="1"
         id="stop968" />
    </linearGradient>
    <linearGradient
       inkscape:collect="always"
       xlink:href="#linearGradient970"
       id="linearGradient972"
       x1="72.921745"
       y1="11.461015"
       x2="153.5874"
       y2="185.05348"
       gradientUnits="userSpaceOnUse"
       gradientTransform="matrix(1.0125,0,0,1.0037736,-0.66145834,-0.64717609)" />
  </defs>
  <sodipodi:namedview
     id="base"
     pagecolor="#ffffff"
     bordercolor="#666666"
     borderopacity="1.0"
     inkscape:pageopacity="0.0"
     inkscape:pageshadow="2"
     inkscape:zoom="0.41"
     inkscape:cx="-120.76521"
     inkscape:cy="311.74896"
     inkscape:document-units="mm"
     inkscape:current-layer="layer3"
     showgrid="false"
     showguides="false"
     inkscape:window-width="1366"
     inkscape:window-height="706"
     inkscape:window-x="-8"
     inkscape:window-y="-8"
     inkscape:window-maximized="1" />
  <metadata
     id="metadata5">
    <rdf:RDF>
      <cc:Work
         rdf:about="">
        <dc:format>image/svg+xml</dc:format>
        <dc:type
           rdf:resource="http://purl.org/dc/dcmitype/StillImage" />
        <dc:title />
      </cc:Work>
    </rdf:RDF>
  </metadata>
  <g
     inkscape:groupmode="layer"
     id="layer3"
     inkscape:label="fundo">
    <rect
       style="fill:url(#linearGradient972);fill-opacity:1;stroke-width:0.26673368"
       id="rect964"
       width="209.08536"
       height="171.65651"
       x="0.64532512"
       y="-0.15483938" />
  </g>
  <g
     inkscape:label="Camada 1"
     inkscape:groupmode="layer"
     id="layer1"
     transform="translate(-45.784174,-93.128374)"
     style="display:inline">
    <g
       id="g5687">
      <g
         transform="matrix(0.19669153,0,0,0.20026477,91.892792,137.87521)"
         id="g3375">
        <g
           id="g3314">
          <ellipse
             style="fill:#2d404e;stroke-width:1.00904679"
             cx="260.65179"
             cy="255.9989"
             id="circle3302"
             rx="260.65179"
             ry="256.0011" />
          <path
             inkscape:connector-curvature="0"
             style="fill:#48b19b"
             d="m 512,256 c 0,-51.363 -15.124,-99.191 -41.165,-139.275 0,0 -14.604,21.334 -11.86,35.047 2.742,13.715 18.855,14.762 17.2,24.822 -1.655,10.06 -13.541,-2.879 -28.172,23.633 -14.63,26.514 -7.312,63.096 13.714,65.834 C 482.744,268.797 512,256 512,256 Z"
             id="path3304" />
          <path
             inkscape:connector-curvature="0"
             style="fill:#48b19b"
             d="m 323.23,8.92 c 29.797,8.088 57.434,21.424 81.857,38.951 0,0 -29.684,-4.896 -40.929,5.158 -11.244,10.057 -27.643,33.832 -40.929,0 C 309.945,19.199 323.23,8.92 323.23,8.92 Z"
             id="path3306" />
          <path
             inkscape:connector-curvature="0"
             style="fill:#48b19b"
             d="M 63.519,87.219 C 110.437,33.754 179.275,0 256,0 c 0,0 -17.368,10.516 15.546,28.344 32.915,17.83 17.828,26.057 10.971,31.543 C 275.661,65.373 263.768,48.916 256,37.946 248.231,26.973 214.868,10.061 189.266,19.206 c -25.601,9.145 -47.539,15.9 -43.885,24.408 3.653,8.506 47.539,-7.945 63.996,-7.035 16.457,0.912 10.971,10.967 -4.569,22.854 -15.542,11.887 -17.374,26.514 -0.916,35.656 16.456,9.146 36.566,10.061 41.143,4.576 4.574,-5.486 -8.229,-41.143 22.858,-25.602 31.087,15.541 56.688,24.691 31.087,47.545 -25.602,22.852 -54.857,48.461 -55.773,63.084 -0.916,14.625 9.146,26.52 3.66,27.43 -5.486,0.91 -10.521,-5.941 -14.176,-10.973 -3.653,-5.029 -20.571,-6.855 -28.799,-3.658 -8.229,3.197 -23.774,15.541 -15.086,27.428 8.689,11.889 20.565,6.396 32.454,11.883 11.887,5.486 22.972,26.365 20.696,31.084 -2.276,4.717 -12.409,-1.256 -20.696,-17.369 -8.289,-16.115 -23.835,-5.486 -34.773,-8.229 -10.939,-2.742 -19.168,-4.57 -30.14,-23.771 C 145.375,199.318 122.66,193.945 113.378,182.861 86.789,151.111 88.691,127.09 83.206,116.119 77.72,105.145 63.519,87.219 63.519,87.219 Z"
             id="path3308" />
          <path
             inkscape:connector-curvature="0"
             style="fill:#48b19b"
             d="m 280.685,259.658 c 0,0 27.429,2.738 41.143,14.627 13.714,11.887 15.546,16.461 36.573,21.031 21.027,4.568 30.172,16.451 16.457,39.311 -13.714,22.857 -38.404,59.43 -50.287,70.402 -11.882,10.973 -26.512,20.115 -31.998,38.4 -5.485,18.283 -7.317,29.248 4.57,36.568 0,0 -6.396,15.545 -21.026,-4.57 -14.631,-20.117 -2.744,-43.885 0,-57.6 2.742,-13.713 10.055,-54.852 5.484,-64.914 -4.568,-10.059 -25.601,-16.461 -31.087,-37.486 -5.486,-21.026 4.115,-61.944 30.171,-55.769 z"
             id="path3310" />
          <path
             inkscape:connector-curvature="0"
             style="opacity:0.6;fill:#253744;enable-background:new"
             d="m 74.98,74.983 c 99.975,-99.977 262.062,-99.975 362.038,0 99.976,99.973 99.976,262.062 0.001,362.037 0,0 116.148,-153.59 -48.293,-318.031 C 224.284,-45.453 74.98,74.983 74.98,74.983 Z"
             id="path3312" />
        </g>
        <g
           id="g3316" />
        <g
           id="g3318" />
        <g
           id="g3320" />
        <g
           id="g3322" />
        <g
           id="g3324" />
        <g
           id="g3326" />
        <g
           id="g3328" />
        <g
           id="g3330" />
        <g
           id="g3332" />
        <g
           id="g3334" />
        <g
           id="g3336" />
        <g
           id="g3338" />
        <g
           id="g3340" />
        <g
           id="g3342" />
        <g
           id="g3344" />
      </g>
      <path
         style="fill:none;stroke:#000000;stroke-width:1.26499999;stroke-linecap:butt;stroke-linejoin:miter;stroke-miterlimit:4;stroke-dasharray:none;stroke-opacity:1"
         d="m 185.88971,183.32517 49.69699,61.63931"
         id="path3935-8-9-6"
         inkscape:connector-curvature="0"
         sodipodi:nodetypes="cc" />
      <g
         transform="matrix(0.09993164,0,0,0.09993164,201.57457,210.99372)"
         id="g5172">
        <g
           id="g5067">
          <g
             id="g4969">
            <circle
               style="fill:#8dd9ff"
               cx="256"
               cy="256"
               r="256"
               id="circle4967" />
          </g>
          <g
             id="g4973">
            <path
               inkscape:connector-curvature="0"
               style="fill:#e5d7a8"
               d="M 511.282,274.235 C 511.707,268.205 512,262.138 512,256 c 0,-9.165 -0.503,-18.21 -1.442,-27.125 -9.648,1.634 -57.322,14.148 -68.419,14.474 -11.862,0.349 -29.138,-11.015 -37.805,-8.015 -8.667,3 -67.399,11.872 -70.333,11.836 -2.935,-0.036 -34.5,-12.669 -41,-12.669 -6.5,0 -58.5,15 -73.5,12.357 -15,-2.643 -38.5,-15.076 -45.389,-15.076 C 167.223,231.782 85,258 56.155,241.285 27.31,224.57 17.5,233 0.594,243 l -0.285,0.789 C 0.118,247.837 0,251.904 0,256 c 0,18.352 1.97,36.237 5.64,53.495 l 388.414,16.509 z"
               id="path4971" />
          </g>
          <g
             style="opacity:0.3"
             id="g4977">
            <path
               inkscape:connector-curvature="0"
               style="fill:#fffff4"
               d="M 256,0 C 185.272,0 121.246,28.684 74.914,75.051 104.374,146.051 174.342,196 256,196 337.658,196 407.626,146.051 437.086,75.051 390.754,28.684 326.728,0 256,0 Z"
               id="path4975" />
          </g>
          <g
             id="g4981">
            <path
               inkscape:connector-curvature="0"
               style="fill:#ffc868"
               d="m 350.398,230.4 c -19.847,0 -75.419,45.291 -112.476,51.815 25.706,35.526 62.066,57.725 102.412,57.725 40.887,0 77.691,-22.784 103.45,-59.149 C 422.479,270.705 372.959,230.4 350.398,230.4 Z"
               id="path4979" />
          </g>
          <g
             id="g4985">
            <path
               inkscape:connector-curvature="0"
               style="fill:#ffdc87"
               d="M 442.138,279.941 C 420.057,268.727 372.42,230.4 350.398,230.4 c -0.7,0 -1.542,0.179 -2.329,0.288 -8.734,2.565 -16.137,18.291 -7.735,36.215 8.08,17.237 22.036,44.107 0,73.005 l 0.02,0.032 c 14.596,-0.003 38.871,11.396 57.565,13.66 19.601,-19.898 34.933,-45.106 44.219,-73.659 z"
               id="path4983" />
          </g>
          <g
             id="g4989">
            <path
               inkscape:connector-curvature="0"
               style="fill:#f9be58"
               d="m 446.386,370.167 c 21.723,-34.511 34.938,-71.563 47.043,-110.8 0.594,-1.927 1.306,-3.718 2.082,-5.431 -16.46,-9.638 -31.897,-16.926 -42.465,-16.926 -16.32,0 -52.481,25.131 -88.137,43.907 1.699,26.511 7.434,51.911 16.596,75.618 18.48,8.913 38.44,13.826 59.29,13.826 1.875,0 3.729,-0.116 5.591,-0.194 z"
               id="path4987" />
          </g>
          <g
             id="g4993">
            <path
               inkscape:connector-curvature="0"
               style="fill:#ffd267"
               d="m 453.045,237.01 c -0.852,0 -1.877,0.217 -2.835,0.35 -10.632,3.122 -19.644,22.267 -9.417,44.087 9.836,20.984 26.827,53.695 0,88.875 l 0.025,0.039 c 10.356,-0.002 24.727,4.707 39.41,9.185 19.029,-34.462 30.296,-73.779 31.572,-115.622 -22.175,-14.133 -44.73,-26.914 -58.755,-26.914 z"
               id="path4991" />
          </g>
          <g
             id="g4997">
            <path
               inkscape:connector-curvature="0"
               style="fill:#ffc868"
               d="m 0.594,272.602 c 1.699,26.511 7.434,51.911 16.596,75.618 18.48,8.913 38.44,13.826 59.29,13.826 49.775,0 94.58,-27.737 125.938,-72.006 -25.937,-12.279 -86.222,-61.345 -113.687,-61.345 -16.32,0 -52.482,25.131 -88.137,43.907 z"
               id="path4995" />
          </g>
          <g
             id="g5001">
            <path
               inkscape:connector-curvature="0"
               style="fill:#ffdc87"
               d="m 200.413,289.005 c -26.88,-13.652 -84.873,-60.31 -111.683,-60.31 -0.852,0 -1.877,0.218 -2.835,0.35 -10.632,3.122 -19.644,22.267 -9.417,44.087 9.836,20.984 26.826,53.695 0,88.875 0,0 0.024,0.036 0.025,0.039 17.769,-0.003 47.321,13.873 70.079,16.63 23.862,-24.224 42.527,-54.912 53.831,-89.671 z"
               id="path4999" />
          </g>
          <g
             id="g5005">
            <path
               inkscape:connector-curvature="0"
               style="fill:#f9be58"
               d="m 238.432,237.01 c -24.161,0 -91.814,55.136 -136.926,63.078 31.294,43.249 75.558,70.273 124.675,70.273 49.775,0 94.58,-27.737 125.938,-72.007 C 326.182,286.076 265.897,237.01 238.432,237.01 Z"
               id="path5003" />
          </g>
          <g
             id="g5009">
            <path
               inkscape:connector-curvature="0"
               style="fill:#ffd267"
               d="m 350.115,297.319 c -26.88,-13.652 -84.873,-60.31 -111.683,-60.31 -0.852,0 -1.877,0.218 -2.835,0.35 -10.632,3.122 -19.644,22.267 -9.417,44.087 9.836,20.984 26.826,53.695 0,88.875 l 0.025,0.039 c 17.769,-0.003 47.321,13.873 70.079,16.63 23.861,-24.223 42.527,-54.911 53.831,-89.671 z"
               id="path5007" />
          </g>
          <g
             id="g5019">
            <g
               id="g5013">
              <path
                 inkscape:connector-curvature="0"
                 style="fill:#f9be58"
                 d="m 468.88,347.177 c 0.035,-1.058 0.118,-2.113 0.12,-3.177 0.007,-4.327 0.9,-8.391 2.222,-12.29 C 433.012,310.103 379.306,276 351.497,276 c -31.301,0 -118.944,62.846 -177.386,71.899 40.54,49.298 97.885,80.101 161.514,80.101 51.83,0 99.479,-20.456 137.286,-54.675 -4.203,-7.857 -5.515,-17.332 -4.031,-26.148 z"
                 id="path5011" />
            </g>
            <g
               id="g5017">
              <path
                 inkscape:connector-curvature="0"
                 style="fill:#ffd267"
                 d="M 496.181,344.744 C 461.358,329.183 386.229,276 351.497,276 c -1.104,0 -2.432,0.248 -3.672,0.399 -13.774,3.559 -25.449,25.381 -12.199,50.252 12.743,23.918 34.753,61.204 0,101.303 l 0.032,0.044 c 23.02,-0.004 61.303,15.813 90.786,18.956 30.912,-27.61 55.093,-62.59 69.737,-102.21 z"
                 id="path5015" />
            </g>
          </g>
          <g
             id="g5029">
            <g
               id="g5023">
              <path
                 inkscape:connector-curvature="0"
                 style="fill:#f9be58"
                 d="m 126.218,292 c -20.428,0 -66.262,29.992 -110.853,51.524 13.581,37.33 35.64,70.559 63.791,97.477 10.458,1.956 21.162,3 32.07,3 60.908,0 115.734,-31.616 154.106,-82.076 C 233.596,347.928 159.827,292 126.218,292 Z"
                 id="path5021" />
            </g>
            <g
               id="g5027">
              <path
                 inkscape:connector-curvature="0"
                 style="fill:#ffd267"
                 d="M 265.333,361.924 C 233.596,347.928 159.827,292 126.218,292 c -1.043,0 -2.297,0.248 -3.469,0.399 -13.01,3.559 -24.038,25.381 -11.523,50.252 12.036,23.918 32.826,61.204 0,101.303 l 0.03,0.044 c 60.897,-0.01 115.712,-31.623 154.077,-82.074 z"
                 id="path5025" />
            </g>
          </g>
          <g
             id="g5033">
            <path
               inkscape:connector-curvature="0"
               style="fill:#ecab4e"
               d="M 274.268,360 C 238.242,360 137.366,422.846 70.1,431.899 116.761,481.197 182.763,512 256,512 330.219,512 397.026,480.384 443.784,429.924 405.111,415.928 315.221,360 274.268,360 Z"
               id="path5031" />
          </g>
          <g
             id="g5037">
            <path
               inkscape:connector-curvature="0"
               style="fill:#ffc353"
               d="M 443.784,429.924 C 405.111,415.928 315.221,360 274.268,360 c -1.271,0 -2.799,0.248 -4.227,0.399 -15.854,3.559 -29.292,25.381 -14.041,50.252 14.667,23.918 40,61.204 0,101.303 0,0 0.035,0.042 0.037,0.044 74.203,-0.01 140.997,-31.623 187.747,-82.074 z"
               id="path5035" />
          </g>
          <g
             style="opacity:0.5"
             id="g5041">
            <path
               inkscape:connector-curvature="0"
               style="fill:#ffffff"
               d="m 62.449,145.449 c 0,-6.284 12.721,-11.378 28.414,-11.378 2.368,0 4.633,0.15 6.832,0.369 7.414,-3.206 17.926,-5.245 29.699,-5.245 22.418,0 40.591,7.277 40.591,16.254 z"
               id="path5039" />
          </g>
          <g
             id="g5045">
            <path
               inkscape:connector-curvature="0"
               style="fill:#ffffff"
               d="m 249.859,145.449 c 0,-4.929 9.978,-8.924 22.287,-8.924 1.858,0 3.634,0.118 5.359,0.289 5.815,-2.515 14.061,-4.114 23.295,-4.114 17.584,0 31.838,5.708 31.838,12.749 z"
               id="path5043" />
          </g>
          <g
             id="g5049">
            <path
               inkscape:connector-curvature="0"
               style="fill:#ffffff"
               d="m 232.74,131.037 c 0,-6.284 -12.457,-11.378 -27.823,-11.378 -2.319,0 -4.537,0.15 -6.69,0.369 -7.26,-3.206 -17.554,-5.245 -29.082,-5.245 -21.951,0 -39.747,7.277 -39.747,16.254 z"
               id="path5047" />
          </g>
          <g
             style="opacity:0.5"
             id="g5053">
            <path
               inkscape:connector-curvature="0"
               style="fill:#ffffff"
               d="m 405.658,121.783 c 0,-5.412 -10.73,-9.8 -23.965,-9.8 -1.998,0 -3.908,0.129 -5.763,0.318 -6.253,-2.762 -15.12,-4.518 -25.05,-4.518 -18.908,0 -34.236,6.268 -34.236,14 z"
               id="path5051" />
          </g>
          <g
             style="opacity:0.5"
             id="g5057">
            <path
               inkscape:connector-curvature="0"
               style="fill:#ffffff"
               d="m 448.074,136 c 0,-3.982 -7.894,-7.211 -17.632,-7.211 -1.47,0 -2.875,0.095 -4.24,0.234 -4.601,-2.032 -11.124,-3.324 -18.43,-3.324 -13.912,0 -25.189,4.612 -25.189,10.301 z"
               id="path5055" />
          </g>
          <g
             id="g5061">
            <path
               inkscape:connector-curvature="0"
               style="fill:#ffffff"
               d="M 256,0 C 237.577,0 219.624,1.989 202.304,5.687 205.146,32.836 228.098,54 256,54 283.902,54 306.854,32.836 309.696,5.687 292.376,1.989 274.423,0 256,0 Z"
               id="path5059" />
          </g>
          <g
             style="opacity:0.4"
             id="g5065">
            <path
               inkscape:connector-curvature="0"
               style="fill:#fffff4"
               d="m 256,0 c -37.491,0 -73.063,8.126 -105.151,22.606 10.391,48.55 53.5,84.969 105.151,84.969 51.651,0 94.76,-36.419 105.151,-84.969 C 329.063,8.126 293.491,0 256,0 Z"
               id="path5063" />
          </g>
        </g>
        <g
           id="g5069" />
        <g
           id="g5071" />
        <g
           id="g5073" />
        <g
           id="g5075" />
        <g
           id="g5077" />
        <g
           id="g5079" />
        <g
           id="g5081" />
        <g
           id="g5083" />
        <g
           id="g5085" />
        <g
           id="g5087" />
        <g
           id="g5089" />
        <g
           id="g5091" />
        <g
           id="g5093" />
        <g
           id="g5095" />
        <g
           id="g5097" />
      </g>
      <path
         style="fill:none;stroke:#000000;stroke-width:1.32751882;stroke-linecap:butt;stroke-linejoin:miter;stroke-miterlimit:4;stroke-dasharray:none;stroke-opacity:1"
         d="m 137.28498,169.82228 88.0221,-53.11091"
         id="path3935-8-9"
         inkscape:connector-curvature="0"
         sodipodi:nodetypes="cc" />
      <g
         transform="translate(0,-0.52916667)"
         id="g2568">
        <path
           style="fill:none;stroke:#000000;stroke-width:1.26499999;stroke-linecap:butt;stroke-linejoin:miter;stroke-miterlimit:4;stroke-dasharray:none;stroke-opacity:1"
           d="M 89.959578,229.965 163.18001,199.83255"
           id="path3935"
           inkscape:connector-curvature="0"
           sodipodi:nodetypes="cc" />
        <path
           style="fill:none;stroke:#000000;stroke-width:1.26499999;stroke-linecap:butt;stroke-linejoin:miter;stroke-miterlimit:4;stroke-dasharray:none;stroke-opacity:1"
           d="M 57.505109,109.37403 120.23203,157.691"
           id="path3935-8"
           inkscape:connector-curvature="0"
           sodipodi:nodetypes="cc" />
        <g
           id="g2454"
           transform="matrix(1.0040699,0,0,0.9999829,-0.18655309,0.00449235)">
          <g
             transform="matrix(0.09932031,0,0,0.09932031,45.890215,211.83589)"
             id="g3931">
            <g
               id="g3784">
              <g
                 id="g3602">
                <circle
                   r="256"
                   style="fill:#8dd9ff"
                   cx="256"
                   cy="256"
                   id="circle3600" />
              </g>
              <g
                 style="opacity:0.3"
                 id="g3606">
                <path
                   inkscape:connector-curvature="0"
                   style="fill:#fffff4"
                   d="M 153.423,21.442 C 141.133,42.833 134,67.561 134,94 c 0,80.633 65.366,146 146,146 80.634,0 146,-65.367 146,-146 0,-11.231 -1.388,-22.118 -3.789,-32.621 C 377.481,23.141 319.459,0 256,0 219.512,0 184.835,7.685 153.423,21.442 Z"
                   id="path3604" />
              </g>
              <g
                 style="opacity:0.4"
                 id="g3610">
                <circle
                   style="fill:#fffff4"
                   cx="280"
                   cy="94"
                   r="68.639"
                   id="circle3608" />
              </g>
              <g
                 style="opacity:0.6"
                 id="g3614">
                <path
                   inkscape:connector-curvature="0"
                   style="fill:#ffffff"
                   d="m 348.085,306.417 c 0,-12.222 -9.908,-22.131 -22.131,-22.131 -1.845,0 -3.608,0.292 -5.322,0.717 -5.775,-6.236 -13.962,-10.202 -23.132,-10.202 -17.461,0 -31.615,14.155 -31.615,31.615 h 82.2 z"
                   id="path3612" />
              </g>
              <g
                 id="g3618">
                <path
                   inkscape:connector-curvature="0"
                   style="fill:#ffffff"
                   d="m 171.318,306.417 c 0,-16.705 -13.542,-30.247 -30.247,-30.247 -2.521,0 -4.932,0.399 -7.273,0.98 -7.893,-8.523 -19.083,-13.943 -31.616,-13.943 -23.864,0 -43.211,19.346 -43.211,43.211 h 112.347 z"
                   id="path3616" />
              </g>
              <g
                 id="g3622">
                <path
                   inkscape:connector-curvature="0"
                   style="fill:#ffffff"
                   d="m 273.087,291.749 c -1.539,0 -2.993,0.303 -4.387,0.742 -4.416,-6.347 -11.74,-10.521 -20.058,-10.521 -8.318,0 -15.643,4.173 -20.058,10.521 -1.394,-0.44 -2.848,-0.742 -4.387,-0.742 -8.101,0 -14.667,6.567 -14.667,14.667 h 78.226 c -0.002,-8.1 -6.569,-14.667 -14.669,-14.667 z"
                   id="path3620" />
              </g>
              <g
                 id="g3626">
                <path
                   inkscape:connector-curvature="0"
                   style="fill:#ffffff"
                   d="m 435.169,294.608 c -1.239,0 -2.41,0.244 -3.532,0.598 -3.555,-5.11 -9.452,-8.47 -16.149,-8.47 -6.697,0 -12.594,3.36 -16.149,8.47 -1.122,-0.354 -2.293,-0.598 -3.532,-0.598 -6.522,0 -11.808,5.287 -11.808,11.808 h 62.978 c 0.001,-6.521 -5.286,-11.808 -11.808,-11.808 z"
                   id="path3624" />
              </g>
              <g
                 style="opacity:0.6"
                 id="g3630">
                <path
                   inkscape:connector-curvature="0"
                   style="fill:#ffffff"
                   d="m 489.448,291.93 c -1.52,0 -2.956,0.299 -4.333,0.733 -4.361,-6.269 -11.596,-10.391 -19.812,-10.391 -8.216,0 -15.45,4.122 -19.812,10.391 -1.377,-0.434 -2.813,-0.733 -4.333,-0.733 -8.001,0 -14.487,6.486 -14.487,14.487 h 77.263 c 10e-4,-8.001 -6.485,-14.487 -14.486,-14.487 z"
                   id="path3628" />
              </g>
              <g
                 style="opacity:0.2"
                 id="g3634">
                <path
                   inkscape:connector-curvature="0"
                   style="fill:#57b9e7"
                   d="M 503.935,320 H 46.667 L 88,416 c 0,0 118.137,69.333 152.402,77.333 14.091,3.29 38.771,8.834 62.948,14.224 C 401.14,489.26 479.372,415.433 503.935,320 Z"
                   id="path3632" />
              </g>
              <g
                 id="g3638">
                <path
                   inkscape:connector-curvature="0"
                   style="fill:#b3f4ef"
                   d="m 474.783,388.987 c -45.206,-18.245 -126.877,-30.453 -220.288,-30.453 -79.072,0 -149.789,8.74 -197.071,22.487 l 12.975,29.632 c 0,0 87.826,50.676 139.776,73.361 14.407,0.613 29.199,0.95 44.32,0.95 48.484,0 93.766,-3.309 132.499,-9.019 35.863,-21.406 66.069,-51.303 87.789,-86.958 z"
                   id="path3636" />
              </g>
              <g
                 id="g3642">
                <path
                   inkscape:connector-curvature="0"
                   style="fill:#ffffff"
                   d="M 465.151,403.557 H 132.192 V 427 h 314.274 c 6.679,-7.428 12.903,-15.267 18.685,-23.443 z"
                   id="path3640" />
              </g>
              <g
                 id="g3646">
                <path
                   inkscape:connector-curvature="0"
                   style="fill:#fff8db"
                   d="M 450.936,421.749 H 132.192 c 0,0 64.29,43.251 65.049,43.251 0.491,0 96.303,8.35 163.943,14.25 8.863,-0.994 17.515,-2.082 25.81,-3.304 24.211,-14.452 45.758,-32.847 63.942,-54.197 z"
                   id="path3644" />
              </g>
              <g
                 id="g3650">
                <path
                   inkscape:connector-curvature="0"
                   style="fill:#57b9e7"
                   d="m 256,333 c 89.83,0 171.652,10.788 233.157,28.471 6.021,-13.281 11.077,-27.093 14.777,-41.471 H 46.667 l 13.812,32.079 C 116.109,340.051 183.43,333 256,333 Z"
                   id="path3648" />
              </g>
              <g
                 id="g3692">
                <g
                   id="g3656">
                  <g
                     id="g3654">
                    <path
                       inkscape:connector-curvature="0"
                       style="fill:#8c665b"
                       d="m 47.719,324 c -2.984,0 -5.844,-1.672 -7.219,-4.535 -1.914,-3.984 -0.234,-8.762 3.75,-10.676 34.969,-16.801 76.656,-53.531 76.656,-133.109 0,-4.418 3.578,-8 8,-8 4.422,0 8,3.582 8,8 0,87.898 -46.625,128.742 -85.734,147.531 -1.117,0.535 -2.297,0.789 -3.453,0.789 z"
                       id="path3652" />
                  </g>
                </g>
                <g
                   id="g3690">
                  <g
                     id="g3662">
                    <g
                       id="g3660">
                      <path
                         inkscape:connector-curvature="0"
                         style="fill:#43ab5f"
                         d="m 132.046,168.183 c 0,0 -48.214,-1.262 -49.891,48.188 0,0 5.467,-4.433 7.382,-8.57 0,0 1.238,2.507 0.361,5.124 0,0 4.508,-4.382 5.691,-9.236 0,0 0.815,1.811 0.016,4.433 0,0 4.708,-3.868 6.007,-6.957 0,0 0.767,1.389 -0.3,3.325 0,0 4.467,-3.883 5.582,-9.411 0,0 1.363,1.262 1.013,4.165 0,0 5.341,-6.333 5.896,-9.974 0,0 1.823,0.761 0.781,3.507 0,-10e-4 13.088,-9.728 17.462,-24.594 z"
                         id="path3658" />
                    </g>
                  </g>
                  <g
                     id="g3668">
                    <g
                       id="g3666">
                      <path
                         inkscape:connector-curvature="0"
                         style="fill:#43ab5f"
                         d="m 132.046,168.183 c 0,0 40.842,25.655 14.847,67.755 0,0 -2.097,-6.719 -1.399,-11.224 0,0 -2.42,1.401 -3.139,4.066 0,0 -1.327,-6.145 0.378,-10.843 0,0 -1.682,1.057 -2.468,3.683 0,0 -1.778,-5.828 -1.148,-9.12 0,0 -1.408,0.732 -1.592,2.935 0,0 -1.568,-5.708 0.565,-10.927 0,0 -1.834,0.296 -3.15,2.906 0,0 -0.939,-8.231 0.616,-11.57 0,0 -1.94,-0.376 -2.593,2.488 -0.001,-0.001 -5.509,-15.349 -0.917,-30.149 z"
                         id="path3664" />
                    </g>
                  </g>
                  <g
                     id="g3674">
                    <g
                       id="g3672">
                      <path
                         inkscape:connector-curvature="0"
                         style="fill:#52c883"
                         d="m 132.046,168.183 c 0,0 4.962,-50.133 -43.047,-55.016 0,0 3.892,5.975 7.771,8.232 0,0 -2.537,1.13 -5.017,0.05 0,0 3.917,4.973 8.551,6.513 0,0 -1.826,0.735 -4.317,-0.264 0,0 3.4,5.148 6.308,6.697 0,0 -1.411,0.71 -3.213,-0.523 0,0 3.434,4.898 8.729,6.41 0,0 -1.334,1.34 -4.133,0.792 0,0 5.752,5.963 9.254,6.773 0,0 -0.883,1.85 -3.475,0.59 0,0 8.456,14.247 22.589,19.746 z"
                         id="path3670" />
                    </g>
                  </g>
                  <g
                     id="g3678">
                    <path
                       inkscape:connector-curvature="0"
                       style="fill:#34be69"
                       d="m 132.046,168.183 c 0,0 -36.121,-40.796 -78.65,-3.771 0,0 7.912,1.071 12.838,-0.56 0,0 -1.137,2.97 -3.996,4.278 0,0 7.13,0.319 12.09,-2.475 0,0 -0.881,2.08 -3.684,3.456 0,0 6.855,0.884 10.433,-0.443 0,0 -0.568,1.712 -3.004,2.335 0,0 6.682,0.673 12.151,-2.701 0,0 -0.001,2.106 -2.692,4.072 0,0 9.399,-0.509 12.864,-2.879 0,0 0.771,2.097 -2.323,3.37 0.001,0.001 18.204,3.252 33.973,-4.682 z"
                       id="path3676" />
                  </g>
                  <g
                     id="g3682">
                    <path
                       inkscape:connector-curvature="0"
                       style="fill:#34be69"
                       d="m 132.046,168.183 c 0,0 52.671,-13.959 67.572,40.425 0,0 -7.181,-3.49 -10.379,-7.577 0,0 -0.699,3.102 0.957,5.775 0,0 -6.113,-3.684 -8.695,-8.758 0,0 -0.419,2.22 1.153,4.919 0,0 -6.197,-3.061 -8.441,-6.148 0,0 -0.475,1.74 1.208,3.608 0,0 -5.936,-3.141 -8.621,-8.98 0,0 -1.165,1.755 -0.014,4.882 0,0 -7.544,-5.63 -9.115,-9.522 0,0 -1.803,1.319 0.068,4.092 -0.002,0 -16.958,-7.375 -25.693,-22.716 z"
                       id="path3680" />
                  </g>
                  <g
                     id="g3688">
                    <g
                       id="g3686">
                      <path
                         inkscape:connector-curvature="0"
                         style="fill:#52c883"
                         d="m 132.046,168.183 c 0,0 9.609,-53.635 65.194,-44.157 0,0 -6.198,5.034 -11.253,6.205 0,0 2.516,1.944 5.638,1.573 0,0 -5.923,3.983 -11.611,4.179 0,0 1.834,1.319 4.944,1.034 0,0 -5.392,4.323 -9.139,5.052 0,0 1.375,1.165 3.78,0.43 0,0 -5.356,4.052 -11.781,4.018 0,0 1.098,1.798 4.418,2.076 0,0 -8.29,4.458 -12.482,4.237 0,0 0.433,2.192 3.738,1.668 -10e-4,0.001 -13.851,12.252 -31.446,13.685 z"
                         id="path3684" />
                    </g>
                  </g>
                </g>
              </g>
              <g
                 id="g3698">
                <g
                   id="g3696">
                  <path
                     inkscape:connector-curvature="0"
                     style="fill:#8c665b"
                     d="m 103.058,409.75 v -16.233 c 25.728,0 87.092,-67.741 88.717,-97.947 l 16.217,0.872 C 205.868,335.625 137.228,409.75 103.058,409.75 Z"
                     id="path3694" />
                </g>
              </g>
              <g
                 id="g3702">
                <circle
                   style="fill:#ffffff"
                   cx="280"
                   cy="94"
                   r="26.985001"
                   id="circle3700" />
              </g>
              <g
                 id="g3706">
                <path
                   inkscape:connector-curvature="0"
                   style="fill:#8c665b"
                   d="m 207.595,432 c -19.824,-16 -41.116,-0.667 -52.864,-24 -6.929,-13.763 -37.866,-4.4 -52.864,-16 C 82.043,376.667 85.078,356.917 75.435,336 63.045,309.125 31.942,290.454 2.09,288.225 17.948,414.386 125.538,512 256,512 c 64.899,0 124.115,-24.197 169.237,-64 -20.117,0 -153.906,0 -173.589,0 -21.293,0 -32.309,-6.521 -44.053,-16 z"
                   id="path3704" />
              </g>
              <g
                 id="g3740">
                <g
                   id="g3712">
                  <g
                     id="g3710">
                    <path
                       inkscape:connector-curvature="0"
                       style="fill:#43ab5f"
                       d="m 202.224,298.427 c 0,0 -52.8,-6.236 -59.616,47.878 0,0 6.448,-4.317 8.966,-8.665 0,0 1.107,2.877 -0.119,5.662 0,0 5.389,-4.356 7.177,-9.567 0,0 0.713,2.07 -0.429,4.868 0,0 5.558,-3.772 7.294,-7.033 0,0 0.702,1.602 -0.664,3.62 0,0 5.295,-3.813 7.075,-9.769 0,0 1.369,1.523 0.693,4.674 0,0 6.5,-6.415 7.476,-10.356 0,0 1.925,1.019 0.504,3.929 0,-0.001 15.345,-9.363 21.643,-25.241 z"
                       id="path3708" />
                  </g>
                </g>
                <g
                   id="g3718">
                  <g
                     id="g3716">
                    <path
                       inkscape:connector-curvature="0"
                       style="fill:#43ab5f"
                       d="m 202.224,298.427 c 0,0 42.252,32.272 9.481,75.871 0,0 -1.625,-7.587 -0.407,-12.462 0,0 -2.797,1.295 -3.855,4.148 0,0 -0.838,-6.879 1.505,-11.864 0,0 -1.952,0.991 -3.08,3.794 0,0 -1.365,-6.577 -0.342,-10.127 0,0 -1.619,0.662 -2.043,3.061 0,0 -1.147,-6.424 1.719,-11.939 0,0 -2.043,0.14 -3.75,2.873 0,0 -0.203,-9.13 1.84,-12.639 0,0 -2.091,-0.608 -3.097,2.47 0.001,10e-4 -4.501,-17.402 2.029,-33.186 z"
                       id="path3714" />
                  </g>
                </g>
                <g
                   id="g3724">
                  <g
                     id="g3722">
                    <path
                       inkscape:connector-curvature="0"
                       style="fill:#52c883"
                       d="m 202.224,298.427 c 0,0 10.491,-54.534 -41.719,-64.724 0,0 3.671,6.95 7.702,9.818 0,0 -2.898,0.985 -5.512,-0.449 0,0 3.799,5.853 8.731,8.01 0,0 -2.078,0.623 -4.712,-0.724 0,0 3.215,5.993 6.251,7.986 0,0 -1.621,0.637 -3.475,-0.898 0,0 3.277,5.723 8.937,7.914 0,0 -1.6,1.337 -4.617,0.453 0,0 5.714,7.125 9.477,8.366 0,0 -1.155,1.942 -3.874,0.298 10e-4,0.001 7.85,16.49 22.811,23.95 z"
                       id="path3720" />
                  </g>
                </g>
                <g
                   id="g3728">
                  <path
                     inkscape:connector-curvature="0"
                     style="fill:#34be69"
                     d="m 202.224,298.427 c 0,0 -35.547,-48.418 -85.959,-12.053 0,0 8.578,1.972 14.15,0.677 0,0 -1.547,3.146 -4.817,4.295 0,0 7.795,1.068 13.521,-1.5 0,0 -1.176,2.195 -4.392,3.423 0,0 7.436,1.66 11.498,0.563 0,0 -0.795,1.822 -3.532,2.261 0,0 7.267,1.411 13.611,-1.742 0,0 -0.213,2.312 -3.365,4.199 0,0 10.369,0.387 14.411,-1.866 0,0 0.635,2.38 -2.889,3.465 -0.001,0 19.654,5.4 37.763,-1.722 z"
                     id="path3726" />
                </g>
                <g
                   id="g3732">
                  <path
                     inkscape:connector-curvature="0"
                     style="fill:#34be69"
                     d="m 202.224,298.427 c 0,0 59.223,-10.024 70.109,51.175 0,0 -7.532,-4.554 -10.631,-9.361 0,0 -1.079,3.335 0.469,6.435 0,0 -6.34,-4.659 -8.664,-10.489 0,0 -0.683,2.395 0.771,5.515 0,0 -6.495,-3.983 -8.648,-7.599 0,0 -0.696,1.862 0.963,4.083 0,0 -6.2,-4.046 -8.56,-10.725 0,0 -1.456,1.809 -0.507,5.357 0,0 -7.715,-6.939 -9.048,-11.37 0,0 -2.112,1.267 -0.337,4.499 -0.001,10e-4 -17.872,-9.801 -25.917,-27.52 z"
                     id="path3730" />
                </g>
                <g
                   id="g3738">
                  <g
                     id="g3736">
                    <path
                       inkscape:connector-curvature="0"
                       style="fill:#52c883"
                       d="m 202.224,298.427 c 0,0 15.944,-57.911 76.009,-41.914 0,0 -7.31,4.902 -12.978,5.679 0,0 2.567,2.387 6.031,2.294 0,0 -6.902,3.777 -13.167,3.419 0,0 1.881,1.632 5.323,1.633 0,0 -6.354,4.203 -10.54,4.627 0,0 1.393,1.418 4.106,0.853 0,0 -6.287,3.909 -13.337,3.226 0,0 1.025,2.084 4.641,2.724 0,0 -9.549,4.059 -14.129,3.395 0,0 0.255,2.45 3.935,2.207 0.001,-10e-4 -16.435,12.054 -35.894,11.857 z"
                       id="path3734" />
                  </g>
                </g>
              </g>
              <g
                 id="g3744">
                <path
                   inkscape:connector-curvature="0"
                   style="fill:#8c665b"
                   d="m 398.258,216 h -16 c 0,84.383 26.153,147.25 79.725,191.986 3.179,-4.301 6.192,-8.729 9.102,-13.23 C 422.144,353.253 398.258,294.696 398.258,216 Z"
                   id="path3742" />
              </g>
              <g
                 id="g3778">
                <g
                   id="g3750">
                  <g
                     id="g3748">
                    <path
                       inkscape:connector-curvature="0"
                       style="fill:#43ab5f"
                       d="m 388.377,213.662 c 0,0 -58.416,24.647 -33.596,84.767 0,0 4.142,-8.275 4.19,-14.267 0,0 2.843,2.33 3.212,5.94 0,0 3.021,-7.692 1.804,-14.147 0,0 1.959,1.726 2.424,5.299 0,0 3.539,-7.186 3.418,-11.59 0,0 1.671,1.247 1.445,4.144 0,0 3.242,-7.074 1.578,-14.297 0,0 2.317,0.772 3.473,4.437 0,0 2.96,-10.481 1.648,-15.142 0,0 2.596,-0.078 2.838,3.776 0,0.001 10.394,-18.747 7.566,-38.92 z"
                       id="path3746" />
                  </g>
                </g>
                <g
                   id="g3756">
                  <g
                     id="g3754">
                    <path
                       inkscape:connector-curvature="0"
                       style="fill:#43ab5f"
                       d="m 388.377,213.662 c 0,0 62.823,8.562 54.537,73.075 0,0 -6.156,-6.908 -7.765,-12.68 0,0 -2.137,2.991 -1.552,6.572 0,0 -4.922,-6.638 -5.43,-13.188 0,0 -1.441,2.178 -0.957,5.749 0,0 -5.291,-6.014 -6.322,-10.298 0,0 -1.289,1.641 -0.314,4.378 0,0 -4.974,-5.984 -5.252,-13.391 0,0 -2.035,1.349 -2.195,5.189 0,0 -5.591,-9.347 -5.54,-14.188 0,0 -2.527,0.602 -1.755,4.386 -10e-4,-0.002 -14.924,-15.392 -17.455,-35.604 z"
                       id="path3752" />
                  </g>
                </g>
                <g
                   id="g3762">
                  <g
                     id="g3760">
                    <path
                       inkscape:connector-curvature="0"
                       style="fill:#52c883"
                       d="m 388.377,213.662 c 0,0 -21.258,-62.721 -81.392,-42.522 0,0 7.901,5.043 13.771,5.641 0,0 -2.424,2.729 -5.979,2.782 0,0 7.388,3.83 13.772,3.159 0,0 -1.788,1.87 -5.312,2.026 0,0 6.864,4.319 11.187,4.597 0,0 -1.305,1.615 -4.132,1.117 0,0 6.769,4.002 13.93,2.939 0,0 -0.87,2.329 -4.52,3.191 0,0 10.122,4.02 14.756,3.089 0,0 -0.053,2.694 -3.841,2.592 -0.001,0 17.854,12.471 37.76,11.389 z"
                       id="path3758" />
                  </g>
                </g>
                <g
                   id="g3766">
                  <path
                     inkscape:connector-curvature="0"
                     style="fill:#34be69"
                     d="m 388.377,213.662 c 0,0 -65.384,-29.252 -96.222,38.155 0,0 10.055,-3.01 15.069,-7.636 0,0 0.25,4.173 -2.463,7.291 0,0 8.711,-3.486 13.134,-9.523 0,0 0.074,2.968 -2.536,6.137 0,0 8.688,-2.66 12.252,-6.191 0,0 0.249,2.357 -2.33,4.425 0,0 8.366,-2.82 13.085,-9.826 0,0 1.141,2.523 -1.014,6.337 0,0 10.978,-5.708 13.841,-10.427 0,0 2.06,2.093 -0.954,5.295 0.001,10e-4 23.56,-5.982 38.138,-24.037 z"
                     id="path3764" />
                </g>
                <g
                   id="g3770">
                  <path
                     inkscape:connector-curvature="0"
                     style="fill:#34be69"
                     d="m 388.377,213.662 c 0,0 55.495,-45.29 102.842,11.745 0,0 -10.492,-0.283 -16.538,-3.441 0,0 0.846,4.093 4.279,6.396 0,0 -9.319,-1.095 -15.163,-5.769 0,0 0.703,2.886 4.049,5.264 0,0 -9.081,-0.302 -13.443,-2.782 0,0 0.375,2.341 3.404,3.665 0,0 -8.812,-0.541 -15.195,-6.075 0,0 -0.443,2.734 2.631,5.853 0,0 -12.087,-2.648 -16.081,-6.456 0,0 -1.443,2.558 2.301,4.863 10e-4,-0.002 -24.304,0.367 -43.086,-13.263 z"
                     id="path3768" />
                </g>
                <g
                   id="g3776">
                  <g
                     id="g3774">
                    <path
                       inkscape:connector-curvature="0"
                       style="fill:#52c883"
                       d="m 388.377,213.662 c 0,0 -17.593,-69.435 54.107,-88.244 0,0 -4.69,9.39 -10.109,13.535 0,0 4.068,0.963 7.605,-1.175 0,0 -4.931,7.983 -11.636,11.303 0,0 2.912,0.584 6.481,-1.444 0,0 -4.111,8.102 -8.202,11.008 0,0 2.279,0.649 4.76,-1.536 0,0 -4.214,7.758 -11.927,11.203 0,0 2.29,1.557 6.416,0.09 0,0 -7.508,9.835 -12.647,11.845 0,0 1.708,2.389 5.38,-0.031 10e-4,0.001 -9.937,22.184 -30.228,33.446 z"
                       id="path3772" />
                  </g>
                </g>
              </g>
              <g
                 id="g3782">
                <path
                   inkscape:connector-curvature="0"
                   style="fill:#674447"
                   d="M 64.522,361.471 C 50.345,332.802 32.036,333.833 11.634,332.132 44.045,436.323 141.141,512 256,512 c 50.208,0 96.982,-14.531 136.493,-39.518 -12.798,-1.866 -27.16,-5.816 -52.227,4.943 -12.539,5.382 -30.019,-18.004 -41.595,-19.425 -32.568,-4 -68.005,21.25 -89.143,4 C 182.42,439.879 171,460 149.205,450.499 127.41,440.999 138.96,423.247 130.218,413.778 116.265,398.667 85.333,403.557 64.522,361.471 Z"
                   id="path3780" />
              </g>
            </g>
            <g
               id="g3786" />
            <g
               id="g3788" />
            <g
               id="g3790" />
            <g
               id="g3792" />
            <g
               id="g3794" />
            <g
               id="g3796" />
            <g
               id="g3798" />
            <g
               id="g3800" />
            <g
               id="g3802" />
            <g
               id="g3804" />
            <g
               id="g3806" />
            <g
               id="g3808" />
            <g
               id="g3810" />
            <g
               id="g3812" />
            <g
               id="g3814" />
          </g>
          <ellipse
             ry="24.802687"
             rx="24.802685"
             cy="236.94865"
             cx="71.210388"
             id="path3933"
             style="opacity:1;fill:none;fill-opacity:1;stroke:#000000;stroke-width:1.24662864;stroke-miterlimit:4;stroke-dasharray:none;stroke-opacity:1" />
          <g
             transform="translate(-5.4038465,1.2471874)"
             id="g4094">
            <g
               id="g3631"
               transform="matrix(0.99594661,0,0,1.0000171,-2.7727781,-16.816695)">
              <g
                 id="g3220"
                 transform="translate(1.1666667e-6)">
                <g
                   id="g2158"
                   transform="matrix(0.09993164,0,0,0.09993164,54.615124,109.22229)">
                  <g
                     id="g1902">
                    <circle
                       style="fill:#95c4f8"
                       cx="256"
                       cy="256"
                       r="256"
                       id="circle1900" />
                  </g>
                  <g
                     id="g1906">
                    <path
                       inkscape:connector-curvature="0"
                       style="fill:#7e7e92"
                       d="M 21.502,153.291 C 13.832,170.777 8.074,189.28 4.461,208.549 4.131,217.864 4,226.723 4,234.001 c 0,23.422 3.421,46.084 9.705,67.638 46.625,2.358 120.428,2.362 120.428,2.362 l 40.533,-62 L 148,241.333 c -49.983,0 -84.143,-69.947 -126.498,-88.042 z"
                       id="path1904" />
                  </g>
                  <g
                     id="g1910">
                    <path
                       inkscape:connector-curvature="0"
                       style="fill:#7e7e92"
                       d="M 439.467,205.333 C 412,205.333 400.667,241.6 364,241.6 l 12,84.4 c 0,0 94,7.88 102,9.94 4.53,1.167 14.826,-2.174 22.911,-5.292 C 508.101,307.027 512,281.972 512,256 c 0,-1.826 -0.1,-3.626 -0.138,-5.443 -1.485,-1.185 -56.742,-45.224 -72.395,-45.224 z"
                       id="path1908" />
                  </g>
                  <g
                     id="g1914">
                    <path
                       inkscape:connector-curvature="0"
                       style="fill:#6e6e84"
                       d="M 338.667,460 474.744,389.049 C 490.417,363.336 501.629,334.625 507.441,304 v 0 c 0,0 -53.941,1.5 -75.44,-8 -26.436,-11.681 -86.354,-94.344 -123.83,-143.968 -6.968,-8.764 -13.73,-16.901 -20.17,-24.032 -11.113,-12.306 -43.567,-16 -48,-16 -3.841,0 -34.938,36.584 -57.636,64.003 C 148.147,217.787 107.86,268.14 88,288 l -33.275,68 z"
                       id="path1912" />
                  </g>
                  <g
                     id="g1918">
                    <path
                       inkscape:connector-curvature="0"
                       style="fill:#5f5f74"
                       d="M 480.667,319.321 C 441.334,319.321 402.287,325.2 356,286 338,270.756 320.202,256.098 305,274.5 295.5,286 277.902,324 256,308 234.098,292 224.873,242.55 204,242 187,241.552 173,266.342 160.478,252.667 152.234,243.664 76.5,296.5 76.5,296.5 c 0,0 77.5,68.812 88.5,68.156 11,-0.656 75.902,9.256 75.902,9.256 0,0 23.023,27.117 34.847,22.755 11.824,-4.362 40.716,4.735 57.279,-2.606 16.563,-7.34 95.561,-40.061 97.266,-44.061 1.705,-4 50.373,-30.679 50.373,-30.679 z"
                       id="path1916" />
                  </g>
                  <g
                     id="g1922">
                    <path
                       inkscape:connector-curvature="0"
                       style="fill:#36b294"
                       d="m 175.75,304.001 c -12.704,-5.801 -9.941,-20.9 -24,-25.501 C 138,274 136.25,270.75 128.5,264 120.75,257.25 110.22,266.316 103.25,252.5 99.214,244.499 82,241 74.75,234 67.5,227 54.558,229.316 49,227 37,222 41.75,214.75 27.5,216.25 17.532,217.299 12.235,209.304 4.779,206.768 2.573,218.086 1.098,229.664 0.437,241.462 L 63,275.5 c 0,0 61,19.75 65.5,21.5 4.5,1.75 73.284,31.466 71.252,28.74 -3.627,-4.865 -13.877,-17.115 -24.002,-21.739 z"
                       id="path1920" />
                  </g>
                  <g
                     id="g1926">
                    <path
                       inkscape:connector-curvature="0"
                       style="fill:#00a07d"
                       d="m 230.691,359.286 c -3.732,-1.861 -12.422,-6.552 -20.024,-16.619 C 203.065,332.6 203,326 194,321.5 183.881,316.44 184,316 172,310 160,304 160,300 152.75,291.5 144.796,282.175 132.451,282.687 120.451,277.354 108.451,272.021 103.372,262.543 96,259 88.628,255.457 84,259.333 77.333,255.934 68.298,251.327 67.769,238.249 56.494,239.582 45.219,240.915 42.412,244.896 34.666,238 21.749,226.5 15.749,233.75 1.384,229.33 0.477,238.097 0,246.993 0,256 c 0,21.609 2.707,42.582 7.748,62.626 11.393,2.223 23.875,4.591 36.309,7.374 38.723,8.667 140.61,40.667 176.61,46.667 36,6 13.757,-11.52 10.024,-13.381 z"
                       id="path1924" />
                  </g>
                  <g
                     id="g1930">
                    <path
                       inkscape:connector-curvature="0"
                       style="fill:#52c883"
                       d="M 0.955,277.354 C 7.113,351.849 45.116,417.289 101.378,460 h 92.409 L 320,384 C 215.033,384 156.522,277.795 0.955,277.354 Z"
                       id="path1928" />
                  </g>
                  <g
                     id="g1934">
                    <path
                       inkscape:connector-curvature="0"
                       style="fill:#34be71"
                       d="M 256,512 C 380.97,512 484.963,422.431 507.44,304.001 412.781,304.029 296.992,422.482 192,408 134,400 119,383.967 44.057,399.604 90.103,467.431 167.842,512 256,512 Z"
                       id="path1932" />
                  </g>
                  <g
                     id="g1952">
                    <g
                       id="g1940">
                      <g
                         id="g1938">
                        <path
                           inkscape:connector-curvature="0"
                           style="fill:#674447"
                           d="m 221.022,445.779 c -1.337,0 -2.419,-1.082 -2.419,-2.417 v -26.035 c 0,-1.335 1.082,-2.417 2.419,-2.417 1.337,0 2.419,1.082 2.419,2.417 v 26.035 c 0,1.335 -1.082,2.417 -2.419,2.417 z"
                           id="path1936" />
                      </g>
                    </g>
                    <g
                       id="g1946">
                      <g
                         id="g1944">
                        <path
                           inkscape:connector-curvature="0"
                           style="fill:#00a07d"
                           d="m 236.257,415.109 c 0,8.414 -6.821,15.235 -15.235,15.235 -8.414,0 -15.235,-6.821 -15.235,-15.235 0,-8.414 6.821,-34.279 15.235,-34.279 8.414,0 15.235,25.865 15.235,34.279 z"
                           id="path1942" />
                      </g>
                    </g>
                    <g
                       id="g1950">
                      <path
                         inkscape:connector-curvature="0"
                         style="fill:#36b294"
                         d="m 221.021,380.83 c -2.112,0 -4.123,1.633 -5.952,4.207 v 0 c 7.701,0 13.944,23.673 13.944,31.374 0,6.699 -4.728,12.284 -11.026,13.627 0.981,0.198 1.994,0.306 3.033,0.306 8.414,0 15.235,-6.821 15.235,-15.235 0.002,-8.414 -6.819,-34.279 -15.234,-34.279 z"
                         id="path1948" />
                    </g>
                  </g>
                  <g
                     id="g1970">
                    <g
                       id="g1958">
                      <g
                         id="g1956">
                        <path
                           inkscape:connector-curvature="0"
                           style="fill:#674447"
                           d="m 417.67,373.912 c -1.845,0 -3.34,-1.494 -3.34,-3.337 V 334.63 c 0,-1.843 1.494,-3.337 3.34,-3.337 1.845,0 3.34,1.494 3.34,3.337 v 35.945 c 0,1.843 -1.494,3.337 -3.34,3.337 z"
                           id="path1954" />
                      </g>
                    </g>
                    <g
                       id="g1964">
                      <g
                         id="g1962">
                        <path
                           inkscape:connector-curvature="0"
                           style="fill:#00a07d"
                           d="m 438.704,331.568 c 0,11.617 -9.417,21.034 -21.035,21.034 -11.618,0 -21.034,-9.417 -21.034,-21.034 0,-11.617 9.417,-47.328 21.034,-47.328 11.617,0 21.035,35.711 21.035,47.328 z"
                           id="path1960" />
                      </g>
                    </g>
                    <g
                       id="g1968">
                      <path
                         inkscape:connector-curvature="0"
                         style="fill:#36b294"
                         d="m 417.669,284.24 c -2.916,0 -5.693,2.254 -8.218,5.809 h 10e-4 c 10.633,0 19.252,32.684 19.252,43.317 0,9.249 -6.527,16.96 -15.223,18.814 1.354,0.274 2.753,0.422 4.188,0.422 11.617,0 21.035,-9.417 21.035,-21.034 0,-11.617 -9.418,-47.328 -21.035,-47.328 z"
                         id="path1966" />
                    </g>
                  </g>
                  <g
                     id="g1988">
                    <g
                       id="g1976">
                      <g
                         id="g1974">
                        <path
                           inkscape:connector-curvature="0"
                           style="fill:#674447"
                           d="m 471.837,378.596 c -1.845,0 -3.34,-1.494 -3.34,-3.337 v -35.945 c 0,-1.843 1.494,-3.337 3.34,-3.337 1.846,0 3.34,1.494 3.34,3.337 v 35.945 c 0,1.842 -1.495,3.337 -3.34,3.337 z"
                           id="path1972" />
                      </g>
                    </g>
                    <g
                       id="g1982">
                      <g
                         id="g1980">
                        <path
                           inkscape:connector-curvature="0"
                           style="fill:#00a07d"
                           d="m 492.87,336.251 c 0,11.617 -9.417,21.034 -21.035,21.034 -11.618,0 -21.034,-9.417 -21.034,-21.034 0,-11.617 9.417,-47.328 21.034,-47.328 11.617,0 21.035,35.711 21.035,47.328 z"
                           id="path1978" />
                      </g>
                    </g>
                    <g
                       id="g1986">
                      <path
                         inkscape:connector-curvature="0"
                         style="fill:#36b294"
                         d="m 471.836,288.924 c -2.916,0 -5.693,2.254 -8.218,5.809 h 0.001 c 10.633,0 19.252,32.684 19.252,43.317 0,9.249 -6.527,16.96 -15.223,18.814 1.354,0.274 2.753,0.422 4.188,0.422 11.617,0 21.035,-9.417 21.035,-21.034 0,-11.618 -9.418,-47.328 -21.035,-47.328 z"
                         id="path1984" />
                    </g>
                  </g>
                  <g
                     id="g2006">
                    <g
                       id="g1994">
                      <g
                         id="g1992">
                        <path
                           inkscape:connector-curvature="0"
                           style="fill:#674447"
                           d="m 292.213,424.264 c -1.845,0 -3.34,-1.494 -3.34,-3.337 v -35.945 c 0,-1.843 1.494,-3.337 3.34,-3.337 1.846,0 3.34,1.494 3.34,3.337 v 35.945 c 0,1.843 -1.495,3.337 -3.34,3.337 z"
                           id="path1990" />
                      </g>
                    </g>
                    <g
                       id="g2000">
                      <g
                         id="g1998">
                        <path
                           inkscape:connector-curvature="0"
                           style="fill:#00a07d"
                           d="m 313.247,381.92 c 0,11.617 -9.417,21.035 -21.034,21.035 -11.617,0 -21.035,-9.417 -21.035,-21.035 0,-11.618 9.417,-47.328 21.035,-47.328 11.618,0 21.034,35.711 21.034,47.328 z"
                           id="path1996" />
                      </g>
                    </g>
                    <g
                       id="g2004">
                      <path
                         inkscape:connector-curvature="0"
                         style="fill:#36b294"
                         d="m 292.212,334.592 c -2.916,0 -5.693,2.254 -8.218,5.809 h 10e-4 c 10.633,0 19.252,32.684 19.252,43.317 0,9.249 -6.527,16.96 -15.223,18.814 1.354,0.273 2.753,0.422 4.188,0.422 11.617,0 21.035,-9.417 21.035,-21.034 0,-11.617 -9.418,-47.328 -21.035,-47.328 z"
                         id="path2002" />
                    </g>
                  </g>
                  <g
                     id="g2024">
                    <g
                       id="g2012">
                      <g
                         id="g2010">
                        <path
                           inkscape:connector-curvature="0"
                           style="fill:#674447"
                           d="m 248.215,440.113 c -1.718,0 -3.11,-1.391 -3.11,-3.107 v -33.469 c 0,-1.716 1.391,-3.107 3.11,-3.107 1.719,0 3.11,1.391 3.11,3.107 v 33.469 c 0,1.715 -1.391,3.107 -3.11,3.107 z"
                           id="path2008" />
                      </g>
                    </g>
                    <g
                       id="g2018">
                      <g
                         id="g2016">
                        <path
                           inkscape:connector-curvature="0"
                           style="fill:#00a07d"
                           d="m 267.8,400.685 c 0,10.817 -8.769,19.586 -19.586,19.586 -10.817,0 -19.586,-8.769 -19.586,-19.586 0,-10.817 8.769,-44.068 19.586,-44.068 10.817,0 19.586,33.251 19.586,44.068 z"
                           id="path2014" />
                      </g>
                    </g>
                    <g
                       id="g2022">
                      <path
                         inkscape:connector-curvature="0"
                         style="fill:#36b294"
                         d="m 248.214,356.617 c -2.715,0 -5.301,2.099 -7.652,5.409 h 10e-4 c 9.9,0 17.926,30.433 17.926,40.333 0,8.612 -6.078,15.792 -14.174,17.518 1.261,0.255 2.564,0.393 3.9,0.393 10.817,0 19.586,-8.769 19.586,-19.586 -10e-4,-10.816 -8.77,-44.067 -19.587,-44.067 z"
                         id="path2020" />
                    </g>
                  </g>
                  <g
                     id="g2028">
                    <path
                       inkscape:connector-curvature="0"
                       style="fill:#44a67d"
                       d="M 485.73,368.878 C 344,342 313.99,452.245 91.811,452.272 136.264,489.504 193.478,512 256,512 356.857,512 444.021,453.644 485.73,368.878 Z"
                       id="path2026" />
                  </g>
                  <g
                     id="g2032">
                    <path
                       inkscape:connector-curvature="0"
                       style="fill:#ffffff"
                       d="m 355.042,164.924 c 0,-12.511 10.142,-22.653 22.653,-22.653 1.888,0 3.694,0.299 5.447,0.734 5.911,-6.383 14.292,-10.442 23.678,-10.442 17.873,0 32.361,14.489 32.361,32.361 z"
                       id="path2030" />
                  </g>
                  <g
                     id="g2036">
                    <path
                       inkscape:connector-curvature="0"
                       style="fill:#c3e1f5"
                       d="M 308.17,152.032 C 301.202,143.268 294.44,135.131 288,128 c -11.113,-12.306 -43.567,-16 -48,-16 -3.841,0 -34.938,36.584 -57.636,64.003 -8.701,10.625 -17.794,21.803 -26.844,32.895 3.913,5.46 11.484,13.15 22.694,12.057 22.061,-2.152 26.365,-27.979 43.045,-25.828 22.722,2.932 19.273,68.873 43.046,68.873 23.137,0 7.092,-50.01 34.436,-60.264 20.142,-7.553 27.568,14.102 61.51,16.915 -18.565,-23.734 -37.113,-48.799 -52.081,-68.619 z"
                       id="path2034" />
                  </g>
                  <g
                     id="g2040">
                    <path
                       inkscape:connector-curvature="0"
                       style="fill:#edf5fb"
                       d="m 317.75,164.765 c -3.311,-4.41 -6.535,-8.702 -9.579,-12.733 -6.968,-8.764 -13.73,-16.901 -20.17,-24.032 -11.113,-12.306 -43.567,-16 -48,-16 -2.677,0 -18.595,17.775 -35.68,37.827 18.68,-14.827 28.872,-8.726 32.346,8.618 8.023,40.055 16.667,72.221 26.667,46.888 10,-25.333 5.605,-39.841 34.938,-36.833 11.578,1.187 13.963,-2.203 19.478,-3.735 z"
                       id="path2038" />
                  </g>
                  <g
                     id="g2044">
                    <path
                       inkscape:connector-curvature="0"
                       style="fill:#ffffff"
                       d="m 120.451,176 c 0,-13.574 11.004,-24.577 24.577,-24.577 2.049,0 4.007,0.324 5.91,0.796 6.413,-6.926 15.506,-11.329 25.689,-11.329 19.391,0 35.11,15.719 35.11,35.11 z"
                       id="path2042" />
                  </g>
                  <g
                     id="g2048">
                    <path
                       inkscape:connector-curvature="0"
                       style="fill:#ffffff"
                       d="m 367.479,159.646 c -1.716,0 -3.338,0.338 -4.892,0.828 -4.923,-7.077 -13.091,-11.731 -22.365,-11.731 -9.274,0 -17.442,4.653 -22.365,11.731 -1.554,-0.49 -3.176,-0.828 -4.892,-0.828 -9.032,0 -16.354,7.322 -16.354,16.354 h 87.223 c -10e-4,-9.032 -7.323,-16.354 -16.355,-16.354 z"
                       id="path2046" />
                  </g>
                  <g
                     id="g2052">
                    <path
                       inkscape:connector-curvature="0"
                       style="fill:#ffffff"
                       d="m 126.467,146.035 c -1.302,0 -2.533,0.256 -3.712,0.628 -3.736,-5.37 -9.933,-8.901 -16.971,-8.901 -7.038,0 -13.235,3.531 -16.971,8.901 -1.179,-0.372 -2.41,-0.628 -3.712,-0.628 -6.854,0 -12.41,5.556 -12.41,12.41 h 66.184 c 0.001,-6.854 -5.555,-12.41 -12.408,-12.41 z"
                       id="path2050" />
                  </g>
                  <g
                     style="opacity:0.6"
                     id="g2056">
                    <path
                       inkscape:connector-curvature="0"
                       style="fill:#ffffff"
                       d="m 310.94,63.001 c -1.215,0 -2.363,0.239 -3.463,0.586 -3.485,-5.01 -9.268,-8.305 -15.834,-8.305 -6.566,0 -12.349,3.294 -15.834,8.305 -1.101,-0.347 -2.249,-0.586 -3.463,-0.586 -2.22,0 -4.274,0.656 -6.037,1.74 -3.736,-8.099 -11.875,-13.751 -21.38,-13.751 -6.842,0 -12.952,2.959 -17.26,7.612 -1.278,-0.317 -2.594,-0.535 -3.971,-0.535 -9.12,0 -16.513,7.394 -16.513,16.513 h 53.582 7.751 54 c 0.001,-6.395 -5.183,-11.579 -11.578,-11.579 z"
                       id="path2054" />
                  </g>
                  <g
                     style="opacity:0.6"
                     id="g2060">
                    <path
                       inkscape:connector-curvature="0"
                       style="fill:#ffffff"
                       d="m 313.888,63.001 c -1.215,0 -2.363,0.239 -3.463,0.586 -3.485,-5.01 -9.268,-8.305 -15.834,-8.305 -6.566,0 -12.349,3.294 -15.834,8.305 -1.101,-0.347 -2.249,-0.586 -3.463,-0.586 -2.22,0 -4.274,0.656 -6.037,1.74 -3.736,-8.099 -11.875,-13.751 -21.38,-13.751 -6.842,0 -12.952,2.959 -17.26,7.612 -1.278,-0.317 -2.594,-0.535 -3.971,-0.535 -9.12,0 -16.513,7.394 -16.513,16.513 h 53.582 7.751 54 c 10e-4,-6.395 -5.183,-11.579 -11.578,-11.579 z"
                       id="path2058" />
                  </g>
                  <g
                     style="opacity:0.6"
                     id="g2064">
                    <path
                       inkscape:connector-curvature="0"
                       style="fill:#ffffff"
                       d="m 182.3,95.136 c -0.99,0 -1.926,0.195 -2.823,0.478 -2.841,-4.084 -7.554,-6.77 -12.906,-6.77 -3.947,0 -7.532,1.476 -10.29,3.88 -3.764,-5.432 -10.025,-9.003 -17.134,-9.003 -6.048,0 -11.449,2.615 -15.257,6.729 -1.13,-0.281 -2.293,-0.473 -3.51,-0.473 -8.062,0 -14.597,6.535 -14.597,14.597 h 35.62 18.597 31.738 c 0,-5.212 -4.225,-9.438 -9.438,-9.438 z"
                       id="path2062" />
                  </g>
                  <g
                     style="opacity:0.6"
                     id="g2068">
                    <path
                       inkscape:connector-curvature="0"
                       style="fill:#ffffff"
                       d="m 449.072,88 c -3.746,-4.301 -7.589,-8.514 -11.61,-12.555 -0.319,0.239 -0.665,0.444 -0.965,0.706 -3.764,-5.432 -10.025,-9.003 -17.134,-9.003 -6.048,0 -11.449,2.615 -15.257,6.729 -1.13,-0.281 -2.293,-0.473 -3.51,-0.473 C 392.535,73.403 386,79.938 386,88 h 35.62 18.596 z"
                       id="path2066" />
                  </g>
                  <g
                     id="g2072">
                    <path
                       inkscape:connector-curvature="0"
                       style="fill:#c3e1f5"
                       d="m 480.665,227.286 c -15.876,-11.083 -33.422,-21.953 -41.198,-21.953 -17.39,0 -28.327,14.523 -43.307,25.19 l 0.011,0.007 c 24.829,-4.197 26.642,27.805 38.142,27.805 13.457,0 13.824,-17.163 27.02,-11.335 25.667,11.335 6.334,-15.166 19.332,-19.714 z"
                       id="path2070" />
                  </g>
                  <g
                     id="g2076">
                    <path
                       inkscape:connector-curvature="0"
                       style="fill:#edf5fb"
                       d="m 465.063,216.949 c -10.631,-6.625 -20.349,-11.616 -25.597,-11.616 -11.887,0 -20.767,6.808 -29.976,14.509 13.101,5.712 23.494,22.357 39.582,11.657 10.662,-7.091 12.597,-11.414 15.991,-14.55 z"
                       id="path2074" />
                  </g>
                  <g
                     id="g2094">
                    <g
                       id="g2082">
                      <g
                         id="g2080">
                        <path
                           inkscape:connector-curvature="0"
                           style="fill:#674447"
                           d="m 389.139,388.929 c -2.296,0 -4.156,-1.859 -4.156,-4.152 v -44.725 c 0,-2.293 1.859,-4.152 4.156,-4.152 2.297,0 4.156,1.859 4.156,4.152 v 44.725 c -0.001,2.293 -1.86,4.152 -4.156,4.152 z"
                           id="path2078" />
                      </g>
                    </g>
                    <g
                       id="g2088">
                      <g
                         id="g2086">
                        <path
                           inkscape:connector-curvature="0"
                           style="fill:#00a07d"
                           d="m 415.31,336.242 c 0,14.455 -11.718,26.172 -26.172,26.172 -14.454,0 -26.172,-11.718 -26.172,-26.172 0,-14.454 11.718,-58.888 26.172,-58.888 14.454,0 26.172,44.433 26.172,58.888 z"
                           id="path2084" />
                      </g>
                    </g>
                    <g
                       id="g2092">
                      <path
                         inkscape:connector-curvature="0"
                         style="fill:#36b294"
                         d="m 389.138,277.354 c -3.629,0 -7.084,2.805 -10.225,7.228 h 10e-4 c 13.23,0 23.954,40.668 23.954,53.898 0,11.508 -8.122,21.103 -18.941,23.41 1.685,0.34 3.426,0.525 5.211,0.525 14.455,0 26.173,-11.718 26.173,-26.172 -10e-4,-14.456 -11.719,-58.889 -26.173,-58.889 z"
                         id="path2090" />
                    </g>
                  </g>
                  <g
                     id="g2112">
                    <g
                       id="g2100">
                      <g
                         id="g2098">
                        <path
                           inkscape:connector-curvature="0"
                           style="fill:#674447"
                           d="m 446.273,382.474 c -2.169,0 -3.926,-1.757 -3.926,-3.923 v -42.257 c 0,-2.167 1.757,-3.923 3.926,-3.923 2.169,0 3.926,1.757 3.926,3.923 v 42.257 c 10e-4,2.166 -1.756,3.923 -3.926,3.923 z"
                           id="path2096" />
                      </g>
                    </g>
                    <g
                       id="g2106">
                      <g
                         id="g2104">
                        <path
                           inkscape:connector-curvature="0"
                           style="fill:#00a07d"
                           d="m 471.001,332.693 c 0,13.657 -11.071,24.728 -24.728,24.728 -13.657,0 -24.728,-11.071 -24.728,-24.728 0,-13.657 11.071,-55.639 24.728,-55.639 13.656,0 24.728,41.982 24.728,55.639 z"
                           id="path2102" />
                      </g>
                    </g>
                    <g
                       id="g2110">
                      <path
                         inkscape:connector-curvature="0"
                         style="fill:#36b294"
                         d="m 446.272,277.054 c -3.428,0 -6.693,2.65 -9.661,6.829 h 0.001 c 12.5,0 22.633,38.424 22.633,50.924 0,10.873 -7.673,19.938 -17.896,22.118 1.592,0.322 3.237,0.496 4.924,0.496 13.657,0 24.729,-11.071 24.729,-24.728 -0.001,-13.657 -11.073,-55.639 -24.73,-55.639 z"
                         id="path2108" />
                    </g>
                  </g>
                  <g
                     id="g2130">
                    <g
                       id="g2118">
                      <g
                         id="g2116">
                        <path
                           inkscape:connector-curvature="0"
                           style="fill:#674447"
                           d="m 357.062,393.673 c -1.894,0 -3.428,-1.534 -3.428,-3.426 v -36.899 c 0,-1.892 1.534,-3.426 3.428,-3.426 1.894,0 3.428,1.534 3.428,3.426 v 36.899 c 0,1.892 -1.534,3.426 -3.428,3.426 z"
                           id="path2114" />
                      </g>
                    </g>
                    <g
                       id="g2124">
                      <g
                         id="g2122">
                        <path
                           inkscape:connector-curvature="0"
                           style="fill:#00a07d"
                           d="m 378.654,350.205 c 0,11.925 -9.667,21.593 -21.593,21.593 -11.925,0 -21.593,-9.667 -21.593,-21.593 0,-11.926 9.667,-48.584 21.593,-48.584 11.925,0 21.593,36.659 21.593,48.584 z"
                           id="path2120" />
                      </g>
                    </g>
                    <g
                       id="g2128">
                      <path
                         inkscape:connector-curvature="0"
                         style="fill:#36b294"
                         d="m 357.061,301.621 c -2.994,0 -5.844,2.314 -8.436,5.963 h 10e-4 c 10.915,0 19.763,33.552 19.763,44.467 0,9.494 -6.701,17.41 -15.627,19.314 1.39,0.281 2.826,0.433 4.299,0.433 11.925,0 21.593,-9.667 21.593,-21.593 0,-11.925 -9.668,-48.584 -21.593,-48.584 z"
                         id="path2126" />
                    </g>
                  </g>
                  <g
                     id="g2148">
                    <g
                       id="g2136">
                      <g
                         id="g2134">
                        <path
                           inkscape:connector-curvature="0"
                           style="fill:#674447"
                           d="m 327.975,432.458 c -2.693,0 -4.873,-2.18 -4.873,-4.869 v -52.446 c 0,-2.689 2.18,-4.869 4.873,-4.869 2.693,0 4.873,2.18 4.873,4.869 v 52.446 c 0,2.689 -2.181,4.869 -4.873,4.869 z"
                           id="path2132" />
                      </g>
                    </g>
                    <g
                       id="g2142">
                      <g
                         id="g2140">
                        <path
                           inkscape:connector-curvature="0"
                           style="fill:#00a07d"
                           d="m 358.664,370.675 c 0,16.95 -13.741,30.691 -30.691,30.691 -16.95,0 -30.691,-13.741 -30.691,-30.691 0,-16.95 13.741,-69.054 30.691,-69.054 16.951,0 30.691,52.104 30.691,69.054 z"
                           id="path2138" />
                      </g>
                    </g>
                    <g
                       id="g2146">
                      <path
                         inkscape:connector-curvature="0"
                         style="fill:#36b294"
                         d="m 327.974,301.621 c -4.255,0 -8.306,3.289 -11.99,8.475 h 0.001 c 15.514,0 28.09,47.688 28.09,63.202 0,13.495 -9.524,24.746 -22.211,27.451 1.976,0.399 4.017,0.616 6.111,0.616 16.95,0 30.691,-13.741 30.691,-30.69 -0.002,-16.95 -13.743,-69.054 -30.692,-69.054 z"
                         id="path2144" />
                    </g>
                  </g>
                  <g
                     id="g2152">
                    <path
                       inkscape:connector-curvature="0"
                       style="fill:#5f5f74"
                       d="m 256,512 c 67.364,0 128.603,-26.056 174.294,-68.599 C 402.5,448 360.251,401 316.293,418.146 c -19.586,7.64 -81.895,60.496 -136.192,82.33 C 204.091,507.919 229.562,512 256,512 Z"
                       id="path2150" />
                  </g>
                  <g
                     id="g2156">
                    <path
                       inkscape:connector-curvature="0"
                       style="fill:#6e6e84"
                       d="m 316.293,418.146 c -19.586,7.64 -81.895,60.496 -136.192,82.33 1.829,0.567 3.722,0.979 5.568,1.506 C 240.563,489 305.198,431 326.667,430.344 c 6.128,-0.187 45.667,29.655 67.928,40.827 12.712,-8.214 24.668,-17.499 35.7,-27.771 C 402.5,448 360.251,401 316.293,418.146 Z"
                       id="path2154" />
                  </g>
                </g>
                <g
                   id="g2160"
                   transform="matrix(0.09993164,0,0,0.09993164,46.817253,111.45025)" />
                <g
                   id="g2162"
                   transform="matrix(0.09993164,0,0,0.09993164,46.817253,111.45025)" />
                <g
                   id="g2164"
                   transform="matrix(0.09993164,0,0,0.09993164,46.817253,111.45025)" />
                <g
                   id="g2166"
                   transform="matrix(0.09993164,0,0,0.09993164,46.817253,111.45025)" />
                <g
                   id="g2168"
                   transform="matrix(0.09993164,0,0,0.09993164,46.817253,111.45025)" />
                <g
                   id="g2170"
                   transform="matrix(0.09993164,0,0,0.09993164,46.817253,111.45025)" />
                <g
                   id="g2172"
                   transform="matrix(0.09993164,0,0,0.09993164,46.817253,111.45025)" />
                <g
                   id="g2174"
                   transform="matrix(0.09993164,0,0,0.09993164,46.817253,111.45025)" />
                <g
                   id="g2176"
                   transform="matrix(0.09993164,0,0,0.09993164,46.817253,111.45025)" />
                <g
                   id="g2178"
                   transform="matrix(0.09993164,0,0,0.09993164,46.817253,111.45025)" />
                <g
                   id="g2180"
                   transform="matrix(0.09993164,0,0,0.09993164,46.817253,111.45025)" />
                <g
                   id="g2182"
                   transform="matrix(0.09993164,0,0,0.09993164,46.817253,111.45025)" />
                <g
                   id="g2184"
                   transform="matrix(0.09993164,0,0,0.09993164,46.817253,111.45025)" />
                <g
                   id="g2186"
                   transform="matrix(0.09993164,0,0,0.09993164,46.817253,111.45025)" />
                <g
                   id="g2188"
                   transform="matrix(0.09993164,0,0,0.09993164,46.817253,111.45025)" />
              </g>
              <path
                 inkscape:connector-curvature="0"
                 d=""
                 id="path3933-0"
                 style="opacity:1;fill:none;fill-opacity:1;stroke:#000000;stroke-width:1.24915218;stroke-miterlimit:4;stroke-dasharray:none;stroke-opacity:1"
                 cy="137.06015"
                 cx="71.938332"
                 ry="24.802263"
                 rx="24.903629" />
            </g>
            <ellipse
               style="opacity:1;fill:none;fill-opacity:1;stroke:#000000;stroke-width:1.25700402;stroke-miterlimit:4;stroke-dasharray:none;stroke-opacity:1"
               id="path3933-1"
               cx="77.022247"
               cy="117.99862"
               rx="25.099684"
               ry="24.918865" />
          </g>
          <g
             transform="translate(16.337676)"
             id="g4802">
            <g
               id="g1601"
               transform="matrix(0.09952658,0,0,0.09993335,184.57751,94.183826)">
              <g
                 id="g1464">
                <g
                   id="g1302">
                  <circle
                     id="circle1300"
                     r="256"
                     cy="256"
                     cx="256"
                     style="fill:#9af4ef" />
                </g>
                <g
                   id="g1306"
                   style="opacity:0.3">
                  <path
                     id="path1304"
                     d="M 407.376,49.583 C 294.06,79.836 210.577,183.148 210.577,306 c 0,80.664 36.031,152.869 92.82,201.548 C 422.126,485.311 512,381.182 512,256 512,171.264 470.804,96.177 407.376,49.583 Z"
                     style="fill:#fffff4"
                     inkscape:connector-curvature="0" />
                </g>
                <g
                   id="g1310">
                  <path
                     id="path1308"
                     d="M 215,214.034 C 203.752,204.729 187.5,213 178.75,205.5 c -11.695,-10.024 -14.351,-12.646 -25.031,-15.384 -9.75,-2.5 -18.578,3.156 -27.969,-9.366 -6.75,-9 -13.117,-8.089 -21.263,-6.089 -8.146,2 -10.649,-0.214 -21.612,-9.286 -7.25,-6 -13.875,-8.125 -28.875,-7.625 -12.651,0.422 -22.601,-2.382 -31.849,-5.894 -8.893,19.938 -15.34,41.198 -18.894,63.438 36.23,3.803 47.12,2.15 61.243,6.706 15.5,5 166.167,35.5 168.834,34 2.667,-1.5 4.436,-25.304 4.436,-25.304 -15.131,-2.734 -15.337,-10.513 -22.77,-16.662 z"
                     style="fill:#36b294"
                     inkscape:connector-curvature="0" />
                </g>
                <g
                   id="g1314"
                   style="opacity:0.4">
                  <path
                     id="path1312"
                     d="m 358.667,306 c 0,56.513 39.963,103.67 93.165,114.815 C 489.354,376.277 512,318.795 512,256 c 0,-22.041 -2.789,-43.43 -8.027,-63.837 -8.98,-2.201 -18.314,-3.496 -27.973,-3.496 -64.801,0 -117.333,52.531 -117.333,117.333 z"
                     style="fill:#fffff4"
                     inkscape:connector-curvature="0" />
                </g>
                <g
                   id="g1334">
                  <g
                     id="g1320">
                    <g
                       id="g1318">
                      <path
                         id="path1316"
                         d="m 422.504,277.018 c -2.793,0 -5.054,-2.262 -5.054,-5.051 v -54.398 c 0,-2.789 2.262,-5.051 5.054,-5.051 2.793,0 5.054,2.262 5.054,5.051 v 54.398 c 0,2.79 -2.261,5.051 -5.054,5.051 z"
                         style="fill:#674447"
                         inkscape:connector-curvature="0" />
                    </g>
                  </g>
                  <g
                     id="g1326">
                    <g
                       id="g1324">
                      <path
                         id="path1322"
                         d="m 454.336,212.935 c 0,17.581 -14.252,31.833 -31.833,31.833 -17.581,0 -31.833,-14.252 -31.833,-31.833 0,-17.581 14.252,-71.625 31.833,-71.625 17.581,0.001 31.833,54.044 31.833,71.625 z"
                         style="fill:#43ab5f"
                         inkscape:connector-curvature="0" />
                    </g>
                  </g>
                  <g
                     id="g1332">
                    <g
                       id="g1330">
                      <path
                         id="path1328"
                         d="m 422.503,141.31 c -4.413,0 -8.616,3.411 -12.437,8.791 h 0.001 c 16.091,0 29.135,49.464 29.135,65.555 0,13.997 -9.878,25.667 -23.038,28.473 2.049,0.414 4.167,0.639 6.338,0.639 17.581,0 31.833,-14.252 31.833,-31.833 0.001,-17.581 -14.252,-71.625 -31.832,-71.625 z"
                         style="fill:#71be63"
                         inkscape:connector-curvature="0" />
                    </g>
                  </g>
                </g>
                <g
                   id="g1338"
                   style="opacity:0.6">
                  <path
                     id="path1336"
                     d="m 166.646,141.623 c 0,-10.575 8.573,-19.149 19.149,-19.149 1.596,0 3.122,0.252 4.604,0.62 4.997,-5.396 12.081,-8.827 20.015,-8.827 15.108,0 27.355,12.247 27.355,27.355 h -71.123 z"
                     style="fill:#ffffff"
                     inkscape:connector-curvature="0" />
                </g>
                <g
                   id="g1342"
                   style="opacity:0.6">
                  <path
                     id="path1340"
                     d="m 164.295,65 c 0,-9.442 7.654,-17.096 17.096,-17.096 1.425,0 2.788,0.225 4.111,0.554 4.461,-4.818 10.786,-7.881 17.87,-7.881 13.488,0 24.423,10.935 24.423,24.423 z"
                     style="fill:#ffffff"
                     inkscape:connector-curvature="0" />
                </g>
                <g
                   id="g1346"
                   style="opacity:0.6">
                  <path
                     id="path1344"
                     d="m 400,84.615 c 0,-7.583 -6.148,-13.731 -13.731,-13.731 -1.145,0 -2.239,0.181 -3.302,0.445 -3.583,-3.869 -8.663,-6.33 -14.352,-6.33 C 357.782,65 349,73.782 349,84.615 Z"
                     style="fill:#ffffff"
                     inkscape:connector-curvature="0" />
                </g>
                <g
                   id="g1350">
                  <path
                     id="path1348"
                     d="m 263.878,248 c -6.73,0 -7.852,-6.655 -8.512,-8 -7.366,-15 -16.283,-8 -30.913,-8 -11.438,0 -13.776,-16.667 -20.16,-16 -6.384,0.667 -16.669,11.333 -25.536,8 -12.724,-4.784 -13.123,-12 -25.537,-16 -10.954,-3.53 -20.216,-1 -25.537,-8 -10.359,-13.63 -17.822,1.25 -34.049,-8 -16.503,-9.408 -21.635,8 -34.048,8 -13.041,0 -8.513,-16 -25.537,-16 -9.644,0 -15.328,11.76 -27.526,15.085 C 2.303,217.397 0,236.428 0,256 c 0,10.092 0.658,20.027 1.81,29.813 3.915,3.633 8.148,6.828 12.393,8.651 C 29.422,301 349,306.615 349,306.615 V 280 c -23.409,0 -23.409,-16 -42.561,-16 -25.803,0 -23.409,-16 -42.561,-16 z"
                     style="fill:#00a07d"
                     inkscape:connector-curvature="0" />
                </g>
                <g
                   id="g1354">
                  <path
                     id="path1352"
                     d="m 107,433.548 237,-126.934 -6,-12.948 c -57.385,0 -156.966,-58.334 -338,-37.667 0,63.767 23.368,122.04 61.938,166.856 24.226,5.787 45.062,10.693 45.062,10.693 z"
                     style="fill:#94d75b"
                     inkscape:connector-curvature="0" />
                </g>
                <g
                   id="g1358">
                  <path
                     id="path1356"
                     d="m 338,293.667 c -52.623,0 -140.781,-49.009 -294.643,-41.213 136.795,0.118 220.685,61.353 263.643,61.353 l 12,-4.476 19.357,-14.892 z"
                     style="fill:#b0eb81"
                     inkscape:connector-curvature="0" />
                </g>
                <g
                   id="g1362">
                  <path
                     id="path1360"
                     d="m 180.261,119.675 c -2.303,0 -4.479,0.453 -6.565,1.111 -6.607,-9.498 -17.568,-15.743 -30.014,-15.743 -12.446,0 -23.407,6.245 -30.014,15.743 -2.086,-0.658 -4.262,-1.111 -6.565,-1.111 -12.121,0 -21.948,9.826 -21.948,21.948 h 117.054 c -0.001,-12.121 -9.827,-21.948 -21.948,-21.948 z"
                     style="fill:#ffffff"
                     inkscape:connector-curvature="0" />
                </g>
                <g
                   id="g1366">
                  <path
                     id="path1364"
                     d="m 352,99.333 c -2.518,0 -4.898,0.496 -7.179,1.215 C 337.596,90.162 325.611,83.333 312,83.333 c -13.611,0 -25.596,6.829 -32.821,17.215 -2.281,-0.719 -4.661,-1.215 -7.179,-1.215 -13.255,0 -24,10.745 -24,24 h 128 c 0,-13.255 -10.745,-24 -24,-24 z"
                     style="fill:#ffffff"
                     inkscape:connector-curvature="0" />
                </g>
                <g
                   id="g1370">
                  <path
                     id="path1368"
                     d="m 184.705,83.333 c 0,-14.175 11.491,-25.667 25.667,-25.667 2.139,0 4.185,0.338 6.172,0.832 6.697,-7.233 16.193,-11.832 26.828,-11.832 20.25,0 36.667,16.416 36.667,36.667 z"
                     style="fill:#ffffff"
                     inkscape:connector-curvature="0" />
                </g>
                <g
                   id="g1374">
                  <path
                     id="path1372"
                     d="M 22.667,361.284 C 62.823,450.136 152.158,512 256,512 c 141.385,0 256,-114.615 256,-256 0,-2.672 -0.12,-5.314 -0.201,-7.966 C 353.492,248.76 281.706,360 22.667,360 Z"
                     style="fill:#71be63"
                     inkscape:connector-curvature="0" />
                </g>
                <g
                   id="g1394">
                  <g
                     id="g1380">
                    <g
                       id="g1378">
                      <path
                         id="path1376"
                         d="m 349.002,309.33 c -3.169,0 -5.736,-2.566 -5.736,-5.731 v -61.73 c 0,-3.165 2.566,-5.731 5.736,-5.731 3.17,0 5.735,2.566 5.735,5.731 v 61.73 c 0,3.165 -2.566,5.731 -5.735,5.731 z"
                         style="fill:#674447"
                         inkscape:connector-curvature="0" />
                    </g>
                  </g>
                  <g
                     id="g1386">
                    <g
                       id="g1384">
                      <path
                         id="path1382"
                         d="m 385.123,236.611 c 0,19.95 -16.173,36.123 -36.123,36.123 -19.95,0 -36.123,-16.173 -36.123,-36.123 0,-19.95 16.173,-81.278 36.123,-81.278 19.95,0 36.123,61.327 36.123,81.278 z"
                         style="fill:#43ab5f"
                         inkscape:connector-curvature="0" />
                    </g>
                  </g>
                  <g
                     id="g1392">
                    <g
                       id="g1390">
                      <path
                         id="path1388"
                         d="m 349,155.333 c -5.008,0 -9.777,3.871 -14.113,9.976 h 10e-4 c 18.26,0 33.062,56.13 33.062,74.39 0,15.883 -11.209,29.126 -26.143,32.311 2.325,0.47 4.729,0.725 7.192,0.725 19.95,0 36.124,-16.173 36.124,-36.123 C 385.124,216.66 368.95,155.333 349,155.333 Z"
                         style="fill:#71be63"
                         inkscape:connector-curvature="0" />
                    </g>
                  </g>
                </g>
                <g
                   id="g1398">
                  <path
                     id="path1396"
                     d="M 511.394,272.76 C 398.881,273.312 237.582,428.989 80.136,441.742 125.996,485.213 187.815,512 256,512 391.748,512 502.753,406.324 511.394,272.76 Z"
                     style="fill:#43ab5f"
                     inkscape:connector-curvature="0" />
                </g>
                <g
                   id="g1402">
                  <circle
                     id="circle1400"
                     r="6.6669998"
                     cy="448.66699"
                     cx="195.541"
                     style="fill:#b0eb81" />
                </g>
                <g
                   id="g1406">
                  <circle
                     id="circle1404"
                     r="6.6669998"
                     cy="370.26599"
                     cx="226.66701"
                     style="fill:#94d75b" />
                </g>
                <g
                   id="g1410">
                  <circle
                     id="circle1408"
                     r="6.6669998"
                     cy="282.70999"
                     cx="407.06601"
                     style="fill:#94d75b" />
                </g>
                <g
                   id="g1414">
                  <circle
                     id="circle1412"
                     r="6.6669998"
                     cy="459.33301"
                     cx="295.76501"
                     style="fill:#71be63" />
                </g>
                <g
                   id="g1418">
                  <circle
                     id="circle1416"
                     r="6.6669998"
                     cy="418"
                     cx="331.69101"
                     style="fill:#b0eb81" />
                </g>
                <g
                   id="g1422">
                  <circle
                     id="circle1420"
                     r="6.6669998"
                     cy="427.48199"
                     cx="256"
                     style="fill:#71be63" />
                </g>
                <g
                   id="g1426">
                  <circle
                     id="circle1424"
                     r="6.6669998"
                     cy="455.33301"
                     cx="144"
                     style="fill:#71be63" />
                </g>
                <g
                   id="g1430">
                  <circle
                     id="circle1428"
                     r="6.6669998"
                     cy="399.047"
                     cx="150.66701"
                     style="fill:#b0eb81" />
                </g>
                <g
                   id="g1434">
                  <circle
                     id="circle1432"
                     r="6.6669998"
                     cy="345.33301"
                     cx="262.66699"
                     style="fill:#b0eb81" />
                </g>
                <g
                   id="g1438">
                  <circle
                     id="circle1436"
                     r="6.6669998"
                     cy="395.71301"
                     cx="95.980003"
                     style="fill:#94d75b" />
                </g>
                <g
                   id="g1442">
                  <circle
                     id="circle1440"
                     r="6.6669998"
                     cy="389.047"
                     cx="378.457"
                     style="fill:#b0eb81" />
                </g>
                <g
                   id="g1446">
                  <circle
                     id="circle1444"
                     r="6.6669998"
                     cy="370.26599"
                     cx="443.00201"
                     style="fill:#b0eb81" />
                </g>
                <g
                   id="g1450">
                  <circle
                     id="circle1448"
                     r="6.6669998"
                     cy="382.38"
                     cx="319.543"
                     style="fill:#71be63" />
                </g>
                <g
                   id="g1454">
                  <circle
                     id="circle1452"
                     r="6.6669998"
                     cy="433.548"
                     cx="378.457"
                     style="fill:#71be63" />
                </g>
                <g
                   id="g1458">
                  <circle
                     id="circle1456"
                     r="6.6669998"
                     cy="352"
                     cx="398.66699"
                     style="fill:#71be63" />
                </g>
                <g
                   id="g1462">
                  <circle
                     id="circle1460"
                     r="6.6669998"
                     cy="313.28101"
                     cx="443.00201"
                     style="fill:#71be63" />
                </g>
              </g>
              <g
                 id="g1466" />
              <g
                 id="g1468" />
              <g
                 id="g1470" />
              <g
                 id="g1472" />
              <g
                 id="g1474" />
              <g
                 id="g1476" />
              <g
                 id="g1478" />
              <g
                 id="g1480" />
              <g
                 id="g1482" />
              <g
                 id="g1484" />
              <g
                 id="g1486" />
              <g
                 id="g1488" />
              <g
                 id="g1490" />
              <g
                 id="g1492" />
              <g
                 id="g1494" />
            </g>
            <ellipse
               ry="25.127279"
               rx="25.097099"
               cy="119.94924"
               cx="209.83495"
               id="path3933-1-0"
               style="opacity:1;fill:none;fill-opacity:1;stroke:#000000;stroke-width:1.26218474;stroke-miterlimit:4;stroke-dasharray:none;stroke-opacity:1" />
          </g>
          <ellipse
             ry="25.420591"
             rx="25.389189"
             cy="237.1642"
             cx="226.42139"
             id="path3933-1-0-5"
             style="opacity:1;fill:none;fill-opacity:1;stroke:#000000;stroke-width:1.27689636;stroke-miterlimit:4;stroke-dasharray:none;stroke-opacity:1" />
        </g>
      </g>
      <circle
         r="3.5540528"
         cy="199.11787"
         cx="166.16934"
         id="path3940"
         style="opacity:1;fill:none;fill-opacity:1;stroke:#000000;stroke-width:1.19389439;stroke-miterlimit:4;stroke-dasharray:none;stroke-opacity:1" />
      <circle
         r="3.5540528"
         cy="159.77385"
         cx="122.49614"
         id="path3940-9"
         style="opacity:1;fill:none;fill-opacity:1;stroke:#000000;stroke-width:1.19389439;stroke-miterlimit:4;stroke-dasharray:none;stroke-opacity:1" />
      <circle
         r="3.5540528"
         cy="181.22935"
         cx="183.10323"
         id="path3940-9-2"
         style="opacity:1;fill:none;fill-opacity:1;stroke:#000000;stroke-width:1.19389439;stroke-miterlimit:4;stroke-dasharray:none;stroke-opacity:1" />
      <circle
         r="3.5540528"
         cy="171.5043"
         cx="133.58035"
         id="path3940-9-4"
         style="opacity:1;fill:none;fill-opacity:1;stroke:#000000;stroke-width:1.19389439;stroke-miterlimit:4;stroke-dasharray:none;stroke-opacity:1" />
    </g>
  </g>
</svg>
