<?xml version="1.0" encoding="UTF-8" standalone="no"?>
<!-- Created with Inkscape (http://www.inkscape.org/) -->

<svg
   xmlns:dc="http://purl.org/dc/elements/1.1/"
   xmlns:cc="http://creativecommons.org/ns#"
   xmlns:rdf="http://www.w3.org/1999/02/22-rdf-syntax-ns#"
   xmlns:svg="http://www.w3.org/2000/svg"
   xmlns="http://www.w3.org/2000/svg"
   xmlns:xlink="http://www.w3.org/1999/xlink"
   xmlns:sodipodi="http://sodipodi.sourceforge.net/DTD/sodipodi-0.dtd"
   xmlns:inkscape="http://www.inkscape.org/namespaces/inkscape"
   width="187.69737mm"
   height="151.43765mm"
   viewBox="0 0 187.69737 151.43765"
   version="1.1"
   id="svg8"
   inkscape:version="0.92.1 r15371"
   sodipodi:docname="historia.svg">
  <defs
     id="defs2">
    <linearGradient
       inkscape:collect="always"
       id="linearGradient1052">
      <stop
         style="stop-color:#e9c6af;stop-opacity:1"
         offset="0"
         id="stop1048" />
      <stop
         style="stop-color:#552200;stop-opacity:0;"
         offset="1"
         id="stop1050" />
    </linearGradient>
    <linearGradient
       inkscape:collect="always"
       xlink:href="#linearGradient1052"
       id="linearGradient1054"
       x1="-1.4717195e-009"
       y1="152.90755"
       x2="189.61806"
       y2="-1.4327178"
       gradientUnits="userSpaceOnUse" />
  </defs>
  <sodipodi:namedview
     id="base"
     pagecolor="#ffffff"
     bordercolor="#666666"
     borderopacity="1.0"
     inkscape:pageopacity="0.0"
     inkscape:pageshadow="2"
     inkscape:zoom="0.54"
     inkscape:cx="-0.12762704"
     inkscape:cy="213.69652"
     inkscape:document-units="mm"
     inkscape:current-layer="layer4"
     showgrid="false"
     inkscape:lockguides="true"
     inkscape:window-width="1366"
     inkscape:window-height="706"
     inkscape:window-x="-8"
     inkscape:window-y="-8"
     inkscape:window-maximized="1" />
  <metadata
     id="metadata5">
    <rdf:RDF>
      <cc:Work
         rdf:about="">
        <dc:format>image/svg+xml</dc:format>
        <dc:type
           rdf:resource="http://purl.org/dc/dcmitype/StillImage" />
        <dc:title />
      </cc:Work>
    </rdf:RDF>
  </metadata>
  <g
     inkscape:groupmode="layer"
     id="layer4"
     inkscape:label="fundo">
    <rect
       style="fill:url(#linearGradient1054);stroke-width:0.26458332;fill-opacity:1"
       id="rect1046"
       width="189.61806"
       height="154.34027"
       x="-1.4717195e-009"
       y="-1.4327178"
       ry="0" />
  </g>
  <g
     inkscape:label="Camada 1"
     inkscape:groupmode="layer"
     id="layer1"
     transform="translate(-108.07773,-125.2398)"
     style="display:inline">
    <g
       id="g4382"
       transform="matrix(1,0,0,0.99029365,0,2.6855291)">
      <g
         transform="matrix(0.53323118,0,0,0.53323118,65.419239,65.517903)"
         id="g4317">
        <path
           inkscape:connector-curvature="0"
           style="fill:#876e5b;fill-opacity:1"
           d="M 424,132 H 88 c -4.4,0 -8,3.6 -8,8 v 232 c 0,4.4 3.6,8 8,8 h 140 c 0,8.836 12.54,16 28,16 15.46,0 28,-7.164 28,-16 h 140 c 4.4,0 8,-3.6 8,-8 V 140 c 0,-4.4 -3.6,-8 -8,-8 z"
           id="path4176" />
        <rect
           x="264"
           y="132"
           style="fill:#605044;fill-opacity:1"
           width="160"
           height="236"
           id="rect4178" />
        <path
           inkscape:connector-curvature="0"
           style="fill:#99806d;fill-opacity:1"
           d="M 424,372 H 284 c 0,8.836 -12.54,16 -28,16 -15.46,0 -28,-7.164 -28,-16 H 88 c -4.4,0 -8,-3.6 -8,-8 v 8 c 0,4.4 3.6,8 8,8 h 140 c 0,8.836 12.54,16 28,16 15.46,0 28,-7.164 28,-16 h 140 c 4.4,0 8,-3.6 8,-8 v -8 c 0,4.4 -3.6,8 -8,8 z"
           id="path4180" />
        <path
           inkscape:connector-curvature="0"
           style="fill:#fff8e6"
           d="m 188,112 c -44.184,0 -72,8 -92,12 V 364 H 256 V 124 c -4,-4 -23.816,-12 -68,-12 z"
           id="path4182" />
        <path
           inkscape:connector-curvature="0"
           style="fill:#e6dbc3"
           d="m 256,364 c 0,-11.044 -23.816,-20 -68,-20 -44.184,0 -84,12 -92,20 z"
           id="path4184" />
        <path
           inkscape:connector-curvature="0"
           style="fill:#fff8e6"
           d="m 324,112 c 44.184,0 72,8 92,12 V 364 H 256 V 124 c 4,-4 23.816,-12 68,-12 z"
           id="path4186" />
        <path
           inkscape:connector-curvature="0"
           style="fill:#e6dbc3"
           d="m 256,364 c 0,-11.044 23.816,-20 68,-20 44.184,0 84,12 92,20 z"
           id="path4188" />
        <path
           inkscape:connector-curvature="0"
           style="fill:#f2e7ce"
           d="M 256,340 V 124 c -2.584,-2.592 -11.884,-6.852 -30.072,-9.536 z"
           id="path4190" />
        <rect
           x="100"
           y="364"
           style="fill:#705e50;fill-opacity:1"
           width="164"
           height="4"
           id="rect4192" />
        <g
           id="g4232">
          <path
             inkscape:connector-curvature="0"
             style="fill:#f2e7ce"
             d="m 400,164 c -42.668,0 -85.332,0 -128,0 0,-11.2 0,-16.8 0,-28 46.728,-7.228 81.272,-7.232 128,0 0,11.2 0,16.8 0,28 z"
             id="path4194" />
          <rect
             x="272"
             y="264"
             style="fill:#f2e7ce"
             width="128"
             height="8"
             id="rect4206" />
          <rect
             x="272"
             y="280"
             style="fill:#f2e7ce"
             width="128"
             height="8"
             id="rect4208" />
          <rect
             x="272"
             y="296"
             style="fill:#f2e7ce"
             width="128"
             height="8"
             id="rect4210" />
          <rect
             x="272"
             y="312"
             style="fill:#f2e7ce"
             width="108"
             height="8"
             id="rect4212" />
          <rect
             x="136"
             y="140"
             style="fill:#f2e7ce"
             width="108"
             height="8"
             id="rect4214" />
          <rect
             x="116"
             y="156"
             style="fill:#f2e7ce"
             width="128"
             height="8"
             id="rect4216" />
          <rect
             x="116"
             y="172"
             style="fill:#f2e7ce"
             width="128"
             height="8"
             id="rect4218" />
          <rect
             x="116"
             y="188"
             style="fill:#f2e7ce"
             width="128"
             height="8"
             id="rect4220" />
          <rect
             x="116"
             y="204"
             style="fill:#f2e7ce"
             width="128"
             height="8"
             id="rect4222" />
          <rect
             x="116"
             y="220"
             style="fill:#f2e7ce"
             width="128"
             height="8"
             id="rect4224" />
          <rect
             x="116"
             y="235.25177"
             style="fill:#f2e7ce"
             width="108"
             height="8"
             id="rect4230" />
        </g>
        <g
           id="g4234" />
        <g
           id="g4236" />
        <g
           id="g4238" />
        <g
           id="g4240" />
        <g
           id="g4242" />
        <g
           id="g4244" />
        <g
           id="g4246" />
        <g
           id="g4248" />
        <g
           id="g4250" />
        <g
           id="g4252" />
        <g
           id="g4254" />
        <g
           id="g4256" />
        <g
           id="g4258" />
        <g
           id="g4260" />
        <g
           id="g4262" />
      </g>
      <g
         transform="matrix(0.16711559,0,0,0.16711559,207.82615,129.82553)"
         id="g3979">
        <rect
           x="102.078"
           y="231.44099"
           style="fill:#aa927d;fill-opacity:1"
           width="241.33299"
           height="121.333"
           id="rect3949" />
        <path
           inkscape:connector-curvature="0"
           style="fill:#d8ccbc;fill-opacity:1"
           d="m 367.245,372.331 v -31 h -14.08 l -3.58,-89 -0.36,-9 h 18.02 v -31 h -10e-4 10e-4 l -146.5,-47.93 -146.5,47.93 h 10e-4 -10e-4 v 31 h 18.01 l -0.36,9 -3.57,89 h -14.08 v 31 h -20 v 25 h 333 v -25 z m -215.6,-120 -3.57,89 h -33.91 l -3.58,-89 -0.36,-9 h 41.78 z m 59.75,0 -3.57,89 h -33.91 l -3.58,-89 -0.36,-9 h 41.78 z m 59.75,0 -3.57,89 h -33.91 l -3.58,-89 -0.36,-9 h 41.78 z m 59.75,0 -3.57,89 h -33.91 l -3.58,-89 -0.36,-9 h 41.78 z"
           id="path3951" />
        <polygon
           style="fill:#ebe4dd;fill-opacity:1"
           points="220.745,178.08 285.703,199.331 155.787,199.331 "
           id="polygon3953" />
        <g
           id="g3959">
          <path
             inkscape:connector-curvature="0"
             style="fill:#cccccc"
             d="M 439.48,418.972 H 0 c 0,-4.43 1.13,-8.59 3.12,-12.22 1.17,-2.14 2.64,-4.09 4.35,-5.8 4.61,-4.62 10.99,-7.47 18.03,-7.47 h 388.48 c 9.65,0 18.05,5.36 22.38,13.27 1.99,3.63 3.12,7.79 3.12,12.22 z"
             id="path3955" />
          <path
             inkscape:connector-curvature="0"
             style="fill:#999999"
             d="M 439.48,418.972 H 0 c 0,-4.43 1.13,-8.59 3.12,-12.22 h 433.24 c 1.99,3.63 3.12,7.79 3.12,12.22 z"
             id="path3957" />
        </g>
        <polygon
           style="fill:#99806d;fill-opacity:1"
           points="92.255,243.331 110.225,243.331 110.585,252.331 91.895,252.331 "
           id="polygon3965" />
        <polygon
           style="fill:#99806d;fill-opacity:1"
           points="152.005,243.331 169.975,243.331 170.335,252.331 151.645,252.331 "
           id="polygon3967" />
        <polygon
           style="fill:#99806d;fill-opacity:1"
           points="211.755,243.331 229.725,243.331 230.085,252.331 211.395,252.331 "
           id="polygon3969" />
        <polygon
           style="fill:#99806d;fill-opacity:1"
           points="271.505,243.331 289.475,243.331 289.835,252.331 271.145,252.331 "
           id="polygon3971" />
        <polygon
           style="fill:#99806d;fill-opacity:1"
           points="349.225,243.331 349.585,252.331 330.895,252.331 331.255,243.331 "
           id="polygon3973" />
        <polygon
           style="fill:#99806d;fill-opacity:1"
           points="233.745,363.331 267.495,363.331 293.495,363.331 327.245,363.331 353.245,363.331 367.245,363.331 367.245,372.331 74.245,372.331 74.245,363.331 88.245,363.331 114.245,363.331 147.995,363.331 173.995,363.331 207.745,363.331 "
           id="polygon3975" />
        <polygon
           style="fill:#bfa993;fill-opacity:1"
           points="233.745,212.331 267.495,212.331 293.495,212.331 327.245,212.331 353.245,212.331 367.245,212.331 367.245,221.331 74.245,221.331 74.245,212.331 88.245,212.331 114.245,212.331 147.995,212.331 173.995,212.331 207.745,212.331 "
           id="polygon3977" />
      </g>
      <g
         transform="matrix(0.15327423,0,0,0.15327423,125.65345,187.2773)"
         id="g4053">
        <polygon
           style="fill:#ffd039"
           points="327.173,207.224 387.077,325.524 273.373,325.524 273.353,325.454 291.153,260.524 "
           id="polygon4033" />
        <polygon
           style="fill:#ffd039"
           points="194.263,186.554 217.703,151.864 299.743,325.454 258.243,325.454 247.273,325.454 138.41,325.454 161.793,234.604 "
           id="polygon4035" />
        <polygon
           style="fill:#ffd039"
           points="125.703,181.214 193.076,325.524 28.183,325.524 "
           id="polygon4037" />
        <circle
           style="fill:#eab932"
           cx="138.959"
           cy="124.456"
           r="34.25"
           id="circle4039" />
        <path
           inkscape:connector-curvature="0"
           style="fill:#ffd039"
           d="m 173.209,124.462 c 0,18.914 -15.336,34.243 -34.25,34.243 -3.047,0 -6.005,-0.395 -8.82,-1.145 -5.596,-5.391 -9.072,-12.957 -9.072,-21.341 0,-16.379 13.277,-29.649 29.649,-29.649 8.384,0 15.949,3.476 21.348,9.072 0.75,2.816 1.145,5.774 1.145,8.82 z"
           id="path4041" />
        <polygon
           style="fill:#eab932"
           points="367.373,325.524 327.173,207.224 327.183,207.214 407.133,325.524 "
           id="polygon4043" />
        <polygon
           style="fill:#eab932"
           points="291.153,260.524 335.033,325.454 273.353,325.454 217.703,151.864 217.713,151.854 235.133,177.634 "
           id="polygon4045" />
        <polygon
           style="fill:#eab932"
           points="159.403,325.524 125.703,181.214 161.793,234.604 223.183,325.454 223.233,325.524 "
           id="polygon4047" />
        <path
           inkscape:connector-curvature="0"
           style="fill:#e3c655;fill-opacity:1"
           d="M 439.48,349.274 H 0 c 0,-4.43 1.13,-8.59 3.12,-12.22 1.17,-2.14 2.64,-4.09 4.35,-5.8 4.61,-4.62 10.99,-7.47 18.03,-7.47 h 388.48 c 9.65,0 18.05,5.36 22.38,13.27 1.99,3.63 3.12,7.79 3.12,12.22 z"
           id="path4049" />
        <path
           inkscape:connector-curvature="0"
           style="fill:#f8c73e;fill-opacity:1"
           d="M 439.48,349.274 H 0 c 0,-4.43 1.13,-8.59 3.12,-12.22 h 433.24 c 1.99,3.63 3.12,7.79 3.12,12.22 z"
           id="path4051" />
      </g>
    </g>
  </g>
</svg>
