<?xml version="1.0" encoding="UTF-8" standalone="no"?>
<!-- Created with Inkscape (http://www.inkscape.org/) -->

<svg
   xmlns:dc="http://purl.org/dc/elements/1.1/"
   xmlns:cc="http://creativecommons.org/ns#"
   xmlns:rdf="http://www.w3.org/1999/02/22-rdf-syntax-ns#"
   xmlns:svg="http://www.w3.org/2000/svg"
   xmlns="http://www.w3.org/2000/svg"
   xmlns:xlink="http://www.w3.org/1999/xlink"
   xmlns:sodipodi="http://sodipodi.sourceforge.net/DTD/sodipodi-0.dtd"
   xmlns:inkscape="http://www.inkscape.org/namespaces/inkscape"
   width="182.60497mm"
   height="159.28493mm"
   viewBox="0 0 182.60497 159.28493"
   version="1.1"
   id="svg8"
   inkscape:version="0.92.1 r15371"
   sodipodi:docname="literatura.svg">
  <defs
     id="defs2">
    <linearGradient
       inkscape:collect="always"
       id="linearGradient1531">
      <stop
         style="stop-color:#ce694a;stop-opacity:1;"
         offset="0"
         id="stop1527" />
      <stop
         style="stop-color:#f4e3d7;stop-opacity:1"
         offset="1"
         id="stop1529" />
    </linearGradient>
    <linearGradient
       inkscape:collect="always"
       id="linearGradient1569">
      <stop
         style="stop-color:#cccccc;stop-opacity:1;"
         offset="0"
         id="stop1565" />
      <stop
         style="stop-color:#ffffff;stop-opacity:1"
         offset="1"
         id="stop1567" />
    </linearGradient>
    <linearGradient
       inkscape:collect="always"
       id="linearGradient1557">
      <stop
         style="stop-color:#010002;stop-opacity:1;"
         offset="0"
         id="stop1553" />
      <stop
         style="stop-color:#b3b3b3;stop-opacity:1"
         offset="1"
         id="stop1555" />
    </linearGradient>
    <linearGradient
       inkscape:collect="always"
       xlink:href="#linearGradient1557"
       id="linearGradient1563"
       x1="16.34927"
       y1="295.04761"
       x2="10.910747"
       y2="339.89365"
       gradientUnits="userSpaceOnUse" />
    <linearGradient
       inkscape:collect="always"
       xlink:href="#linearGradient1569"
       id="linearGradient1571"
       x1="30.019176"
       y1="286.83078"
       x2="27.874342"
       y2="295.24057"
       gradientUnits="userSpaceOnUse" />
    <linearGradient
       inkscape:collect="always"
       xlink:href="#linearGradient1531"
       id="linearGradient1533"
       x1="0"
       y1="160.49161"
       x2="181.16299"
       y2="4.4710202"
       gradientUnits="userSpaceOnUse" />
  </defs>
  <sodipodi:namedview
     id="base"
     pagecolor="#ffffff"
     bordercolor="#666666"
     borderopacity="1.0"
     inkscape:pageopacity="0.0"
     inkscape:pageshadow="2"
     inkscape:zoom="0.43852551"
     inkscape:cx="332.66874"
     inkscape:cy="183.74127"
     inkscape:document-units="mm"
     inkscape:current-layer="layer5"
     showgrid="false"
     inkscape:window-width="1366"
     inkscape:window-height="706"
     inkscape:window-x="-8"
     inkscape:window-y="-8"
     inkscape:window-maximized="1" />
  <metadata
     id="metadata5">
    <rdf:RDF>
      <cc:Work
         rdf:about="">
        <dc:format>image/svg+xml</dc:format>
        <dc:type
           rdf:resource="http://purl.org/dc/dcmitype/StillImage" />
        <dc:title />
      </cc:Work>
    </rdf:RDF>
  </metadata>
  <g
     inkscape:groupmode="layer"
     id="layer5"
     inkscape:label="fundo">
    <rect
       style="fill:url(#linearGradient1533);stroke-width:0.26458332;fill-opacity:1"
       id="rect1181"
       width="184.02103"
       height="160.49046"
       x="0"
       y="0.0011493276" />
  </g>
  <g
     inkscape:label="Camada 1"
     inkscape:groupmode="layer"
     id="layer1"
     transform="translate(-9.0714297,2.646674)">
    <g
       id="g1689"
       transform="translate(10.137941,56.92337)">
      <g
         transform="matrix(0.26458333,0,0,0.26458333,1.6630961,-14.301129)"
         id="g1551">
        <g
           id="g1415">
          <g
             id="g1255">
            <path
               inkscape:connector-curvature="0"
               style="fill:#ce694a;fill-opacity:1"
               d="M 472,116.07 H 24 c -13.234,0 -24,10.766 -24,24 v 264 c 0,13.234 10.766,24 24,24 h 448 c 13.234,0 24,-10.766 24,-24 v -264 c 0,-13.234 -10.766,-24 -24,-24 z"
               id="path1253" />
          </g>
          <g
             id="g1259">
            <rect
               x="224"
               y="388.07001"
               style="fill:#b03343;fill-opacity:1"
               width="48"
               height="40"
               id="rect1257" />
          </g>
          <g
             id="g1263">
            <path
               inkscape:connector-curvature="0"
               style="fill:#e6be8a"
               d="m 464.219,364.07 v 24 c 0,4.418 -3.582,8 -8,8 h -416 c -4.418,0 -8,-3.582 -8,-8 v -24 l 47.781,-24 192,8 160,-8 z"
               id="path1261" />
          </g>
          <g
             id="g1267">
            <path
               inkscape:connector-curvature="0"
               style="fill:#ffebb7"
               d="m 43.443,375.116 c 65.739,-27.139 140.084,-25.487 204.776,4.954 v -288 C 181.394,60.625 104.27,59.9 36.97,89.894 c -2.896,1.291 -4.751,4.222 -4.751,7.393 v 270.515 c 0,5.779 5.883,9.519 11.224,7.314 z"
               id="path1265" />
          </g>
          <g
             id="g1271">
            <path
               inkscape:connector-curvature="0"
               style="fill:#ffd788"
               d="m 248.219,380.07 c 64.692,-30.442 139.037,-32.093 204.776,-4.954 5.341,2.205 11.224,-1.535 11.224,-7.314 V 97.287 c 0,-3.171 -1.855,-6.102 -4.751,-7.393 C 392.168,59.9 315.043,60.625 248.219,92.07 Z"
               id="path1269" />
          </g>
          <g
             id="g1277">
            <g
               id="g1275" />
          </g>
          <g
             id="g1283">
            <g
               id="g1281" />
          </g>
          <g
             id="g1289">
            <g
               id="g1287" />
          </g>
          <g
             id="g1295">
            <g
               id="g1293" />
          </g>
          <g
             id="g1301">
            <g
               id="g1299" />
          </g>
          <g
             id="g1307">
            <g
               id="g1305" />
          </g>
          <g
             id="g1313">
            <g
               id="g1311" />
          </g>
          <g
             id="g1319">
            <g
               id="g1317" />
          </g>
          <g
             id="g1325">
            <g
               id="g1323">
              <path
                 inkscape:connector-curvature="0"
                 style="fill:#868491"
                 d="m 280.219,167.824 c -3.406,0 -6.563,-2.188 -7.633,-5.605 -1.32,-4.215 1.023,-8.707 5.234,-10.031 34.859,-10.949 70.937,-14.465 107.281,-10.422 4.391,0.484 7.555,4.441 7.07,8.832 -0.484,4.387 -4.359,7.637 -8.836,7.066 -34.094,-3.781 -67.992,-0.496 -100.719,9.789 -0.796,0.25 -1.608,0.371 -2.397,0.371 z"
                 id="path1321" />
            </g>
          </g>
          <g
             id="g1331">
            <g
               id="g1329" />
          </g>
          <g
             id="g1337">
            <g
               id="g1335">
              <path
                 inkscape:connector-curvature="0"
                 style="fill:#868491"
                 d="m 280.219,135.731 c -3.406,0 -6.563,-2.191 -7.633,-5.609 -1.32,-4.219 1.023,-8.707 5.242,-10.027 5.5,-1.727 11.047,-3.27 16.492,-4.594 4.266,-1.051 8.617,1.59 9.664,5.883 1.047,4.293 -1.594,8.621 -5.883,9.664 -5.109,1.242 -10.32,2.691 -15.492,4.312 -0.797,0.249 -1.601,0.371 -2.39,0.371 z"
                 id="path1333" />
            </g>
          </g>
          <g
             id="g1343">
            <g
               id="g1341">
              <path
                 inkscape:connector-curvature="0"
                 style="fill:#868491"
                 d="m 432.219,135.731 c -0.789,0 -1.602,-0.121 -2.398,-0.371 -32.734,-10.285 -66.617,-13.566 -100.719,-9.789 -4.422,0.539 -8.352,-2.684 -8.836,-7.066 -0.484,-4.391 2.68,-8.348 7.07,-8.832 36.328,-4.043 72.414,-0.527 107.281,10.422 4.211,1.324 6.555,5.816 5.234,10.031 -1.07,3.417 -4.226,5.605 -7.632,5.605 z"
                 id="path1339" />
            </g>
          </g>
          <g
             id="g1349">
            <g
               id="g1347">
              <path
                 inkscape:connector-curvature="0"
                 style="fill:#b4b6bc"
                 d="m 64.219,327.824 c -3.406,0 -6.562,-2.188 -7.633,-5.605 -1.32,-4.215 1.023,-8.707 5.234,-10.031 8.094,-2.543 16.422,-4.715 24.758,-6.461 4.32,-0.906 8.563,1.855 9.469,6.188 0.906,4.324 -1.859,8.563 -6.188,9.469 -7.828,1.641 -15.648,3.684 -23.242,6.07 -0.797,0.249 -1.609,0.37 -2.398,0.37 z"
                 id="path1345" />
            </g>
          </g>
          <g
             id="g1355">
            <g
               id="g1353">
              <path
                 inkscape:connector-curvature="0"
                 style="fill:#b4b6bc"
                 d="m 216.219,327.824 c -0.789,0 -1.602,-0.121 -2.398,-0.371 -30.18,-9.48 -61.477,-13.031 -92.969,-10.523 -4.531,0.32 -8.258,-2.941 -8.609,-7.344 -0.344,-4.406 2.938,-8.258 7.344,-8.609 33.609,-2.641 66.883,1.117 99.031,11.211 4.211,1.324 6.555,5.816 5.234,10.031 -1.071,3.418 -4.227,5.605 -7.633,5.605 z"
                 id="path1351" />
            </g>
          </g>
          <g
             id="g1361">
            <g
               id="g1359">
              <path
                 inkscape:connector-curvature="0"
                 style="fill:#b4b6bc"
                 d="m 216.219,295.73 c -0.789,0 -1.602,-0.121 -2.398,-0.371 -48.156,-15.125 -99.047,-15.125 -147.203,0 -4.25,1.324 -8.719,-1.023 -10.031,-5.234 -1.32,-4.215 1.023,-8.707 5.234,-10.031 51.297,-16.109 105.5,-16.109 156.797,0 4.211,1.324 6.555,5.816 5.234,10.031 -1.071,3.418 -4.227,5.605 -7.633,5.605 z"
                 id="path1357" />
            </g>
          </g>
          <g
             id="g1367">
            <g
               id="g1365">
              <path
                 inkscape:connector-curvature="0"
                 style="fill:#b4b6bc"
                 d="m 64.219,263.824 c -3.406,0 -6.562,-2.188 -7.633,-5.605 -1.32,-4.215 1.023,-8.707 5.234,-10.031 29.445,-9.242 60.023,-13.176 90.781,-11.73 4.406,0.211 7.82,3.957 7.609,8.371 -0.211,4.422 -3.938,7.797 -8.375,7.613 -28.891,-1.363 -57.578,2.332 -85.219,11.012 -0.796,0.249 -1.608,0.37 -2.397,0.37 z"
                 id="path1363" />
            </g>
          </g>
          <g
             id="g1373">
            <g
               id="g1371">
              <path
                 inkscape:connector-curvature="0"
                 style="fill:#b4b6bc"
                 d="m 216.219,263.824 c -0.789,0 -1.602,-0.121 -2.398,-0.371 -10.109,-3.176 -20.539,-5.723 -31,-7.566 -4.352,-0.77 -7.258,-4.918 -6.484,-9.27 0.758,-4.348 4.93,-7.258 9.266,-6.488 11.141,1.965 22.242,4.676 33.016,8.059 4.211,1.324 6.555,5.816 5.234,10.031 -1.072,3.418 -4.228,5.605 -7.634,5.605 z"
                 id="path1369" />
            </g>
          </g>
          <g
             id="g1379">
            <g
               id="g1377">
              <path
                 inkscape:connector-curvature="0"
                 style="fill:#b4b6bc"
                 d="m 64.219,231.73 c -3.406,0 -6.562,-2.188 -7.633,-5.605 -1.32,-4.215 1.023,-8.707 5.234,-10.031 45.477,-14.277 94,-15.867 140.289,-4.594 4.297,1.047 6.93,5.375 5.883,9.668 -1.047,4.289 -5.398,6.902 -9.664,5.879 -43.469,-10.598 -89.016,-9.094 -131.711,4.313 -0.797,0.249 -1.609,0.37 -2.398,0.37 z"
                 id="path1375" />
            </g>
          </g>
          <g
             id="g1385">
            <g
               id="g1383">
              <path
                 inkscape:connector-curvature="0"
                 style="fill:#b4b6bc"
                 d="m 64.219,199.731 c -3.406,0 -6.562,-2.188 -7.633,-5.605 -1.32,-4.215 1.023,-8.707 5.234,-10.031 16.094,-5.055 32.75,-8.562 49.523,-10.422 4.414,-0.535 8.352,2.684 8.836,7.066 0.484,4.391 -2.68,8.348 -7.07,8.832 -15.742,1.75 -31.391,5.043 -46.492,9.789 -0.797,0.249 -1.609,0.371 -2.398,0.371 z"
                 id="path1381" />
            </g>
          </g>
          <g
             id="g1391">
            <g
               id="g1389">
              <path
                 inkscape:connector-curvature="0"
                 style="fill:#b4b6bc"
                 d="m 200.227,195.273 c -0.625,0 -1.266,-0.074 -1.898,-0.227 -17.734,-4.32 -35.984,-6.66 -54.227,-6.945 -4.422,-0.07 -7.945,-3.707 -7.875,-8.125 0.07,-4.414 3.523,-8.133 8.125,-7.875 19.437,0.309 38.867,2.797 57.758,7.398 4.297,1.047 6.93,5.375 5.883,9.668 -0.892,3.657 -4.165,6.106 -7.766,6.106 z"
                 id="path1387" />
            </g>
          </g>
          <g
             id="g1397">
            <g
               id="g1395">
              <path
                 inkscape:connector-curvature="0"
                 style="fill:#b4b6bc"
                 d="m 64.219,167.824 c -3.406,0 -6.562,-2.188 -7.633,-5.605 -1.32,-4.215 1.023,-8.707 5.234,-10.031 34.867,-10.949 70.945,-14.465 107.281,-10.422 4.391,0.484 7.555,4.441 7.07,8.832 -0.484,4.387 -4.391,7.637 -8.836,7.066 -34.094,-3.781 -67.992,-0.496 -100.719,9.789 -0.796,0.25 -1.608,0.371 -2.397,0.371 z"
                 id="path1393" />
            </g>
          </g>
          <g
             id="g1403">
            <g
               id="g1401">
              <path
                 inkscape:connector-curvature="0"
                 style="fill:#b4b6bc"
                 d="m 64.219,135.731 c -3.406,0 -6.562,-2.191 -7.633,-5.609 -1.32,-4.219 1.023,-8.707 5.242,-10.027 5.5,-1.727 11.047,-3.27 16.492,-4.594 4.258,-1.051 8.617,1.59 9.664,5.883 1.047,4.293 -1.594,8.621 -5.883,9.664 -5.109,1.242 -10.32,2.691 -15.492,4.312 -0.797,0.249 -1.601,0.371 -2.39,0.371 z"
                 id="path1399" />
            </g>
          </g>
          <g
             id="g1409">
            <g
               id="g1407">
              <path
                 inkscape:connector-curvature="0"
                 style="fill:#b4b6bc"
                 d="m 200.227,131.27 c -0.625,0 -1.266,-0.074 -1.898,-0.227 -27.961,-6.809 -56.633,-8.641 -85.227,-5.473 -4.391,0.539 -8.352,-2.676 -8.836,-7.066 -0.484,-4.391 2.68,-8.348 7.07,-8.832 30.445,-3.391 61,-1.422 90.773,5.824 4.297,1.047 6.93,5.375 5.883,9.668 -0.891,3.656 -4.164,6.106 -7.765,6.106 z"
                 id="path1405" />
            </g>
          </g>
          <g
             id="g1413" />
        </g>
        <g
           id="g1417" />
        <g
           id="g1419" />
        <g
           id="g1421" />
        <g
           id="g1423" />
        <g
           id="g1425" />
        <g
           id="g1427" />
        <g
           id="g1429" />
        <g
           id="g1431" />
        <g
           id="g1433" />
        <g
           id="g1435" />
        <g
           id="g1437" />
        <g
           id="g1439" />
        <g
           id="g1441" />
        <g
           id="g1443" />
        <g
           id="g1445" />
      </g>
      <g
         transform="matrix(0.26458333,0,0,0.26458333,100.93236,-60.325868)"
         id="g939">
        <g
           id="g878">
          <path
             inkscape:connector-curvature="0"
             style="fill:url(#linearGradient1563);fill-opacity:1"
             d="m 30.421,317.462 4.422,-17.661 -12.194,-4.814 -8.376,13.804 c 0,0 4.618,12.526 -0.511,22.539 0.004,0.001 6.422,-10.931 16.659,-13.868 z m -8.192,-8.104 c 1.501,-0.615 3.231,0.087 3.851,1.561 0.625,1.474 -0.087,3.171 -1.588,3.786 -1.501,0.615 -3.231,-0.087 -3.851,-1.561 -0.631,-1.48 0.082,-3.177 1.588,-3.786 z"
             id="path866" />
          <path
             inkscape:connector-curvature="0"
             style="fill:#c87137"
             d="m 158.353,112.621 c -35.115,28.8 -81.086,88.124 -120.073,157.423 l -0.022,-0.027 -6.815,12.026 7.267,2.796 3.84,-10.117 c 20.799,-37.491 77.224,-135.4 180.397,-200.451 0,0 38.411,-22.877 76.256,-54.516 -9.214,7.702 -27.391,17.356 -37.247,23.584 -25.868,16.344 -57.79,31.704 -103.603,69.282 z"
             id="path868" />
          <path
             inkscape:connector-curvature="0"
             style="fill:#b3b3b3"
             d="m 33.2,215.365 c -7.985,28.223 -7.528,49.718 -4.438,55.625 h 4.83 C 46.929,243.365 111.164,143.297 151.146,111.974 192.57,79.519 224.524,60.635 251.399,46.863 c 9.437,-4.835 19.118,-11.384 27.848,-17.949 10.601,-8.36 21.348,-17.302 30.758,-26.053 L 282.728,20.75 294.89,2.148 271.67,25.759 286.78,0 c -35.746,3.225 -68.918,21.109 -68.918,21.109 -13.271,15.741 -23.959,40.782 -23.959,40.782 -0.37,-12.521 8.11,-31.481 8.11,-31.481 -6.266,2.861 -30.073,16.459 -30.073,16.459 -11.645,9.66 -15.262,35.06 -15.262,35.06 -2.214,-10.019 5.526,-29.333 5.526,-29.333 -33.543,19.32 -57.502,52.231 -57.502,52.231 -16.584,32.553 -2.948,57.953 -8.11,51.872 -5.162,-6.081 -4.052,-28.261 -4.052,-28.261 -35.017,33.63 -38.699,49.724 -38.699,49.724 -5.896,14.31 -11.058,52.59 -11.058,52.59 -3.318,-3.579 0,-23.611 0,-23.611 -8.479,17.889 -4.422,34.701 -4.422,34.701 C 34.309,240.407 33.2,215.365 33.2,215.365 Z"
             id="path870" />
          <path
             inkscape:connector-curvature="0"
             style="fill:#999999"
             d="m 310.01,14.191 c 0,0 -13.483,13.065 -30.758,26.053 C 252.171,61.603 226.096,79.063 226.096,79.063 123.945,139.425 67.025,237.932 48.212,271.708 h 10.002 c 3.535,-2.834 8.844,-4.971 31.014,-11.389 28.011,-8.11 44.72,-25.041 44.72,-25.041 0,0 -25.553,14.31 -37.595,12.88 -12.042,-1.43 -28.223,3.1 -28.223,3.1 0,0 -6.179,-2.861 24.291,-7.392 30.47,-4.531 80.596,-38.634 80.596,-38.634 0,0 -19.167,7.87 -28.011,7.152 -8.844,-0.718 -30.714,0 -30.714,0 14.495,-3.34 28.011,-1.43 50.126,-9.779 22.115,-8.349 20.886,-7.631 20.886,-7.631 25.063,-8.349 35.474,-34.342 35.474,-34.342 -4.335,1.67 -37.443,5.722 -51.176,1.67 -13.734,-4.052 -37.132,0 -37.132,0 22.115,-7.392 27.032,-4.052 32.433,-4.291 5.406,-0.239 22.855,1.191 57.502,-10.731 34.647,-11.922 44.475,-26.711 44.475,-26.711 l -23.366,3.122 c 15.257,-2.567 32.455,-12.662 32.455,-12.662 -10.568,2.861 -27.032,4.291 -27.032,4.291 19.412,-4.291 30.225,-10.253 30.225,-10.253 18.183,-13.832 22.36,-34.342 22.36,-34.342 -25.803,8.822 -46.194,4.77 -46.194,4.77 35.387,-2.382 45.215,-11.449 50.126,-13.592 4.917,-2.148 6.94,-11.03 6.94,-11.03 -17.878,6.44 -38.15,7.511 -38.15,7.511 21.93,-3.399 40.722,-14.49 40.722,-14.49 V 32.792 c -8.479,4.83 -23.399,8.588 -23.399,8.588 l 23.219,-15.023 c 1.305,-7.516 -4.776,-12.166 -4.776,-12.166 z"
             id="path872" />
          <polygon
             style="fill:url(#linearGradient1571);fill-opacity:1"
             points="26.124,284.458 23.551,290.571 37.361,296.103 39.933,289.989 "
             id="polygon874" />
        </g>
        <g
           id="g880" />
        <g
           id="g882" />
        <g
           id="g884" />
        <g
           id="g886" />
        <g
           id="g888" />
        <g
           id="g890" />
        <g
           id="g892" />
        <g
           id="g894" />
        <g
           id="g896" />
        <g
           id="g898" />
        <g
           id="g900" />
        <g
           id="g902" />
        <g
           id="g904" />
        <g
           id="g906" />
        <g
           id="g908" />
      </g>
    </g>
  </g>
</svg>
