<?xml version="1.0" encoding="UTF-8" standalone="no"?>
<!-- Created with Inkscape (http://www.inkscape.org/) -->

<svg
   xmlns:dc="http://purl.org/dc/elements/1.1/"
   xmlns:cc="http://creativecommons.org/ns#"
   xmlns:rdf="http://www.w3.org/1999/02/22-rdf-syntax-ns#"
   xmlns:svg="http://www.w3.org/2000/svg"
   xmlns="http://www.w3.org/2000/svg"
   xmlns:xlink="http://www.w3.org/1999/xlink"
   xmlns:sodipodi="http://sodipodi.sourceforge.net/DTD/sodipodi-0.dtd"
   xmlns:inkscape="http://www.inkscape.org/namespaces/inkscape"
   width="166.95627mm"
   height="210.44356mm"
   viewBox="0 0 166.95627 210.44356"
   version="1.1"
   id="svg8"
   inkscape:version="0.92.1 r15371"
   sodipodi:docname="portugues.svg">
  <defs
     id="defs2">
    <linearGradient
       inkscape:collect="always"
       id="linearGradient1820">
      <stop
         style="stop-color:#000080;stop-opacity:1;"
         offset="0"
         id="stop1816" />
      <stop
         style="stop-color:#000080;stop-opacity:0;"
         offset="1"
         id="stop1818" />
    </linearGradient>
    <linearGradient
       inkscape:collect="always"
       id="linearGradient6473">
      <stop
         style="stop-color:#57d0d9;stop-opacity:1;"
         offset="0"
         id="stop6469" />
      <stop
         style="stop-color:#3c6fd3;stop-opacity:1"
         offset="1"
         id="stop6471" />
    </linearGradient>
    <radialGradient
       inkscape:collect="always"
       xlink:href="#linearGradient6473"
       id="radialGradient6475"
       cx="55.367676"
       cy="270.31946"
       fx="55.367676"
       fy="270.31946"
       r="11.454911"
       gradientTransform="matrix(0.95294213,0.36437015,-0.29758908,1.1243581,73.713629,-44.439709)"
       gradientUnits="userSpaceOnUse" />
    <radialGradient
       inkscape:collect="always"
       xlink:href="#linearGradient6473"
       id="radialGradient6678"
       gradientUnits="userSpaceOnUse"
       gradientTransform="matrix(0.95294213,0.36437015,-0.29758908,1.1243581,73.713629,-44.439709)"
       cx="55.367676"
       cy="270.31946"
       fx="55.367676"
       fy="270.31946"
       r="11.454911" />
    <linearGradient
       inkscape:collect="always"
       xlink:href="#linearGradient1820"
       id="linearGradient1822"
       x1="166.95627"
       y1="210.44356"
       x2="0.56714678"
       y2="0.59924716"
       gradientUnits="userSpaceOnUse" />
  </defs>
  <sodipodi:namedview
     id="base"
     pagecolor="#ffffff"
     bordercolor="#666666"
     borderopacity="1.0"
     inkscape:pageopacity="0.0"
     inkscape:pageshadow="2"
     inkscape:zoom="0.4665165"
     inkscape:cx="97.851746"
     inkscape:cy="322.55841"
     inkscape:document-units="mm"
     inkscape:current-layer="layer7"
     showgrid="false"
     inkscape:lockguides="false"
     inkscape:window-width="1366"
     inkscape:window-height="706"
     inkscape:window-x="-8"
     inkscape:window-y="-8"
     inkscape:window-maximized="1" />
  <metadata
     id="metadata5">
    <rdf:RDF>
      <cc:Work
         rdf:about="">
        <dc:format>image/svg+xml</dc:format>
        <dc:type
           rdf:resource="http://purl.org/dc/dcmitype/StillImage" />
        <dc:title />
      </cc:Work>
    </rdf:RDF>
  </metadata>
  <g
     inkscape:groupmode="layer"
     id="layer7"
     inkscape:label="fundo"
     style="display:inline">
    <rect
       style="fill:url(#linearGradient1822);stroke-width:0.26458332;fill-opacity:1"
       id="rect1814"
       width="166.38911"
       height="209.84431"
       x="0.56714678"
       y="0.59924716" />
  </g>
  <g
     inkscape:label="Camada 1"
     inkscape:groupmode="layer"
     id="layer1"
     transform="translate(78.775524,22.513402)">
    <g
       id="g6676">
      <g
         id="g6575">
        <g
           id="g6332"
           transform="matrix(0.26458333,0,0,0.26458333,-27.928331,38.257101)">
          <path
             id="path6217"
             d="m 374.525,90 h -75 V 15 c 0,-8.401 -6.599,-15 -15,-15 H 45 C 20.098,0 0,20.099 0,45 v 422 c 0,24.899 20.098,45 45,45 h 299.525 c 24.902,0 45,-20.101 45,-45 V 105 c 0,-8.401 -6.599,-15 -15,-15 z"
             style="fill:#cae8f9"
             inkscape:connector-curvature="0" />
          <path
             id="path6219"
             d="m 389.525,105 v 362 c 0,24.899 -20.098,45 -45,45 h -150 V 0 h 90 c 8.401,0 15,6.599 15,15 v 75 h 75 c 8.401,0 15,6.599 15,15 z"
             style="fill:#b7e0f6"
             inkscape:connector-curvature="0" />
          <g
             id="g6237" />
          <g
             id="g6257" />
          <g
             id="g6259" />
          <g
             id="g6261" />
          <g
             id="g6263" />
          <g
             id="g6265" />
          <g
             id="g6267" />
          <g
             id="g6269" />
          <g
             id="g6271" />
          <g
             id="g6273" />
          <g
             id="g6275" />
          <g
             id="g6277" />
          <g
             id="g6279" />
          <g
             id="g6281" />
          <g
             id="g6283" />
          <g
             id="g6285" />
          <g
             id="g6287" />
          <path
             id="path6221"
             d="m 389.525,120 h -105 c -8.291,0 -15,-6.709 -15,-15 V 0 h 32.695 c 11.777,0 23.32,4.775 31.641,13.11 l 42.568,42.583 c 8.32,8.35 13.096,19.863 13.096,31.611 z"
             style="fill:#cae8f9"
             inkscape:connector-curvature="0" />
        </g>
        <g
           id="g2014"
           transform="matrix(7.8971617,0,0,7.8971617,-92.632667,-42.240512)">
          <g
             id="g1954">
            <g
               id="g1952">
              <path
                 id="path1950"
                 d="M 21.855,28.107 H 7.454 V 21.112 L 6.413,20.07 v 9.076 H 22.896 V 9.662 C 22.298895,8.7645795 22.055942,9.016673 21.855,9.841 Z"
                 inkscape:connector-curvature="0"
                 sodipodi:nodetypes="ccccccccc"
                 style="fill:#484549;fill-opacity:1" />
              <path
                 id="path1948"
                 d="m 7.454,9.652 h 4.156 v 1.344 H 17.7 V 9.652 h 4.155 V 9.841 C 22.193,9.765 22.541,9.705 22.896,9.662 V 8.61 H 17.701 V 6.362 H 16.056 C 16.535,5.96 16.849,5.364 16.849,4.691 16.847,3.481 15.862,2.498 14.653,2.498 c -1.209,0 -2.193,0.983 -2.193,2.192 0,0.673 0.313,1.269 0.792,1.671 H 11.608 V 8.61 H 6.413 v 4.387 l 1.041,1.044 z m 7.2,-6.113 c 0.635,0 1.151,0.516 1.151,1.151 0,0.635 -0.516,1.151 -1.151,1.151 -0.635,0 -1.151,-0.516 -1.151,-1.151 0,-0.635 0.517,-1.151 1.151,-1.151 z"
                 inkscape:connector-curvature="0"
                 sodipodi:nodetypes="cccccccccccccsscccccccsssss"
                 style="fill:#484549;fill-opacity:1" />
            </g>
          </g>
          <g
             id="g1956" />
          <g
             id="g1958" />
          <g
             id="g1960" />
          <g
             id="g1962" />
          <g
             id="g1964" />
          <g
             id="g1966" />
          <g
             id="g1968" />
          <g
             id="g1970" />
          <g
             id="g1972" />
          <g
             id="g1974" />
          <g
             id="g1976" />
          <g
             id="g1978" />
          <g
             id="g1980" />
          <g
             id="g1982" />
          <g
             id="g1984" />
        </g>
        <g
           aria-label="A - B - C  D- E - F G - H - I J - K - L M - N - O P - Q - R S - T -U V - W - X "
           transform="matrix(0.34008226,0,0,0.28294499,5.545745,-11.727411)"
           style="font-style:normal;font-weight:normal;font-size:40px;line-height:1.25;font-family:sans-serif;letter-spacing:0px;word-spacing:0px;fill:#000000;fill-opacity:1;stroke:none"
           id="flowRoot6334">
          <path
             d="m -48.49873,219.6935 -1.203176,8.61908 4.989032,-2.19379 -3.712488,-6.45755 z m -3.045726,-4.13034 -1.732985,-1.52562 q 0.321373,-0.51567 0.649132,-0.80537 1.267182,-1.09793 3.266463,-1.97705 2.017623,-0.8872 3.46987,-0.21558 1.260845,0.58941 2.418843,2.13912 1.157996,1.5497 2.69325,4.68046 0.794342,1.58483 1.258504,2.35819 1.373333,2.12051 1.781664,2.71045 0.421089,0.56352 1.417985,1.78892 0.311826,0.34122 0.839782,0.98253 0.540714,0.61492 1.016832,1.15425 1.040754,1.16452 2.984286,2.97192 -1.211339,1.75967 -2.130019,2.70436 -0.918683,0.94468 -1.799101,1.33182 -1.082179,0.47586 -1.944268,0.37661 -0.843745,-0.10731 -1.709837,-0.76632 -1.076638,-0.94078 -2.426837,-2.78031 -0.134776,-0.1695 -0.339742,-0.43293 -0.186614,-0.27148 -0.426672,-0.58186 -1.872453,1.84241 -3.064684,2.36666 -0.678656,0.29842 -1.185067,0.47947 -0.433043,0.14878 -3.940349,1.60788 l -0.07176,0.4475 q -0.373951,2.59768 -0.91381,4.10368 -0.539859,1.506 -1.555835,2.47267 -0.997631,0.95861 -2.721781,1.71676 -0.990469,0.43553 -1.479331,0.40093 -0.488864,-0.0346 -0.639602,-0.52983 -0.184236,-0.60529 1.001529,-4.22545 0.425027,-1.26834 0.606037,-1.97184 -2.037571,0.48002 -2.339049,-0.51044 -0.245648,-0.80705 0.809366,-3.08031 0.499199,-1.09298 1.061415,-1.56896 0.574977,-0.50239 2.146808,-1.21436 0.646673,-3.34151 0.82688,-4.25263 0.174625,-0.92946 0.476037,-2.33062 0.295829,-1.41949 0.667411,-3.20504 0.384339,-1.81197 1.028627,-4.81968 z"
             style="font-style:normal;font-variant:normal;font-weight:normal;font-stretch:normal;font-size:39.99941635px;font-family:Forte;-inkscape-font-specification:'Forte, Normal';font-variant-ligatures:normal;font-variant-caps:normal;font-variant-numeric:normal;font-feature-settings:normal;text-align:start;writing-mode:lr-tb;text-anchor:start;fill:#0b2255;fill-opacity:1"
             id="path6372"
             inkscape:connector-curvature="0" />
          <path
             d="m 11.547741,221.64356 -2.5194951,8.55456 q 0.234372,0.0391 0.468744,0.0391 1.0351411,0 2.4023081,-0.95701 1.718725,-1.19139 2.656211,-2.53903 0.957018,-1.36717 0.957018,-2.65621 0,-2.67574 -2.812459,-2.67574 -0.781239,0 -1.152327,0.23437 z m -2.9296451,10.03892 q -0.07812,0.2539 -0.156248,0.56639 -0.07812,0.3125 -0.1562471,0.58593 -0.917956,3.10543 -1.6991941,5.03899 -0.7617076,1.93357 -1.6210701,3.2812 -0.4882741,0.8203 -1.4062294,1.73826 2.3632467,0.72265 3.3593256,0.93749 1.01561,0.21484 2.0116901,0.21484 1.1523261,0 2.0312201,-0.33203 0.898424,-0.35156 1.679663,-1.11326 1.152327,-1.1328 1.874973,-2.69528 0.722645,-1.56247 0.722645,-3.0273 0,-1.60154 -1.113265,-2.7148 -0.546867,-0.54687 -1.230451,-0.83983 -0.664052,-0.29297 -1.855441,-0.48828 -1.0937341,-0.21484 -1.5234151,-0.41015 -0.429682,-0.19531 -0.917956,-0.74217 z m -8.51550049,2.55855 2.28512289,-7.03114 q 0.6640528,-1.89451 1.6015391,-3.69136 -0.097655,0.0195 -0.4492122,0.21484 -1.3476366,0.54687 -1.9140345,0.54687 -0.80076959,0 -0.80076959,-0.60546 0,-0.64452 0.62499089,-1.85544 0.6249909,-1.21092 1.2499817,-1.81638 1.4257605,-1.30858 4.3358741,-2.07028 2.9296451,-0.76171 6.5428732,-0.76171 2.187468,0 3.945255,0.37109 1.777318,0.37109 3.0273,1.11326 1.249982,0.72265 1.894503,1.75779 0.664053,1.03514 0.664053,2.30465 0,1.77732 -0.742176,3.16402 -0.742177,1.3867 -2.343716,2.59762 -1.777318,1.3281 -3.359326,1.75778 -0.175779,0.0586 -0.60546,0.11719 v 0.0977 q 6.855369,0.87889 6.855369,5.66398 0,0.95701 -0.332027,1.99215 -0.312495,1.03514 -0.937486,2.03122 -0.60546,0.99608 -1.464823,1.81638 -1.855441,1.81638 -4.413998,3.37886 -2.539025,1.56248 -5.117113,2.5195 -2.5780872,0.95701 -4.4139976,0.95701 -1.5429462,0 -2.9687067,-0.35155 -1.4062295,-0.35156 -2.246061,-0.93749 -0.83983149,-0.5664 -0.83983149,-1.23045 0,-0.60546 0.3320264,-1.1328 0.3515574,-0.52733 1.26951279,-1.30857 l -0.078124,-0.0781 q -0.527336,0.19531 -1.03514109,0.19531 -1.0742031,0 -1.73825591,-0.62499 -0.6640528,-0.62499 -0.6640528,-1.69919 0,-0.60546 0.546867,-2.81246 0.54686702,-2.22653 1.28904371,-4.58978 z"
             style="font-style:normal;font-variant:normal;font-weight:normal;font-stretch:normal;font-size:39.99941635px;font-family:Forte;-inkscape-font-specification:'Forte, Normal';font-variant-ligatures:normal;font-variant-caps:normal;font-variant-numeric:normal;font-feature-settings:normal;text-align:start;writing-mode:lr-tb;text-anchor:start;fill:#2e146f;fill-opacity:1"
             id="path6376"
             inkscape:connector-curvature="0" />
          <path
             d="m 76.078685,214.51418 q 0.761706,-1.9531 1.289046,-4.37494 0.54686,-2.44137 0.54686,-4.02337 0,-1.03514 -0.48827,-1.03514 -0.44921,0 -1.640596,1.19138 -1.777316,1.91404 -3.164012,4.414 -1.386696,2.48043 -2.128862,5.07805 -0.74218,2.59762 -0.74218,5.07805 0,1.9531 0.41015,2.67575 0.429676,0.72264 1.601536,0.72264 1.015606,0 2.519482,-0.5664 3.398382,-1.34763 7.18738,-3.8476 1.679656,-1.0742 2.128876,-1.0742 0.64452,0 0.64452,0.64452 v 0.0391 q -0.0977,0.8789 -0.60546,1.99216 -1.015606,2.14841 -1.757786,2.81246 -1.249976,1.11327 -3.437442,2.18747 -2.167932,1.0742 -4.453048,1.75779 -2.285112,0.68358 -3.828058,0.68358 -1.777316,0 -3.359312,-0.66405 -1.582006,-0.68359 -2.753867,-1.85544 -1.171858,-1.17186 -1.835911,-2.73434 -0.664053,-1.56248 -0.664053,-3.33979 0,-1.34764 0.429681,-2.91012 0.429682,-1.58201 1.249982,-3.30073 0.820301,-1.71873 1.855442,-3.22261 0.60546,-0.89842 1.249976,-1.71873 0.66405,-0.8203 1.445286,-1.60153 0.80077,-0.78124 1.738256,-1.50389 0.93749,-0.72264 1.718716,-1.23045 1.367166,-0.91795 2.831982,-1.60154 1.464826,-0.68358 2.714802,-1.01561 1.24998,-0.33203 2.285116,-0.33203 2.558552,0 4.003838,1.32811 1.445286,1.32811 1.445286,3.67182 0,2.4609 -1.210916,5.15618 -1.210916,2.67574 -3.222602,4.68743 -1.386696,1.42576 -2.753852,2.24606 -1.367166,0.8203 -2.460902,0.8203 -0.95701,0 -0.95701,-0.91796 0,-0.42968 0.52733,-1.19138 0.742176,-1.05468 1.640596,-3.12496 z"
             style="font-style:normal;font-variant:normal;font-weight:normal;font-stretch:normal;font-size:39.99941635px;font-family:Forte;-inkscape-font-specification:'Forte, Normal';font-variant-ligatures:normal;font-variant-caps:normal;font-variant-numeric:normal;font-feature-settings:normal;text-align:start;writing-mode:lr-tb;text-anchor:start;fill:#5708a6;fill-opacity:1"
             id="path6380"
             inkscape:connector-curvature="0" />
          <path
             d="m -24.678235,307.39347 5.81008,13.92218 q 0.05144,0.13067 0.307831,0.64854 0.644403,1.39975 0.810522,2.378 0.150583,0.72369 0.148887,1.89859 0.428264,-0.44724 0.931711,-1.03718 1.216664,-1.4257 1.902997,-2.52999 0.674989,-1.11828 1.056604,-2.32922 0.381616,-1.21094 0.497831,-2.5473 0.196537,-2.54884 -0.458602,-4.83617 -0.641155,-2.30371 -2.127138,-4.13569 -1.361213,-1.67816 -2.976318,-2.45872 -1.615099,-0.78055 -3.145346,-0.5149 -1.541596,0.25166 -2.759036,1.54189 z m 1.833076,24.99255 -5.78042,-15.12986 q -0.691337,-1.72664 -0.744798,-2.70051 -0.01182,-0.58625 0.209601,-1.25486 l -0.04536,-0.0559 -0.195785,0.22943 q -0.405555,0.47523 -1.317811,2.44435 -1.015432,2.14458 -1.546849,2.7673 -0.279693,0.32775 -0.470976,0.36095 -0.177292,0.0168 -0.370133,-0.22092 -0.453737,-0.55938 -0.679212,-1.57718 -0.22284,-1.04817 -0.150444,-2.16954 0.0724,-1.12135 0.422321,-1.96783 0.83099,-1.90117 2.699177,-4.60859 1.868187,-2.70742 4.315501,-5.5752 2.629114,-3.08081 5.144352,-4.41884 2.515237,-1.33803 4.782028,-0.83015 2.280776,0.49149 4.141097,2.78498 1.871664,2.30746 2.8543698,5.73845 0.9853481,3.40061 0.7568119,6.7507 -0.4980801,7.89388 -6.4135867,14.82572 -1.901912,2.22867 -3.731732,3.77278 -1.815835,1.52771 -2.682272,1.67015 -0.52583,0.12518 -0.922853,-0.36429 -0.102086,-0.12585 -0.273018,-0.47109 z"
             style="font-style:normal;font-variant:normal;font-weight:normal;font-stretch:normal;font-size:39.99941635px;font-family:Forte;-inkscape-font-specification:'Forte, Normal';font-variant-ligatures:normal;font-variant-caps:normal;font-variant-numeric:normal;font-feature-settings:normal;text-align:start;writing-mode:lr-tb;text-anchor:start;fill:#441953;fill-opacity:1"
             id="path6382"
             inkscape:connector-curvature="0" />
          <path
             d="m 49.173948,285.64747 -6.783474,-2.63478 -0.123151,0.46529 q -0.359605,1.35867 0.126527,2.77428 0.49106,1.397 1.440265,1.75994 0.967818,0.37006 2.978975,0.36022 2.029768,-0.003 4.724618,-0.42749 l 0.754864,-0.14177 q 0.768549,-0.11605 1.059764,-0.20965 1.280365,-0.26876 1.559543,-0.16201 0.335014,0.12809 0.172454,0.74228 -0.177338,0.67003 -0.645895,1.43367 -0.468553,0.76362 -1.052615,1.42161 -0.579133,0.63937 -1.040038,0.83205 -1.312108,0.54356 -4.176114,0.6782 -2.864006,0.13464 -5.674379,-0.2431 -0.942631,-0.15548 -1.687106,-0.44014 -2.549828,-0.97496 -4.400648,-2.80989 -1.827279,-1.84643 -2.521997,-4.10012 -0.676107,-2.24657 -0.0899,-4.46139 0.482756,-1.82396 1.827123,-3.72839 1.344365,-1.90443 3.297997,-3.55539 1.958559,-1.66959 4.162367,-2.79449 1.921354,-0.98696 4.117517,-1.54092 2.201087,-0.57257 4.13287,-0.59226 1.950395,-0.0126 3.420734,0.54963 2.307873,0.88244 3.595965,2.83014 1.311631,1.9362 0.819021,3.79739 -0.216748,0.81893 -0.770695,1.67288 -0.553947,0.85395 -1.248585,1.38767 -0.728029,0.58244 -1.948726,0.93551 -1.220698,0.35307 -2.647772,0.40177 -1.707349,0.0235 -2.80545,-0.39635 -1.098101,-0.41987 -0.955244,-0.95962 0.08375,-0.3164 0.875275,-0.75158 0.827662,-0.33939 1.717716,-1.14681 0.886221,-0.87038 1.726991,-2.18853 0.840774,-1.31815 1.062448,-2.15569 0.182266,-0.68864 -0.227196,-0.8452 -0.651415,-0.24908 -2.724407,0.53644 -2.072989,0.78551 -3.428875,1.80422 -1.275421,0.94701 -2.230605,2.07795 -0.950259,1.11233 -1.499818,2.33688 l 9.938744,3.80021 q 1.637845,0.62625 1.416172,1.46378 -0.206896,0.7817 -2.498838,1.85241 -2.23885,0.94755 -3.746412,0.37112 z"
             style="font-style:normal;font-variant:normal;font-weight:normal;font-stretch:normal;font-size:39.99941635px;font-family:Forte;-inkscape-font-specification:'Forte, Normal';font-variant-ligatures:normal;font-variant-caps:normal;font-variant-numeric:normal;font-feature-settings:normal;text-align:start;writing-mode:lr-tb;text-anchor:start;fill:url(#radialGradient6678);fill-opacity:1;stroke:none;stroke-opacity:1"
             id="path6386"
             inkscape:connector-curvature="0" />
          <path
             d="m 97.305986,299.96155 0.869312,-0.695 q -1.852238,-1.39994 -2.448013,-2.26067 -0.570669,-0.86545 -0.170284,-1.66998 0.325315,-0.65369 1.16189,-0.91706 0.987029,-0.38277 1.982797,-0.55445 1.004109,-0.18843 1.715802,-0.0637 0.58617,0.14833 1.441,0.76291 2.0784,1.49425 4.59314,3.62083 0.58671,0.46738 0.98065,0.77332 0.39394,0.30594 0.84656,0.67691 1.10624,0.79533 1.38292,1.06253 0.28501,0.25046 0.62063,0.71931 0.2349,0.30542 0.33594,0.65116 0.20216,0.73706 -0.26496,1.67569 -0.8675,1.74318 -2.31622,1.36162 -0.85412,-0.20441 -1.47405,-0.51357 -0.61161,-0.32586 -2.17009,-1.2643 l -4.796432,4.6991 q 1.290612,0.92788 2.128522,1.43928 0.51953,0.32796 1.55873,1.07508 1.22358,0.87968 1.59296,1.50937 0.37771,0.61294 0.0524,1.26663 -0.25024,0.50284 -1.21178,1.10877 -0.96154,0.60593 -1.81503,0.7661 -0.40164,0.0754 -0.93777,-0.17352 -0.52776,-0.2657 -1.701051,-1.10923 L 99.028904,313.74 98.609866,313.43874 q -1.123004,-0.80738 -2.614526,-1.74315 -2.022149,2.00544 -3.334731,2.90519 -1.304243,0.88299 -2.693231,1.15885 -0.962245,0.19577 -1.85815,0.0296 -0.879144,-0.15413 -1.499312,-0.59999 -1.022439,-0.73508 -1.48475,-1.86399 -0.445545,-1.11687 -0.06184,-1.88789 0.467117,-0.93863 4.511814,-4.72166 4.044693,-3.78303 7.730866,-6.75418 z"
             style="font-style:normal;font-variant:normal;font-weight:normal;font-stretch:normal;font-size:39.99941635px;font-family:Forte;-inkscape-font-specification:'Forte, Normal';font-variant-ligatures:normal;font-variant-caps:normal;font-variant-numeric:normal;font-feature-settings:normal;text-align:start;writing-mode:lr-tb;text-anchor:start;fill:#161878;fill-opacity:1"
             id="path6390"
             inkscape:connector-curvature="0" />
          <path
             d="m -59.727659,365.03943 q -0.04954,2.99164 -0.577502,5.11459 -0.528103,2.0924 -1.62048,3.68728 -1.303406,1.90298 -2.861676,2.64158 -1.558271,0.73861 -3.234064,0.29669 -1.66338,-0.46003 -3.269177,-2.04894 -1.994708,-1.97373 -3.084553,-5.57585 -1.089982,-3.63267 -1.146213,-7.97562 -0.05624,-4.34296 0.925483,-8.41904 0.981727,-4.07607 2.930628,-6.92148 3.128173,-4.56716 5.900684,-1.8238 1.078901,1.06755 1.511642,2.92485 0.445149,1.83916 0.104041,3.84294 -0.341109,2.00378 -1.40866,3.56241 -0.434469,0.63433 -0.748105,0.32399 -0.08781,-0.0869 -0.277578,-0.63954 -0.329739,-1.14724 -0.933761,-2.1706 -0.90537,-1.38236 -1.495002,-1.96579 -1.053805,-1.04272 -1.302073,-0.68025 -0.583429,0.85181 -0.798034,3.22401 -0.202185,2.35409 0.118568,4.31342 0.257372,1.74458 0.927813,3.68504 0.682855,1.92234 1.601833,3.56141 0.931384,1.62094 1.947555,2.62643 0.965986,0.95583 2.002894,0.97842 1.024363,0.0102 1.682273,-0.95038 1.129618,-1.64925 -0.353221,-6.58283 -0.356023,-1.44692 -0.420329,-1.87542 -0.06444,-0.45905 0.04543,-1.04968 0.280361,-1.60779 1.07086,-3.68381 0.790366,-2.10656 1.435862,-3.04899 0.757216,-1.10554 1.522481,-0.34833 0.06269,0.062 0.477512,0.65493 2.794429,4.92391 4.589184,9.77084 1.794755,4.84694 1.907651,7.84726 0.04344,1.38087 -0.635203,3.32432 -0.678647,1.94345 -1.795851,3.57458 -0.91859,1.34114 -2.188057,2.42632 -1.257047,1.06707 -2.354572,1.471 -1.097517,0.40394 -1.574241,-0.0678 -0.313636,-0.31033 -0.367511,-1.21502 -0.05387,-0.90469 0.140518,-2.17186 0.303606,-2.01047 0.613941,-2.46356 0.322748,-0.47122 1.621263,-0.61546 1.53555,-0.21377 2.869454,-0.83991 -0.594248,-1.65222 -1.689908,-3.70937 -1.083253,-2.07527 -1.811802,-3.00901 z"
             style="font-style:normal;font-variant:normal;font-weight:normal;font-stretch:normal;font-size:39.99941635px;font-family:Forte;-inkscape-font-specification:'Forte, Normal';font-variant-ligatures:normal;font-variant-caps:normal;font-variant-numeric:normal;font-feature-settings:normal;text-align:start;writing-mode:lr-tb;text-anchor:start;fill:#1e7d93;fill-opacity:1"
             id="path6392"
             inkscape:connector-curvature="0" />
          <path
             d="m 24.171307,355.74497 -0.390619,1.28905 q -0.09765,0.42968 -0.312496,1.15232 -1.054672,3.69136 -1.738256,4.84368 -0.136716,0.23438 -0.507805,0.68359 -1.269512,1.15232 -3.085892,1.15232 -1.445292,0 -2.324185,-0.62499 -0.878893,-0.64452 -0.878893,-1.6406 0,-0.72264 0.507805,-2.57809 0.507805,-1.87497 1.132796,-3.55463 -1.523416,-0.29297 -1.523416,-1.30858 0,-0.72264 0.468743,-1.62107 0.488275,-0.91795 1.21092,-1.6406 0.722646,-0.72264 1.40623,-0.93748 0.292964,-0.83983 1.113265,-3.53511 1.855441,-5.83976 3.007768,-7.83191 0.468744,-0.66406 0.80077,-1.03515 1.01561,-0.95701 2.597618,-0.95701 0.976549,0 1.718725,0.35155 0.761708,0.33203 1.152327,0.93749 0.41015,0.58593 0.41015,1.3867 0,1.11326 -2.792928,9.35533 -0.03906,0.13672 -0.136716,0.41015 -0.07812,0.2539 -0.156248,0.46874 l -0.07812,0.15625 7.206926,-0.15625 0.351557,-1.23045 q 0.60546,-1.99215 1.269513,-3.92572 0.664053,-1.9531 1.132796,-3.12495 0.488274,-1.19139 0.976548,-2.08982 0.488274,-0.89842 0.917956,-1.34763 1.01561,-1.11327 2.792928,-1.11327 3.04683,0 3.04683,2.63668 0,2.48043 -2.656211,9.04284 -0.390619,0.97655 -0.468743,1.19139 0.07812,-0.0195 0.136717,-0.0195 0.05859,-0.0195 0.136716,-0.0195 1.074203,0 1.699194,0.39062 0.624991,0.37109 0.624991,1.01561 0,0.42969 -0.527336,1.23046 -0.527336,0.80076 -1.132796,1.42576 -0.585929,0.60546 -1.01561,0.85936 -0.41015,0.21484 -1.601539,0.44921 l -0.07812,0.3125 q -0.136717,0.29296 -0.41015,1.0742 -0.410151,1.13279 -0.839832,2.28512 -0.429681,1.1328 -0.722646,1.77732 -0.273433,0.62499 -0.546867,1.05467 -0.332026,0.46874 -0.761707,0.80077 -0.937487,0.72265 -2.148406,1.19139 -1.21092,0.44921 -2.01169,0.44921 -0.917955,0 -1.445291,-0.44921 -0.527336,-0.44921 -0.527336,-1.26951 0,-1.40623 1.484353,-5.83976 0.351557,-0.97655 0.488274,-1.42576 z"
             style="font-style:normal;font-variant:normal;font-weight:normal;font-stretch:normal;font-size:39.99941635px;font-family:Forte;-inkscape-font-specification:'Forte, Normal';font-variant-ligatures:normal;font-variant-caps:normal;font-variant-numeric:normal;font-feature-settings:normal;text-align:start;writing-mode:lr-tb;text-anchor:start;fill:#2318c1;fill-opacity:1"
             id="path6396"
             inkscape:connector-curvature="0" />
          <path
             d="m 122.00053,365.57368 -0.14202,0.0783 q -1.49132,0.82184 -4.51986,3.86594 -2.23825,2.2433 -3.05492,2.69335 -0.56812,0.31309 -1.1119,0.18304 -0.55056,-0.14781 -0.74696,-0.66267 -0.32508,-0.85218 0.15955,-2.62327 0.49561,-1.79863 1.32308,-2.72733 1.21456,-1.37836 5.81279,-3.91238 1.82863,-1.00773 3.74275,-1.84771 1.91413,-0.83998 3.29654,-1.21507 1.39341,-0.40261 1.85941,-0.25118 0.24527,0.0797 0.46876,0.66557 0.20994,0.55037 0.44315,2.11925 0.2442,1.54133 0.34123,3.03485 0.48337,9.20896 -0.5592,17.34658 -0.25621,2.03195 -0.73004,3.32441 -0.4561,1.28267 -1.27258,2.18383 -0.8055,0.87361 -2.11929,1.59762 -1.8819,1.03708 -3.76839,1.21727 -1.89327,0.16242 -3.30151,-0.54405 -1.39727,-0.73401 -1.95939,-2.20758 -0.3928,-1.02971 -0.41369,-2.43628 -0.01,-1.4341 0.29665,-2.37654 0.13763,-0.48408 0.4927,-0.67976 0.58588,-0.32287 1.31068,-0.0562 0.72481,0.26664 1.83637,1.26553 1.63522,1.52677 3.26841,2.25968 0.18524,0.0913 0.78741,0.31808 0.12331,-2.32399 0.11341,-3.75809 0.001,-1.46164 -0.17834,-3.79069 -0.0793,-1.5033 -0.49796,-5.6987 -0.40822,-3.4921 -1.17684,-7.36574 z"
             style="font-style:normal;font-variant:normal;font-weight:normal;font-stretch:normal;font-size:39.99941635px;font-family:Forte;-inkscape-font-specification:'Forte, Normal';font-variant-ligatures:normal;font-variant-caps:normal;font-variant-numeric:normal;font-feature-settings:normal;text-align:start;writing-mode:lr-tb;text-anchor:start;fill:#234d98;fill-opacity:1"
             id="path6400"
             inkscape:connector-curvature="0" />
          <path
             d="m -69.799078,403.4309 q -0.371088,0.0976 -0.703115,0.19531 -0.312495,0.0781 -0.488274,0.13671 -0.175778,0.0391 -0.957017,0.27344 -3.359326,0.99608 -4.45306,0.99608 -1.054672,0 -1.718725,-0.39062 -0.644522,-0.41015 -0.644522,-1.11327 0,-1.15232 0.937487,-2.57809 0.957017,-1.42576 2.03122,-1.83591 1.01561,-0.39062 2.441371,-0.56639 1.42576,-0.19531 3.671821,-0.19531 4.45306,0 6.542873,0.5078 2.109344,0.50781 2.109344,1.58201 0,0.8203 -0.722645,4.06244 -0.703115,3.24214 -1.445292,5.78117 -2.929644,10.46859 -6.718652,17.38255 -0.839831,1.54295 -1.796848,2.61715 -0.957018,1.07421 -1.992159,1.60154 -1.01561,0.54687 -2.128875,0.54687 -1.582008,0 -3.105423,-2.30465 -1.503885,-2.30466 -1.503885,-4.80462 0,-1.83591 0.624991,-3.55464 0.644522,-1.73825 1.738256,-2.89058 0.624991,-0.58593 1.308575,-1.01561 0.703114,-0.42968 1.054672,-0.42968 0.312495,0 0.488274,0.35156 0.19531,0.35155 0.19531,1.01561 0,0.31249 -0.156248,1.11326 -0.683584,3.71089 -0.683584,6.3671 0,1.44529 0.312495,2.51949 0.703115,-1.19139 1.132796,-2.44137 1.113265,-3.55464 1.835911,-6.5624 1.171858,-4.94134 1.718725,-8.16395 0.546867,-3.24214 1.074203,-8.203 z"
             style="font-style:normal;font-variant:normal;font-weight:normal;font-stretch:normal;font-size:39.99941635px;font-family:Forte;-inkscape-font-specification:'Forte, Normal';font-variant-ligatures:normal;font-variant-caps:normal;font-variant-numeric:normal;font-feature-settings:normal;text-align:start;writing-mode:lr-tb;text-anchor:start"
             id="path6402"
             inkscape:connector-curvature="0" />
          <path
             d="m -10.866313,403.21398 5.072511,-1.95779 q 2.0351166,-0.63861 3.1140265,-0.89281 1.0789133,-0.25421 2.58321539,-0.38661 2.65244281,-0.28519 4.39953701,0.65447 1.3192352,0.70954 0.9541946,1.69005 -0.278759,0.74875 -0.9140676,1.30574 -0.6353095,0.55699 -1.4671091,0.83712 -1.4923379,0.50258 -5.2733955,0.7157 -2.8485419,0.1797 -4.5726411,0.55764 -0.277217,1.4343 -0.42586,2.63819 -0.124179,1.19565 -0.10859,2.1883 0.02222,0.97483 0.185754,2.4322 0.181745,1.63835 0.5500988,3.1203 0.9563498,3.63836 2.5585864,5.48437 0.4821112,0.60166 0.3958294,0.83342 -0.1659266,0.44568 -0.9890023,0.64491 -1.1386484,0.41466 -2.4878263,0.24534 -1.3313541,-0.15972 -2.5257961,-0.80214 -2.1749551,-1.16978 -3.4794461,-3.24081 -1.297852,-2.08886 -1.454976,-4.65544 -0.200189,-2.9107 0.720061,-6.41704 0.141081,-0.60883 0.399927,-1.30409 l -0.07131,-0.0384 q -1.122515,0.6587 -1.688985,1.14573 -0.559829,0.46919 -1.867804,1.79846 -1.605326,1.72564 -2.720823,2.5379 -1.108857,0.79443 -2.254527,1.05553 -1.085549,0.27204 -2.263089,0.21643 -1.177544,-0.0556 -1.83716,-0.41037 -0.481343,-0.25889 -0.669495,-0.78803 -0.181515,-0.54697 0.01096,-1.06397 0.119469,-0.32089 0.221493,-0.47999 2.092308,-2.91874 4.360422,-5.84992 2.292576,-2.93941 4.468157,-5.44962 2.182218,-2.52803 3.852218,-4.1975 1.670003,-1.66947 2.370369,-1.99889 0.816055,-0.3528 2.0918411,-0.15876 1.2824221,0.17621 2.4946911,0.82822 1.1053047,0.59447 1.4559872,1.14684 0.3573226,0.53453 0.1051109,1.21198 -0.3451303,0.92703 -4.1728832,5.11629 -0.2641731,0.30726 -0.8659091,0.94649 -0.577276,0.63101 -0.841448,0.93826 l 0.03814,0.12744 z"
             style="font-style:normal;font-variant:normal;font-weight:normal;font-stretch:normal;font-size:39.99941635px;font-family:Forte;-inkscape-font-specification:'Forte, Normal';font-variant-ligatures:normal;font-variant-caps:normal;font-variant-numeric:normal;font-feature-settings:normal;text-align:start;writing-mode:lr-tb;text-anchor:start;fill:#1f68a2;fill-opacity:1"
             id="path6406"
             inkscape:connector-curvature="0" />
          <path
             d="m 83.945992,402.89273 0.409427,1.67311 q 0.766992,3.24424 1.652004,6.3307 0.429261,1.49144 1.670627,5.00648 1.112926,-1.42327 2.8115,-4.05616 1.091948,-1.69257 1.364395,-1.9954 0.501878,-0.55785 0.81079,-0.15636 0.364079,0.4732 0.466812,1.95516 0.106039,1.45168 -0.10784,2.83331 -0.131179,0.97049 -0.930839,2.17856 -0.799659,1.20807 -2.778473,3.40758 -1.849762,2.05607 -2.941765,3.05705 -0.01434,0.0159 -0.583523,0.38258 -1.082125,0.56435 -1.920611,-0.52543 -0.606798,-0.78866 -1.77306,-3.37628 -1.151922,-2.60356 -2.68567,-6.67148 -3.389707,-9.10783 -3.658031,-11.84226 -0.114815,-0.90987 0.126692,-1.73697 0.244815,-0.85737 0.944099,-1.95387 0.670605,-1.06462 1.717368,-2.22813 0.975071,-1.08382 1.560818,-1.25606 0.589059,-0.20251 1.063466,0.41407 0.452342,0.58791 1.182825,2.78204 0.719457,2.17977 1.598989,5.77776 z"
             style="font-style:normal;font-variant:normal;font-weight:normal;font-stretch:normal;font-size:39.99941635px;font-family:Forte;-inkscape-font-specification:'Forte, Normal';font-variant-ligatures:normal;font-variant-caps:normal;font-variant-numeric:normal;font-feature-settings:normal;text-align:start;writing-mode:lr-tb;text-anchor:start;fill:#32195d;fill-opacity:1"
             id="path6410"
             inkscape:connector-curvature="0" />
          <path
             d="m -38.998397,445.97163 0.39062,-0.87889 q 4.609307,-10.41 6.67959,-13.53496 0.332026,-0.42968 0.566398,-0.66405 0.234371,-0.2539 0.527336,-0.44921 0.312495,-0.19531 0.800769,-0.39062 1.40623,-0.60546 3.63276,-0.60546 1.152327,0 1.445291,0.19531 0.312496,0.19531 0.312496,0.87889 0,0.52734 -0.03906,1.1328 -0.156248,3.51557 -0.156248,4.99992 0,3.74995 0.507805,7.10927 0.332027,1.87498 0.976548,3.80854 0.683584,1.71873 1.308575,2.63668 0.742177,1.01561 1.249982,1.48436 0.624991,0.62499 0.624991,0.95701 0,0.60546 -1.035141,1.6406 -1.738256,1.67967 -3.476512,1.67967 -2.441371,0 -4.433529,-2.08982 -1.01561,-1.01561 -1.62107,-2.24606 -0.585929,-1.24998 -0.878894,-3.06636 -0.292964,-1.83591 -0.390619,-4.64837 -0.136717,-3.04683 -0.156248,-3.43745 h -0.07812 q -1.23045,2.36325 -2.050751,3.94526 -0.820301,1.582 -1.347637,2.61715 -0.507805,1.03514 -1.210919,2.48043 -2.22653,4.60931 -2.910114,5.56632 -0.03906,0.0391 -0.156248,0.17578 -0.117186,0.13672 -0.214841,0.21484 -0.332026,0.3125 -0.761707,0.48828 -0.41015,0.15624 -0.703115,0.15624 -0.8203,0 -1.81638,-1.01561 -0.976548,-1.03514 -1.718725,-2.65621 -0.761707,-1.71872 -1.249981,-3.49604 -0.468743,-1.79685 -0.839832,-4.23822 -0.351557,-2.4609 -0.624991,-5.99601 h -0.07812 q -0.585929,1.28905 -0.878893,1.93357 -0.292964,0.64452 -0.898424,1.99216 -0.60546,1.34764 -0.703115,1.56248 -0.80077,1.77731 -1.679663,3.59369 -0.878894,1.81638 -1.425761,2.79293 -0.527336,0.97655 -1.171857,1.93357 -0.292965,0.44921 -1.035142,1.26951 -1.152327,1.09373 -2.519494,1.71872 -1.367168,0.60546 -2.597618,0.60546 -0.468744,0 -0.820301,-0.23437 -0.351557,-0.23437 -0.351557,-0.60546 0,-0.33202 0.527336,-0.87889 0.292964,-0.35156 1.269512,-1.79685 l 1.132796,-1.75779 q 1.054673,-1.56247 3.183548,-5.60538 l 0.937486,-1.75779 q 3.281202,-6.28897 4.433529,-8.59362 1.152327,-2.32419 1.152327,-2.69528 0,-0.41015 -0.585929,-0.91795 -0.449212,-0.37109 -0.449212,-0.64452 0,-0.42969 1.132796,-0.80077 1.132796,-0.39062 2.460901,-0.39062 2.675743,0 3.808539,1.19139 0.703114,0.74217 1.308574,2.92964 0.60546,2.16794 1.21092,6.3085 0.03906,0.23437 0.05859,0.37109 0.01953,0.11719 0.03906,0.21484 0.01953,0.0977 0.01953,0.2539 0.117186,0.54687 0.117186,0.72265 0.41015,2.51949 0.624991,3.26167 0.21484,0.72265 0.62499,1.26951 z"
             style="font-style:normal;font-variant:normal;font-weight:normal;font-stretch:normal;font-size:39.99941635px;font-family:Forte;-inkscape-font-specification:'Forte, Normal';font-variant-ligatures:normal;font-variant-caps:normal;font-variant-numeric:normal;font-feature-settings:normal;text-align:start;writing-mode:lr-tb;text-anchor:start;fill:#0a27f5;fill-opacity:1"
             id="path6412"
             inkscape:connector-curvature="0" />
          <path
             d="m 16.371887,446.88959 1.347636,-3.69135 1.855442,-4.70697 q 0.957017,-2.55855 1.718725,-4.04291 0.546867,-1.05467 0.546867,-1.48435 0,-0.5664 -0.917955,-1.23045 -0.60546,-0.41015 -0.60546,-0.72265 0,-0.39062 1.21092,-0.83983 1.035141,-0.42968 2.363246,-0.74217 1.328106,-0.33203 2.148407,-0.33203 1.640601,0 2.480432,0.87889 0.976548,0.99608 2.402309,6.19132 0.585929,2.10934 1.289044,4.08197 0.722645,1.97263 1.191388,2.83199 0.136717,0.3125 0.722646,1.21092 0.644522,-2.05075 1.523415,-5.37102 1.289044,-5.23429 2.363247,-7.0702 0.332027,-0.58593 0.761708,-1.03515 0.800769,-0.74217 1.718725,-1.13279 0.937486,-0.39062 1.874972,-0.39062 0.566398,0 0.781239,0.29296 0.214841,0.29297 0.214841,1.05468 0,0.56639 -0.07812,0.83983 -0.19531,1.01561 -0.683584,2.63668 -0.488274,1.60154 -1.386699,4.14056 -0.878893,2.5195 -2.206999,6.11319 l -0.292964,0.72265 q -0.156248,0.46874 -0.273434,0.76171 -2.363246,6.62099 -3.593697,8.59362 -0.253903,0.41015 -0.60546,0.76171 -0.60546,0.60546 -1.191389,0.60546 -1.503884,0 -3.24214,-3.20308 -3.164016,-5.7421 -4.960865,-11.7967 -0.371089,-1.1328 -0.566398,-2.12888 h -0.07812 l -2.363247,7.4413 q -0.03906,0.19531 -0.156248,0.50781 -0.117185,0.29296 -0.195309,0.56639 -0.07812,0.21484 -0.19531,0.48828 -0.09766,0.2539 -0.175779,0.42968 -0.644521,1.9531 -1.054672,2.94917 -0.41015,0.97655 -0.8203,1.62107 -0.351558,0.60546 -1.035141,1.30858 -0.99608,0.91795 -2.206999,1.44529 -1.21092,0.52734 -2.402309,0.52734 -0.996079,0 -0.996079,-0.80077 0,-0.60546 0.878893,-2.08982 1.01561,-1.69919 2.285123,-4.6679 0.214841,-0.62499 0.60546,-1.52341 z"
             style="font-style:normal;font-variant:normal;font-weight:normal;font-stretch:normal;font-size:39.99941635px;font-family:Forte;-inkscape-font-specification:'Forte, Normal';font-variant-ligatures:normal;font-variant-caps:normal;font-variant-numeric:normal;font-feature-settings:normal;text-align:start;writing-mode:lr-tb;text-anchor:start;fill:#1b0faf;fill-opacity:1"
             id="path6416"
             inkscape:connector-curvature="0" />
          <path
             d="m 109.61312,484.04547 q -1.34763,1.34763 -1.97262,2.22653 -0.60546,0.85936 -1.30858,2.48043 -0.52733,1.17186 -0.76171,2.48043 -0.29296,1.15233 -0.29296,2.96871 0,2.55856 0.48827,4.27728 0.48828,1.69919 1.44529,2.57809 0.95702,0.85936 2.30466,0.85936 1.09373,0 2.22653,-0.80077 1.15233,-0.80077 2.07028,-2.08981 0.93749,-1.30858 1.50389,-2.91012 0.56639,-1.60154 0.56639,-3.08589 0,-2.67574 -1.83591,-5.58585 -0.68358,-1.17186 -0.68358,-1.60154 0,-0.80077 0.87889,-1.60154 0.99608,-0.95702 2.28513,-1.6992 1.28904,-0.74217 2.03122,-0.74217 0.42968,0 0.89842,0.21484 0.48827,0.19531 0.74218,0.5078 0.62499,0.64452 1.03514,2.38278 0.41015,1.71873 0.41015,3.65229 0,4.60931 -1.89451,8.5155 -1.87497,3.88666 -5.11711,6.17179 -3.22261,2.26559 -6.99208,2.26559 -2.16794,0 -4.29682,-0.80077 -2.12887,-0.80077 -3.456978,-2.14841 -2.24606,-2.24606 -2.24606,-5.87882 0,-2.10934 0.8203,-4.47259 0.820301,-2.36325 2.246058,-4.58978 1.44529,-2.24606 3.32027,-4.1015 1.8945,-1.85544 3.88666,-2.92964 1.81638,-0.97655 3.90619,-1.56248 2.08982,-0.58593 3.67182,-0.58593 2.22653,0 2.22653,0.68358 0,0.27344 -0.46874,0.83984 -0.85936,0.80077 -1.50388,1.13279 -0.62499,0.33203 -2.07029,0.74218 -1.56247,0.46874 -2.26559,0.85936 -0.70311,0.37109 -1.79685,1.34764 z"
             style="font-style:normal;font-variant:normal;font-weight:normal;font-stretch:normal;font-size:39.99941635px;font-family:Forte;-inkscape-font-specification:'Forte, Normal';font-variant-ligatures:normal;font-variant-caps:normal;font-variant-numeric:normal;font-feature-settings:normal;text-align:start;writing-mode:lr-tb;text-anchor:start;fill:#256da5;fill-opacity:1"
             id="path6420"
             inkscape:connector-curvature="0" />
          <path
             d="m -74.271669,471.85294 0.273434,-0.68359 q -0.644522,0 -1.093734,0.11719 -0.449213,0.0976 -1.054672,0.33202 -0.742177,0.27344 -1.015611,0.27344 -0.332026,0 -0.546867,-0.2539 -0.21484,-0.25391 -0.21484,-0.625 0,-0.7617 0.60546,-1.56247 0.624991,-0.8203 1.523415,-1.15233 1.171858,-0.46874 3.007769,-0.74218 1.855441,-0.29296 3.671821,-0.29296 2.050751,0 3.671821,0.29296 1.640601,0.29297 2.910114,0.93749 1.269513,0.64452 2.22653,1.60154 0.957017,0.95702 1.464823,2.22653 0.527336,1.26951 0.527336,2.69527 0,1.28905 -0.527336,2.89058 -0.507806,1.60154 -1.425761,3.12496 -0.917955,1.52341 -2.011689,2.57809 -1.269513,1.23045 -3.22261,2.08981 -1.933565,0.83983 -3.535104,0.83983 -0.683584,0 -1.21092,-0.23437 -0.507805,-0.2539 -0.507805,-0.60546 0,-0.54687 0.41015,-1.01561 0.41015,-0.48827 1.503884,-1.19139 0.937487,-0.54687 1.757787,-1.30857 0.976549,-1.07421 1.425761,-2.28513 0.468743,-1.21092 0.468743,-2.89058 0,-1.60154 -0.546867,-2.7148 -0.546867,-1.11327 -1.777318,-1.99216 l -2.675742,8.67175 -0.488274,1.52341 q -0.312496,0.89843 -0.839832,3.08589 -0.957017,3.76948 -1.796849,5.2343 -0.371088,0.64452 -0.957017,1.26952 -0.937486,0.8203 -2.382778,1.44529 -1.42576,0.60546 -2.460901,0.60546 -0.683584,0 -1.093734,-0.39062 -0.390619,-0.41015 -0.390619,-1.1328 0,-0.80077 0.390619,-2.34371 0.41015,-1.54295 1.660132,-5.52727 l 0.351557,-1.09373 0.371089,-1.19139 z"
             style="font-style:normal;font-variant:normal;font-weight:normal;font-stretch:normal;font-size:39.99941635px;font-family:Forte;-inkscape-font-specification:'Forte, Normal';font-variant-ligatures:normal;font-variant-caps:normal;font-variant-numeric:normal;font-feature-settings:normal;text-align:start;writing-mode:lr-tb;text-anchor:start;fill:#123acf;fill-opacity:1"
             id="path6422"
             inkscape:connector-curvature="0" />
          <path
             d="m 7.3615428,534.6331 q -1.1523261,0.83983 -2.4413702,1.46482 -1.2890441,0.60546 -2.6171491,0.93749 -1.32810609,0.3125 -2.42184019,0.3125 -2.85152021,0 -5.09758131,-1.1328 -2.2460612,-1.15233 -3.496043,-3.22261 -1.2499817,-2.08981 -1.2499817,-4.68743 0,-2.24606 0.9179553,-4.96087 0.9179552,-2.7148 2.4804323,-5.07805 0.488274,-0.70311 1.1523271,-1.50388 0.683584,-0.8203 1.40623,-1.42576 0.7226451,-0.62499 1.5624772,-1.19139 1.60153912,-1.0742 3.5936972,-1.91403 1.9921581,-0.83984 4.0038482,-1.28905 2.0116892,-0.46874 3.8085383,-0.46874 1.2304501,0 1.7187251,0.23437 0.488274,0.23437 0.488274,0.80077 0,0.5078 -0.566398,1.0742 -0.6054601,0.54687 -2.6366812,1.09374 -2.6366802,0.64452 -4.3554053,1.62107 -1.6991931,0.97655 -2.77339709,2.42184 -1.3281051,1.77731 -2.14840521,4.14056 -0.80077,2.34372 -0.80077,4.414 0,2.75387 1.42576012,4.68743 1.44529209,1.91404 3.57416718,1.91404 1.2695121,0 2.4413701,-0.76171 -0.03906,-0.0977 -0.292964,-0.44921 -0.742177,-1.23046 -1.4062301,-1.83592 -0.644521,-0.62499 -1.6991931,-1.0742 -0.742177,-0.35156 -1.01561099,-0.60546 -0.2734331,-0.27343 -0.2734331,-0.64452 0,-0.52734 0.76170709,-0.91796 0.781239,-0.39061 1.9140351,-0.39061 1.4062291,0 2.6562112,0.60546 1.2695131,0.60546 2.7148042,1.95309 0.371088,-1.09373 0.390619,-1.17186 0.332027,-0.99608 0.332027,-2.51949 0,-1.23045 -0.214841,-2.207 -0.21484,-0.97655 -0.644522,-1.87497 -0.4296811,-0.89843 -1.2304501,-1.9531 -0.8007701,-1.01561 -0.8007701,-1.56248 0,-1.30857 2.0507512,-2.55855 1.6015391,-0.95702 2.7538661,-0.95702 1.81638,0 2.812459,1.6406 1.01561,1.62107 1.01561,4.51165 0,3.51558 -1.582008,6.9335 -0.761707,1.56247 -2.44137,4.00384 0.60546,0.5664 1.113265,0.8789 0.507805,0.29296 1.191389,0.54687 0.703114,0.23437 2.128875,0.56639 -0.05859,0.64452 -0.312496,1.48436 -0.253902,0.8203 -0.60546,1.50388 -0.332026,0.68358 -0.683583,0.97655 -0.449213,0.39062 -1.269513,0.39062 -1.484353,0 -2.7343351,-0.64452 -1.249982,-0.64453 -2.5976191,-2.10935 z"
             style="font-style:normal;font-variant:normal;font-weight:normal;font-stretch:normal;font-size:39.99941635px;font-family:Forte;-inkscape-font-specification:'Forte, Normal';font-variant-ligatures:normal;font-variant-caps:normal;font-variant-numeric:normal;font-feature-settings:normal;text-align:start;writing-mode:lr-tb;text-anchor:start;fill:#101f3e;fill-opacity:1"
             id="path6426"
             inkscape:connector-curvature="0" />
          <path
             d="m 76.693212,475.90399 0.389397,1.39518 q 0.387173,-0.53183 0.768527,-1.1384 0.235534,-0.38261 0.726789,-0.95395 0.687758,-0.79987 1.241437,-0.11211 0.23729,0.29475 0.385242,0.88364 0.145222,0.61925 0.09014,1.09098 -0.118372,1.03452 -1.439063,3.14123 -1.334728,2.12303 -3.440109,4.57162 -1.614125,1.87725 -3.424141,3.13983 -1.824053,1.2789 -3.512252,1.74755 -1.676908,0.48267 -3.068677,0.17174 -1.39451,-0.28059 -2.332372,-1.44556 -1.005662,-1.2492 -1.356393,-2.93395 -0.339446,-1.67071 -0.02908,-3.58078 0.20223,-1.26794 0.523638,-2.18529 0.321408,-0.91736 1.097437,-2.41779 -0.662163,-0.1811 -1.073358,-0.21925 -0.42523,-0.0218 -1.286632,0.056 -2.178493,0.33224 -5.282286,2.1483 -0.157473,0.0745 -0.371115,0.21419 -0.707813,-1.48688 -0.923926,-2.29546 -0.216106,-0.80859 -0.258665,-2.00925 -0.05634,-2.16302 1.164783,-3.58321 0.673722,-0.78354 2.06575,-1.45129 1.389298,-0.63738 2.563286,-0.69824 0.954537,0.004 1.895396,0.16007 0.926816,0.17225 2.003268,0.49662 1.087751,0.3384 2.018013,0.75124 0.927526,0.44321 1.542464,0.86947 0.118468,0.0796 0.287964,0.29019 0.237291,0.29475 0.204454,0.65907 -0.03284,0.36431 -0.368989,1.02704 -0.450825,0.95915 -0.643173,1.69922 -0.181049,0.75411 -0.335346,2.04784 -0.08032,1.58817 0.351541,3.06985 0.42913,1.51206 1.276594,2.56475 1.005656,1.24919 2.134806,1.26766 1.140449,0.0325 2.629668,-1.15592 -2.329669,-5.79708 -4.269331,-11.04219 l -0.56401,-1.40953 q -1.304056,-3.37531 -1.781822,-5.18409 -0.491802,-1.79245 -0.396034,-2.85505 0.09577,-1.06259 0.750246,-2.74778 0.654466,-1.68519 1.243973,-2.3708 1.150941,-1.33856 2.190499,-0.0473 0.429385,0.53337 1.160154,2.18379 0.728033,1.68079 1.751975,4.53936 1.035249,2.87261 1.935249,5.71225 0.885969,2.85598 1.764086,5.93851 z"
             style="font-style:normal;font-variant:normal;font-weight:normal;font-stretch:normal;font-size:39.99941635px;font-family:Forte;-inkscape-font-specification:'Forte, Normal';font-variant-ligatures:normal;font-variant-caps:normal;font-variant-numeric:normal;font-feature-settings:normal;text-align:start;writing-mode:lr-tb;text-anchor:start;fill:#195a5d;fill-opacity:1"
             id="path6430"
             inkscape:connector-curvature="0" />
          <path
             d="m -53.636352,550.39406 q -2.192504,-0.13594 -3.394704,-0.68319 -1.212016,-0.56283 -1.967333,-1.76178 -1.137884,-1.80621 -1.048484,-4.38641 0.104971,-2.59437 1.353761,-5.20081 1.264361,-2.62061 3.381987,-4.54788 2.397899,-2.18235 4.318072,-2.36203 1.920177,-0.17966 3.067869,1.64212 0.549322,0.87196 0.67076,2.23134 0.121439,1.35938 -0.193726,2.92013 -0.207414,1.0707 -0.50373,1.80585 -0.306125,0.71959 -0.633111,1.01718 -0.40484,0.36845 -0.797215,-0.25438 0.0098,0.0155 -0.241809,-0.53938 -0.367613,-0.81685 -0.730561,-1.39297 -0.510086,-0.80968 -1.269304,-1.39262 -0.753457,-0.61269 -1.486057,-0.80339 -0.726833,-0.22044 -1.06939,0.0913 -0.171279,0.15588 -0.222508,0.61898 -0.145753,0.8186 0.03268,1.68514 0.168622,0.85096 0.521762,1.41152 0.441419,0.70068 1.026404,1.12372 0.575177,0.40746 1.465812,0.57681 0.89064,0.16936 2.186742,0.16569 2.053454,-0.007 3.313274,0.24284 1.275387,0.23566 2.161508,0.8256 0.876308,0.57437 1.523728,1.60205 1.137883,1.80621 1.247473,4.35229 0.109595,2.54608 -0.805829,5.0206 -0.909662,2.44478 -2.575736,3.96109 -1.588219,1.44546 -3.530195,2.13494 -1.941976,0.68949 -4.069859,0.61723 -2.22364,-0.1076 -2.880869,-1.15084 -0.402183,-0.6384 -0.177489,-1.79834 0.230462,-1.18967 0.858904,-2.44758 0.644012,-1.27208 1.266843,-1.83892 0.358129,-0.32594 0.724972,-0.36583 0.357035,-0.0555 0.818548,0.21047 0.467275,0.23619 1.11516,0.79796 0.953075,0.774 1.525914,1.06109 0.563031,0.27153 1.328482,0.35883 0.761405,0.042 1.275241,-0.42566 0.622831,-0.56684 0.676869,-1.37547 0.04423,-0.8242 -0.495284,-1.68059 -0.843607,-1.33909 -2.637027,-1.81374 -0.564746,-0.19647 -1.123108,-0.22727 -0.552601,-0.0605 -2.301494,-0.0367 -0.519127,0.0315 -1.707944,0.011 z"
             style="font-style:normal;font-variant:normal;font-weight:normal;font-stretch:normal;font-size:39.99941635px;font-family:Forte;-inkscape-font-specification:'Forte, Normal';font-variant-ligatures:normal;font-variant-caps:normal;font-variant-numeric:normal;font-feature-settings:normal;text-align:start;writing-mode:lr-tb;text-anchor:start;fill:#224ea9;fill-opacity:1"
             id="path6432"
             inkscape:connector-curvature="0" />
          <path
             d="m 41.12114,562.66098 0.174838,0.84632 q 0.09142,0.43166 0.15174,0.7498 0.0523,0.30116 0.09754,0.53976 0.05421,0.21004 0.09944,0.44865 1.246012,6.06635 1.115812,7.88405 -0.0672,0.80925 -0.530286,1.7312 -1.483176,2.85234 -2.706352,3.68621 -0.849427,0.57908 -1.732631,0.37285 -0.874236,-0.2348 -1.307145,-1.15219 -0.785649,-1.66487 -1.441082,-7.14587 -0.231712,-1.72816 -0.371996,-3.02466 -0.123297,-1.30808 -0.238956,-2.98064 -0.09867,-1.68413 -0.158586,-3.61923 -0.04293,-1.94667 -0.05972,-2.74357 -2.090168,1.85155 -4.162772,3.2645 -2.089592,1.42454 -2.779039,-0.0365 -0.440925,-0.93436 0.236724,-3.30492 0.476457,-1.55978 1.089576,-2.44929 0.605104,-0.9065 1.70936,-1.6593 0.713519,-0.48642 1.977737,-1.28091 1.256214,-0.81144 3.536862,-2.16418 l 0.491728,-0.29027 0.482745,-0.26174 q 1.916839,-1.17204 2.575575,-1.44149 0.658734,-0.26944 1.267834,-0.16824 0.524159,0.1591 0.764664,0.66876 0.256539,0.54363 0.308263,1.27181 0.06069,0.6996 -0.116834,1.17988 -0.200241,0.76522 -2.018593,2.43146 -0.169885,0.11582 -0.34071,0.27723 l -0.307713,0.29956 q 0.600128,0.12977 0.832617,0.62244 0.224469,0.47567 0.494356,2.37989 0.03149,0.49498 0.480038,3.06328 l 0.226182,1.19304 z"
             style="font-style:normal;font-variant:normal;font-weight:normal;font-stretch:normal;font-size:39.99941635px;font-family:Forte;-inkscape-font-specification:'Forte, Normal';font-variant-ligatures:normal;font-variant-caps:normal;font-variant-numeric:normal;font-feature-settings:normal;text-align:start;writing-mode:lr-tb;text-anchor:start;fill:#20428a;fill-opacity:1"
             id="path6436"
             inkscape:connector-curvature="0" />
          <path
             d="m 99.193514,561.48121 0.0321,-0.0268 -0.06412,0.0536 q 0.0061,3.1352 -0.156356,5.19799 -0.16244,2.06277 -0.513776,3.59354 -0.432398,1.88403 -1.14315,3.28702 -0.720024,1.38696 -1.650017,2.16436 -1.956196,1.63523 -3.723825,1.37616 -1.776908,-0.2751 -3.010883,-2.40767 -1.595818,-2.75792 -3.187443,-9.37332 -0.516761,-2.20873 -0.887588,-4.20638 -0.370832,-1.99764 -0.605823,-3.9661 -0.234995,-1.96847 -0.250834,-2.85924 -7.19e-4,-0.61795 0.260974,-1.19355 0.268447,-0.60505 0.929282,-1.39536 1.024581,-1.18952 2.034745,-2.03394 1.699643,-1.42078 2.55322,0.0544 0.482456,0.83378 0.716542,3.08848 0.251833,2.12091 0.535031,3.59706 0.02357,0.12305 0.08259,0.43055 0.04968,0.29153 0.132317,0.72204 0.252027,1.21673 0.852286,3.56978 0.600258,2.35303 1.090998,3.94117 0.490736,1.58816 0.722684,1.98902 0.343283,0.59326 0.680005,0.31179 0.368788,-0.30828 0.702658,-3.06154 0.316127,-2.61946 0.477238,-6.37024 0.167863,-3.7802 0.08999,-6.54612 -0.04096,-1.79758 0.0039,-2.50121 0.05162,-0.73307 0.233144,-1.24166 0.487977,-1.33572 1.64246,-2.30078 1.475162,-1.23313 2.254517,0.11376 0.15772,0.27259 0.55325,1.20283 1.58968,3.85738 3.30611,6.82374 0.77935,1.34689 1.49046,2.37017 0.71112,1.02329 1.47449,1.93152 0.76341,0.9082 1.70402,1.83481 1.23669,1.27386 1.4408,1.62662 0.14845,0.25654 0.10197,0.62847 -0.0339,0.59928 -0.64833,1.46975 -1.08881,1.69525 -1.8264,2.31182 -0.93,0.77741 -2.15346,0.80094 -1.20742,0.0101 -2.45773,-0.75275 -1.45108,-0.90432 -2.97952,-3.05243 -0.270787,-0.34461 -0.838446,-1.20233 z"
             style="font-style:normal;font-variant:normal;font-weight:normal;font-stretch:normal;font-size:39.99941635px;font-family:Forte;-inkscape-font-specification:'Forte, Normal';font-variant-ligatures:normal;font-variant-caps:normal;font-variant-numeric:normal;font-feature-settings:normal;text-align:start;writing-mode:lr-tb;text-anchor:start;fill:#376cd9;fill-opacity:1"
             id="path6440"
             inkscape:connector-curvature="0" />
          <path
             d="m -60.348218,610.84646 q -0.126096,-1.7092 -0.06568,-3.15611 0.07125,-1.46643 0.287922,-1.85708 0.335848,-0.60551 1.133557,0.0337 0.932915,0.74753 1.854733,1.93759 0.919125,1.15969 1.667692,2.52127 1.294489,2.27865 2.677733,5.4184 1.369718,3.1289 2.282517,5.77883 0.564385,1.69363 1.279753,4.24179 0.539859,1.98432 0.614825,3.25756 0.07228,1.24288 -0.228907,2.66614 -0.292948,1.23236 -0.609988,2.05043 -0.390196,0.98516 -0.693543,1.53206 -0.54169,0.97662 -1.147858,1.22446 -0.782023,0.24799 -2.172381,-0.13254 -1.687897,-0.47788 -4.251929,-1.62959 -2.553206,-1.17124 -4.308357,-2.26727 -1.222389,-0.75378 -3.277502,-2.40053 -3.745164,-3.00096 -3.906365,-4.82293 -0.05642,-0.63769 0.182533,-2.05439 0.236266,-1.44706 0.640155,-2.70338 0.314443,-0.98943 0.639458,-1.5754 0.801701,-1.4454 1.91038,-0.55702 0.581379,0.46585 2.146894,1.9742 3.179727,2.9993 5.086116,4.52687 3.326036,2.66512 5.216565,3.5875 0.927708,0.4048 1.303687,0.53679 -0.264339,-1.28393 -0.561353,-2.22726 -0.2997,-0.97369 -0.688674,-1.96249 -0.821192,-2.04047 -1.348139,-3.02698 -1.429349,-2.95098 -3.367541,-5.54793 -1.403007,-1.80134 -1.783742,-2.98103 -0.345722,-0.92594 -0.512557,-2.38565 z"
             style="font-style:normal;font-variant:normal;font-weight:normal;font-stretch:normal;font-size:39.99941635px;font-family:Forte;-inkscape-font-specification:'Forte, Normal';font-variant-ligatures:normal;font-variant-caps:normal;font-variant-numeric:normal;font-feature-settings:normal;text-align:start;writing-mode:lr-tb;text-anchor:start;fill:#4359f7;fill-opacity:1"
             id="path6442"
             inkscape:connector-curvature="0" />
          <path
             d="m 21.496217,623.57607 -0.06117,0.0584 q 0.338426,3.41829 0.332424,6.54184 -0.01824,3.70893 -0.340605,5.78763 -0.21212,1.0755 -0.780373,2.29147 -0.578365,1.20068 -1.190103,1.78471 -0.152935,0.14601 -0.473562,0.30247 -0.315444,0.12656 -0.58966,0.089 -1.335846,-0.0965 -4.104196,-3.11548 -2.778456,-3.03428 -6.0631769,-8.00465 -2.6682028,-4.03747 -2.9510561,-5.93744 -0.1292548,-0.79947 0.086981,-1.60454 0.2162411,-0.80507 0.8860989,-2.01827 0.5830161,-1.08041 1.282657,-2.09757 0.7149396,-1.03176 1.2043303,-1.49899 0.4282167,-0.40882 0.8144056,-0.42833 0.4014883,-0.0341 0.6541572,0.34823 0.101069,0.15294 0.211716,0.47133 0.618773,1.72891 2.051545,4.57632 0.933153,1.90268 1.564165,3.04622 0.631011,1.14354 1.792763,3.05246 1.161758,1.90891 2.33907,3.72814 l 0.101586,0.003 q 0.102006,-1.54406 0.06332,-3.52748 -0.02792,-0.72162 -0.03071,-1.36746 -0.0028,-0.64585 -0.05066,-1.47314 -0.125262,-1.9257 -0.363034,-3.64423 -0.08856,-0.81337 -0.248408,-1.58365 -1.081665,-7.29814 -0.684426,-8.99935 0.175548,-0.79116 1.084909,-2.20808 0.914553,-1.44682 1.816867,-2.30827 0.581152,-0.55483 1.145412,-0.64457 0.554155,-0.10503 0.847249,0.33847 0.26278,0.39763 0.638188,1.98474 0.730875,3.06856 2.035313,6.28792 1.319738,3.20476 2.734692,5.34584 2.880452,4.35864 4.578025,2.73794 0.489391,-0.46722 0.508945,-1.68314 0.01955,-1.21592 -0.376602,-2.68346 -0.380863,-1.48213 -1.141928,-3.1999 -0.755884,-1.74767 -1.806995,-3.33819 -0.626625,-0.94819 -1.577466,-2.16053 -0.263041,-0.32255 -0.465178,-0.62842 -1.111754,-1.68228 -0.393213,-5.16186 0.326227,-1.73317 0.769737,-2.1566 1.055249,-1.00746 3.683026,2.96884 1.869766,2.82929 2.966082,5.99792 1.287017,3.83462 1.37636,7.29116 0.07473,1.84924 -0.186464,3.86953 -0.245906,2.00569 -0.759502,3.56857 -0.652309,1.99461 -2.013426,3.29408 -2.508127,2.39455 -5.015171,1.62035 -2.517155,-0.78949 -5.215682,-4.87285 z"
             style="font-style:normal;font-variant:normal;font-weight:normal;font-stretch:normal;font-size:39.99941635px;font-family:Forte;-inkscape-font-specification:'Forte, Normal';font-variant-ligatures:normal;font-variant-caps:normal;font-variant-numeric:normal;font-feature-settings:normal;text-align:start;writing-mode:lr-tb;text-anchor:start;fill:#142de5;fill-opacity:1"
             id="path6446"
             inkscape:connector-curvature="0" />
          <path
             d="m 113.01384,617.63589 -0.0393,-0.757 q -0.0885,-0.54912 -0.19119,-2.11699 -0.19531,-2.60387 -0.34837,-3.64825 -0.12884,-1.05365 -0.39831,-1.6911 -0.18609,-0.32271 -0.46265,-0.68958 -0.35458,-0.51035 -0.31178,-0.63702 0.0428,-0.12667 0.24846,-0.17385 0.43578,-0.16674 1.9573,0.19649 1.52764,0.34512 2.66767,0.90158 1.53815,0.75077 2.36099,2.05885 0.84706,1.29881 1.36322,3.76415 0.75334,3.6351 0.80016,8.675 1.08993,-0.54308 2.05931,-1.16608 0.97548,-0.6411 2.15738,-1.51874 1.46654,-1.03382 1.79373,-1.25355 0.35142,-0.22899 0.84198,-0.49546 0.51475,-0.27576 1.18676,-0.58015 0.99236,-0.31666 2.30946,-0.22186 1.33519,0.10363 2.23998,0.54527 0.8505,0.41513 0.59983,1.15705 -0.16508,0.48859 -1.35309,1.38432 -1.1699,0.90456 -3.4899,2.28068 -2.31388,1.35803 -6.06274,3.40692 -0.0546,0.0366 -0.3634,0.20207 -0.29076,0.17427 -0.65416,0.37634 -0.35727,0.18397 -0.6116,0.31279 0.21366,2.54957 0.63668,4.10517 0.28559,1.15124 0.65017,2.19347 0.3707,1.02415 0.86832,2.04699 0.54505,1.25681 1.38061,2.40244 0.30029,0.48386 0.24526,0.64672 -0.0795,0.23524 -0.4485,0.32916 -0.76859,0.27833 -1.82648,0.35221 -1.05177,0.0558 -1.99399,-0.0879 -0.91799,-0.15296 -1.65993,-0.5151 -2.31625,-1.13057 -3.63524,-3.84021 -0.44919,-1.04138 -0.65166,-1.81476 -0.19634,-0.79148 -0.41369,-2.39425 l -1.52547,0.64669 q -4.21324,1.80115 -7.81266,2.72142 -3.60554,0.93837 -4.52842,0.4879 -0.50669,-0.24731 -0.673191,-0.9399 -0.166524,-0.69261 0.102491,-1.48882 0.3485,-1.03146 1.08313,-1.89552 0.73462,-0.86407 1.46091,-1.14197 0.43578,-0.16673 2.27425,-0.49201 3.34362,-0.41273 5.90324,-1.25028 1.1496,-0.34532 3.18372,-1.24966 l -0.78625,-7.59314 z"
             style="font-style:normal;font-variant:normal;font-weight:normal;font-stretch:normal;font-size:39.99941635px;font-family:Forte;-inkscape-font-specification:'Forte, Normal';font-variant-ligatures:normal;font-variant-caps:normal;font-variant-numeric:normal;font-feature-settings:normal;text-align:start;writing-mode:lr-tb;text-anchor:start;fill:#111b67;fill-opacity:1"
             id="path6450"
             inkscape:connector-curvature="0" />
        </g>
        <flowRoot
           xml:space="preserve"
           id="flowRoot6362"
           style="font-style:normal;font-weight:normal;font-size:40px;line-height:1.25;font-family:sans-serif;letter-spacing:0px;word-spacing:0px;fill:#000000;fill-opacity:1;stroke:none"><flowRegion
             id="flowRegion6364"><rect
               id="rect6366"
               width="11.111111"
               height="203.7037"
               x="-22.222221"
               y="354.00116" /></flowRegion><flowPara
             id="flowPara6368" /></flowRoot>        <g
           id="g6136"
           transform="matrix(-0.17350951,0,0,0.17350951,8.9704909,45.432489)">
          <g
             id="g6070">
            <path
               id="path6048"
               d="m 438.219,162.086 c -2.222,0 -4.443,-0.85 -6.135,-2.543 l -18.415,-18.415 c -3.384,-3.393 -3.384,-8.878 0,-12.271 3.393,-3.393 8.886,-3.393 12.271,0 l 18.415,18.415 c 3.393,3.393 3.393,8.878 0,12.271 -1.693,1.693 -3.914,2.543 -6.136,2.543"
               style="fill:#7383bf"
               inkscape:connector-curvature="0" />
            <polygon
               id="polygon6050"
               points="82.316,374.311 413.675,42.952 462.767,92.043 131.407,423.402 "
               style="fill:#2e146f;fill-opacity:1" />
            <g
               id="g6060">
              <path
                 id="path6052"
                 d="m 8.681,505.714 c -2.222,0 -4.443,-0.85 -6.135,-2.543 -3.393,-3.393 -3.393,-8.878 0,-12.271 l 12.271,-12.271 c 3.393,-3.393 8.878,-3.393 12.271,0 3.393,3.393 3.393,8.878 0,12.271 l -12.271,12.271 c -1.693,1.692 -3.915,2.543 -6.136,2.543"
                 style="fill:#7383bf"
                 inkscape:connector-curvature="0" />
              <polygon
                 id="polygon6054"
                 points="481.172,61.362 456.63,85.903 419.584,48.866 444.134,24.324 "
                 style="fill:#7383bf" />
              <polygon
                 id="polygon6056"
                 points="315.493,312.948 297.087,294.542 468.902,122.727 487.308,141.133 "
                 style="fill:#7383bf" />
              <polygon
                 id="polygon6058"
                 points="94.588,460.219 45.497,411.127 82.318,374.315 131.409,423.398 "
                 style="fill:#7383bf" />
            </g>
            <g
               id="g6066">
              <path
                 id="path6062"
                 d="m 51.635,417.264 v 0 l 36.821,36.821 v 0 C 77.036,473.116 56.46,484.762 34.262,484.762 H 20.95 V 471.45 c 0,-22.199 11.654,-42.765 30.685,-54.186"
                 style="fill:#2e146f;fill-opacity:1"
                 inkscape:connector-curvature="0" />
              <polygon
                 id="polygon6064"
                 points="481.172,61.362 444.351,24.541 468.901,0 505.713,36.821 "
                 style="fill:#2e146f;fill-opacity:1" />
            </g>
            <polygon
               id="polygon6068"
               points="155.951,349.765 131.41,325.224 364.587,92.047 389.128,116.588 "
               style="fill:#7383bf" />
          </g>
          <g
             id="g6072" />
          <g
             id="g6074" />
          <g
             id="g6076" />
          <g
             id="g6078" />
          <g
             id="g6080" />
          <g
             id="g6082" />
          <g
             id="g6084" />
          <g
             id="g6086" />
          <g
             id="g6088" />
          <g
             id="g6090" />
          <g
             id="g6092" />
          <g
             id="g6094" />
          <g
             id="g6096" />
          <g
             id="g6098" />
          <g
             id="g6100" />
        </g>
      </g>
    </g>
  </g>
</svg>
