<?xml version="1.0" encoding="UTF-8" standalone="no"?>
<!-- Created with Inkscape (http://www.inkscape.org/) -->

<svg
   xmlns:dc="http://purl.org/dc/elements/1.1/"
   xmlns:cc="http://creativecommons.org/ns#"
   xmlns:rdf="http://www.w3.org/1999/02/22-rdf-syntax-ns#"
   xmlns:svg="http://www.w3.org/2000/svg"
   xmlns="http://www.w3.org/2000/svg"
   xmlns:xlink="http://www.w3.org/1999/xlink"
   xmlns:sodipodi="http://sodipodi.sourceforge.net/DTD/sodipodi-0.dtd"
   xmlns:inkscape="http://www.inkscape.org/namespaces/inkscape"
   width="108.65649mm"
   height="204.76152mm"
   viewBox="0 0 108.65649 204.76152"
   version="1.1"
   id="svg8"
   inkscape:version="0.92.1 r15371"
   sodipodi:docname="quimica.svg">
  <defs
     id="defs2">
    <linearGradient
       inkscape:collect="always"
       id="linearGradient2047">
      <stop
         style="stop-color:#00ffff;stop-opacity:1"
         offset="0"
         id="stop2043" />
      <stop
         style="stop-color:#ff8080;stop-opacity:1"
         offset="1"
         id="stop2045" />
    </linearGradient>
    <linearGradient
       inkscape:collect="always"
       id="linearGradient2031">
      <stop
         style="stop-color:#ff5555;stop-opacity:1"
         offset="0"
         id="stop2027" />
      <stop
         style="stop-color:#00ffff;stop-opacity:1"
         offset="1"
         id="stop2029" />
    </linearGradient>
    <inkscape:perspective
       sodipodi:type="inkscape:persp3d"
       inkscape:vp_x="-191.77252 : 108.62899 : 1"
       inkscape:vp_y="0 : 1000 : 0"
       inkscape:vp_z="345.12786 : 107.18709 : 1"
       inkscape:persp3d-origin="54.328245 : 68.25384 : 1"
       id="perspective1977" />
    <linearGradient
       inkscape:collect="always"
       xlink:href="#linearGradient2031"
       id="linearGradient2033"
       x1="134.57721"
       y1="100.94482"
       x2="50.4655"
       y2="77.761513"
       gradientUnits="userSpaceOnUse" />
    <linearGradient
       inkscape:collect="always"
       xlink:href="#linearGradient2047"
       id="linearGradient2049"
       x1="50.4655"
       y1="77.761513"
       x2="-19.225315"
       y2="97.099747"
       gradientUnits="userSpaceOnUse" />
    <linearGradient
       inkscape:collect="always"
       xlink:href="#linearGradient2031"
       id="linearGradient2062"
       x1="50.4655"
       y1="204.76152"
       x2="49.898033"
       y2="-0.10056769"
       gradientUnits="userSpaceOnUse" />
  </defs>
  <sodipodi:namedview
     id="base"
     pagecolor="#ffffff"
     bordercolor="#666666"
     borderopacity="1.0"
     inkscape:pageopacity="0.0"
     inkscape:pageshadow="2"
     inkscape:zoom="0.55048947"
     inkscape:cx="325.27351"
     inkscape:cy="394.51279"
     inkscape:document-units="mm"
     inkscape:current-layer="layer8"
     showgrid="false"
     inkscape:window-width="1366"
     inkscape:window-height="706"
     inkscape:window-x="-8"
     inkscape:window-y="-8"
     inkscape:window-maximized="1" />
  <metadata
     id="metadata5">
    <rdf:RDF>
      <cc:Work
         rdf:about="">
        <dc:format>image/svg+xml</dc:format>
        <dc:type
           rdf:resource="http://purl.org/dc/dcmitype/StillImage" />
        <dc:title />
      </cc:Work>
    </rdf:RDF>
  </metadata>
  <g
     inkscape:groupmode="layer"
     id="layer9"
     inkscape:label="fundo 2"
     style="opacity:1">
    <rect
       style="fill:url(#linearGradient2062);stroke-width:0.26458332;fill-opacity:1"
       id="rect2060"
       width="109.58429"
       height="205.71086"
       x="-0.48063287"
       y="-0.46871465" />
  </g>
  <g
     inkscape:groupmode="layer"
     id="layer8"
     inkscape:label="fundo"
     style="opacity:1">
    <g
       sodipodi:type="inkscape:box3d"
       id="g1979"
       style="fill:#000080"
       inkscape:perspectiveID="#perspective1977"
       inkscape:corner0="0.28126168 : 0.13837236 : 0 : 1"
       inkscape:corner7="0.018331617 : -0.062863379 : 0.25636077 : 1">
      <path
         sodipodi:type="inkscape:box3dside"
         id="path1981"
         style="fill:#353564;fill-rule:evenodd;stroke:none;stroke-linejoin:round"
         inkscape:box3dsidetype="6"
         d="M 0.30437486,19.647604 V 176.70821 L 57.79522,163.5146 V 32.639988 Z"
         points="0.30437486,176.70821 57.79522,163.5146 57.79522,32.639988 0.30437486,19.647604 " />
      <path
         sodipodi:type="inkscape:box3dside"
         id="path1989"
         style="fill:#afafde;fill-rule:evenodd;stroke:none;stroke-linejoin:round"
         inkscape:box3dsidetype="13"
         d="M 0.30437486,176.70821 49.898033,197.5126 109.27341,177.41346 57.79522,163.5146 Z"
         points="49.898033,197.5126 109.27341,177.41346 57.79522,163.5146 0.30437486,176.70821 " />
      <path
         sodipodi:type="inkscape:box3dside"
         id="path1991"
         style="fill:#e9e9ff;fill-rule:evenodd;stroke:none;stroke-linejoin:round"
         inkscape:box3dsidetype="11"
         d="M 57.79522,32.639988 109.27341,19.543417 V 177.41346 L 57.79522,163.5146 Z"
         points="109.27341,19.543417 109.27341,177.41346 57.79522,163.5146 57.79522,32.639988 " />
      <path
         sodipodi:type="inkscape:box3dside"
         id="path1983"
         style="fill:#4d4d9f;fill-rule:evenodd;stroke:none;stroke-linejoin:round"
         inkscape:box3dsidetype="5"
         d="M 0.30437486,19.647604 49.898033,-0.10056769 109.27341,19.543417 57.79522,32.639988 Z"
         points="49.898033,-0.10056769 109.27341,19.543417 57.79522,32.639988 0.30437486,19.647604 " />
      <path
         sodipodi:type="inkscape:box3dside"
         id="path1987"
         style="fill:url(#linearGradient2033);fill-opacity:1;fill-rule:evenodd;stroke:none;stroke-linejoin:round"
         inkscape:box3dsidetype="14"
         d="M 49.898033,-0.10056769 V 197.5126 L 109.27341,177.41346 V 19.543417 Z"
         points="49.898033,197.5126 109.27341,177.41346 109.27341,19.543417 49.898033,-0.10056769 " />
      <path
         sodipodi:type="inkscape:box3dside"
         id="path1985"
         style="fill:url(#linearGradient2049);fill-opacity:1;fill-rule:evenodd;stroke:none;stroke-linejoin:round"
         inkscape:box3dsidetype="3"
         d="M 0.30437486,19.647604 49.898033,-0.10056769 V 197.5126 L 0.30437486,176.70821 Z"
         points="49.898033,-0.10056769 49.898033,197.5126 0.30437486,176.70821 0.30437486,19.647604 " />
    </g>
  </g>
  <g
     inkscape:label="Camada 1"
     inkscape:groupmode="layer"
     id="layer1"
     transform="translate(-102.9347,-91.936101)">
    <g
       id="g1888"
       transform="matrix(0.26458333,0,0,0.26458333,85.725077,161.23095)">
      <g
         id="g1801">
        <g
           id="g1739">
          <path
             id="path1737"
             d="M 438.953,437.585 304,232.828 V 32 H 208 V 232.828 L 73.046,437.585 C 52.012,469.499 74.901,512 113.124,512 h 285.751 c 38.223,0 61.113,-42.501 40.078,-74.415 z"
             style="fill:#aeefff"
             inkscape:connector-curvature="0" />
        </g>
        <g
           id="g1743">
          <path
             id="path1741"
             d="M 255.781,32 H 208 V 232.828 L 73.046,437.585 C 52.012,469.499 74.901,512 113.124,512 H 255.78 V 32 Z"
             style="fill:#4cd7ff"
             inkscape:connector-curvature="0" />
        </g>
        <g
           id="g1747">
          <path
             id="path1745"
             d="M 418.913,450.793 361.444,363.598 C 359.967,361.352 357.452,360 354.764,360 h -197.53 c -2.687,0 -5.203,1.352 -6.68,3.598 l -57.469,87.191 c -4.953,7.508 -5.359,16.703 -1.094,24.582 4.243,7.906 12.149,12.629 21.133,12.629 h 285.75 c 8.984,0 16.891,-4.723 21.125,-12.609 4.274,-7.899 3.868,-17.094 -1.086,-24.598 z"
             style="fill:#e3001e"
             inkscape:connector-curvature="0" />
        </g>
        <g
           id="g1751">
          <path
             id="path1749"
             d="M 361.445,363.598 C 359.968,361.352 357.453,360 354.765,360 h -98.984 v 128 h 143.094 c 8.984,0 16.891,-4.723 21.125,-12.609 4.273,-7.898 3.867,-17.094 -1.086,-24.598 z"
             style="fill:#ff4747;fill-opacity:1"
             inkscape:connector-curvature="0" />
        </g>
        <g
           id="g1755">
          <path
             id="path1753"
             d="m 304,32 h -96 c -8.837,0 -16,-7.163 -16,-16 v 0 c 0,-8.837 7.163,-16 16,-16 h 96 c 8.837,0 16,7.163 16,16 v 0 c 0,8.837 -7.164,16 -16,16 z"
             style="fill:#4bb9ec"
             inkscape:connector-curvature="0" />
        </g>
        <g
           id="g1759">
          <circle
             id="circle1757"
             r="16"
             cy="416"
             cx="200"
             style="fill:#ff4747;fill-opacity:1" />
        </g>
        <g
           id="g1763">
          <circle
             id="circle1761"
             r="16"
             cy="432"
             cx="328"
             style="fill:#e3001e" />
        </g>
        <g
           id="g1769">
          <g
             id="g1767">
            <path
               id="path1765"
               d="m 280.023,416 c -2.164,0 -4.164,-0.883 -5.688,-2.32 -1.516,-1.52 -2.313,-3.602 -2.313,-5.68 0,-2.082 0.797,-4.16 2.313,-5.68 2.961,-2.961 8.32,-2.961 11.281,0 1.523,1.52 2.406,3.52 2.406,5.68 0,2.16 -0.883,4.16 -2.406,5.68 -1.437,1.437 -3.515,2.32 -5.593,2.32 z"
               style="fill:#e3001e"
               inkscape:connector-curvature="0" />
          </g>
        </g>
        <g
           id="g1775">
          <g
             id="g1773">
            <path
               id="path1771"
               d="m 231.781,328 c -2.164,0 -4.164,-0.883 -5.688,-2.32 -1.516,-1.52 -2.313,-3.602 -2.313,-5.68 0,-2.082 0.797,-4.16 2.313,-5.68 2.961,-2.961 8.242,-2.961 11.281,0 1.523,1.52 2.406,3.598 2.406,5.68 0,2.078 -0.883,4.16 -2.32,5.68 -1.523,1.437 -3.601,2.32 -5.679,2.32 z"
               style="fill:#ff4747;fill-opacity:1"
               inkscape:connector-curvature="0" />
          </g>
        </g>
        <g
           id="g1781">
          <g
             id="g1779">
            <path
               id="path1777"
               d="m 279.781,264 c -2.164,0 -4.164,-0.883 -5.688,-2.32 -1.516,-1.52 -2.313,-3.602 -2.313,-5.68 0,-2.082 0.797,-4.16 2.313,-5.68 2.961,-2.961 8.242,-2.961 11.281,0 1.523,1.52 2.406,3.598 2.406,5.68 0,2.078 -0.883,4.16 -2.406,5.68 -1.437,1.437 -3.515,2.32 -5.593,2.32 z"
               style="fill:#ff4747;fill-opacity:1"
               inkscape:connector-curvature="0" />
          </g>
        </g>
        <g
           id="g1787">
          <g
             id="g1785">
            <path
               id="path1783"
               d="m 231.781,208 c -2.164,0 -4.242,-0.883 -5.688,-2.402 -1.516,-1.438 -2.313,-3.52 -2.313,-5.598 0,-2.082 0.797,-4.16 2.313,-5.68 2.961,-2.961 8.32,-2.961 11.281,0 1.523,1.52 2.406,3.598 2.406,5.68 0,2.078 -0.883,4.16 -2.406,5.68 -1.437,1.437 -3.515,2.32 -5.593,2.32 z"
               style="fill:#ff4747;fill-opacity:1"
               inkscape:connector-curvature="0" />
          </g>
        </g>
        <g
           id="g1793">
          <g
             id="g1791">
            <path
               id="path1789"
               d="m 231.781,463.9 c -2.164,0 -4.164,-0.883 -5.688,-2.32 -1.516,-1.52 -2.313,-3.602 -2.313,-5.68 0,-2.082 0.797,-4.16 2.313,-5.68 2.961,-2.961 8.32,-2.961 11.281,0 1.523,1.52 2.406,3.598 2.406,5.68 0,2.078 -0.883,4.16 -2.406,5.68 -1.437,1.437 -3.515,2.32 -5.593,2.32 z"
               style="fill:#ff4f19"
               inkscape:connector-curvature="0" />
          </g>
        </g>
        <g
           id="g1799">
          <g
             id="g1797">
            <path
               id="path1795"
               d="m 152.023,456 c -2.164,0 -4.242,-0.883 -5.688,-2.32 -1.516,-1.52 -2.313,-3.602 -2.313,-5.68 0,-2.082 0.797,-4.16 2.313,-5.68 2.961,-2.961 8.32,-2.961 11.281,0 1.523,1.52 2.406,3.598 2.406,5.68 0,2.078 -0.883,4.16 -2.406,5.68 -1.437,1.437 -3.515,2.32 -5.593,2.32 z"
               style="fill:#ff4747;fill-opacity:1"
               inkscape:connector-curvature="0" />
          </g>
        </g>
      </g>
      <g
         id="g1803" />
      <g
         id="g1805" />
      <g
         id="g1807" />
      <g
         id="g1809" />
      <g
         id="g1811" />
      <g
         id="g1813" />
      <g
         id="g1815" />
      <g
         id="g1817" />
      <g
         id="g1819" />
      <g
         id="g1821" />
      <g
         id="g1823" />
      <g
         id="g1825" />
      <g
         id="g1827" />
      <g
         id="g1829" />
      <g
         id="g1831" />
    </g>
    <g
       id="g2165"
       transform="matrix(0.06230701,0,0,0.06230701,136.28033,252.01086)">
      <circle
         id="circle2101"
         r="256"
         cy="256"
         cx="256"
         style="fill:#333333" />
      <g
         id="g2109" />
      <g
         id="g2111" />
      <g
         id="g2113" />
      <g
         id="g2115" />
      <g
         id="g2117" />
      <g
         id="g2119" />
      <g
         id="g2121" />
      <g
         id="g2123" />
      <g
         id="g2125" />
      <g
         id="g2127" />
      <g
         id="g2129" />
      <g
         id="g2131" />
      <g
         id="g2133" />
      <g
         id="g2135" />
      <g
         id="g2137" />
    </g>
    <path
       id="path1777-7"
       d="m 170.60168,252.90851 c -0.57256,0 -1.10173,-0.23362 -1.50495,-0.61383 -0.40111,-0.40217 -0.61198,-0.95303 -0.61198,-1.50283 0,-0.55087 0.21087,-1.10067 0.61198,-1.50284 0.78343,-0.78343 2.18069,-0.78343 2.98476,0 0.40296,0.40217 0.63659,0.95197 0.63659,1.50284 0,0.5498 -0.23363,1.10066 -0.63659,1.50283 -0.3802,0.38021 -0.93001,0.61383 -1.47981,0.61383 z"
       style="fill:#ff4747;fill-opacity:1;stroke-width:0.26458332"
       inkscape:connector-curvature="0" />
    <path
       id="path1777-3"
       d="m 156.88038,242.06142 c -0.57255,0 -1.10172,-0.23362 -1.50495,-0.61383 -0.4011,-0.40217 -0.61198,-0.95303 -0.61198,-1.50283 0,-0.55086 0.21088,-1.10067 0.61198,-1.50284 0.78344,-0.78343 2.1807,-0.78343 2.98477,0 0.40296,0.40217 0.63659,0.95198 0.63659,1.50284 0,0.5498 -0.23363,1.10066 -0.63659,1.50283 -0.38021,0.38021 -0.93001,0.61383 -1.47982,0.61383 z"
       style="fill:#ff4747;fill-opacity:1;stroke-width:0.26458332"
       inkscape:connector-curvature="0" />
    <g
       id="g2726"
       transform="translate(0,7.9375004)">
      <g
         transform="matrix(0.11545999,0,0,0.1270655,152.4756,83.949852)"
         id="g2457">
        <path
           inkscape:connector-curvature="0"
           style="fill:#ebebeb"
           d="M 238.123,191.446 54.359,375.223 c -10.727,10.713 -16.525,25.471 -15.695,40.603 0.415,7.66 -0.803,15.226 -3.509,22.23 -2.665,6.95 -6.776,13.352 -12.16,18.735 L 6.82,472.968 c -8.758,8.771 -9.227,23.114 -0.549,31.952 4.392,4.473 10.191,6.709 15.99,6.696 5.732,0 11.463,-2.183 15.842,-6.549 l 16.579,-16.592 c 10.767,-10.767 25.591,-16.458 40.791,-15.668 7.593,0.389 15.106,-0.843 22.056,-3.522 6.95,-2.665 13.351,-6.776 18.735,-12.159 L 320.041,273.349 Z"
           id="path2375" />
        <path
           inkscape:connector-curvature="0"
           style="fill:#cccccc"
           d="m 23.597,487.795 c -6.29,6.216 -15.103,8.279 -23.095,6.265 0.83,3.977 2.724,7.759 5.768,10.86 4.392,4.473 10.191,6.709 15.989,6.696 5.732,0 11.463,-2.183 15.842,-6.549 L 54.68,488.475 c 10.767,-10.767 25.591,-16.458 40.791,-15.668 7.593,0.388 15.106,-0.844 22.056,-3.522 6.95,-2.665 13.351,-6.776 18.735,-12.16 l 123.202,-123.202 60.575,-60.575 -39.571,-39.564 z"
           id="path2377" />
        <path
           inkscape:connector-curvature="0"
           style="fill:#84d88d;fill-opacity:1"
           d="M 259.464,333.924 136.262,457.126 c -5.383,5.383 -11.785,9.495 -18.735,12.16 -6.95,2.678 -14.463,3.91 -22.056,3.522 -15.199,-0.79 -30.024,4.901 -40.791,15.668 l -16.579,16.592 c -4.379,4.366 -10.111,6.548 -15.842,6.548 -5.799,0.013 -11.597,-2.223 -15.989,-6.696 -8.678,-8.838 -8.209,-23.181 0.549,-31.952 l 16.177,-16.177 c 5.383,-5.383 9.495,-11.785 12.16,-18.735 2.705,-7.004 3.924,-14.57 3.509,-22.23 -0.83,-15.132 4.968,-29.89 15.695,-40.603 l 41.286,-41.299 h 0.013 z"
           id="path2379" />
        <path
           inkscape:connector-curvature="0"
           style="fill:#51b346;fill-opacity:1"
           d="M 259.464,333.924 H 179.201 L 23.597,487.795 c -6.29,6.216 -15.103,8.28 -23.095,6.265 0,0 0,10e-4 0,0.002 0.292,1.398 0.723,2.771 1.282,4.1 0.082,0.193 0.166,0.385 0.254,0.576 0.154,0.338 0.31,0.675 0.482,1.006 0.258,0.494 0.531,0.983 0.829,1.46 0.119,0.191 0.253,0.375 0.378,0.563 0.258,0.385 0.525,0.765 0.81,1.136 0.129,0.169 0.26,0.338 0.395,0.504 0.421,0.516 0.858,1.023 1.334,1.508 0.001,10e-4 0.002,0.003 0.004,0.004 0.549,0.559 1.12,1.083 1.71,1.573 3.148,2.609 6.846,4.2 10.671,4.815 1.195,0.192 2.401,0.311 3.609,0.308 5.732,0 11.463,-2.183 15.842,-6.549 l 11.605,-11.614 4.974,-4.978 c 6.056,-6.057 13.396,-10.507 21.365,-13.102 2.656,-0.864 5.382,-1.523 8.154,-1.966 3.695,-0.591 7.472,-0.799 11.272,-0.601 6.644,0.34 13.226,-0.561 19.424,-2.585 0.885,-0.29 1.763,-0.602 2.632,-0.937 6.95,-2.665 13.351,-6.776 18.735,-12.16 z"
           id="path2381" />
        <path
           inkscape:connector-curvature="0"
           style="fill:#ffa638"
           d="m 508.2,38.978 c 8.074,20.162 2.978,43.232 -12.38,58.59 L 335.522,257.865 253.62,175.963 412.235,17.348 c 28.367,-28.368 78.83,-21.158 95.965,21.63 z"
           id="path2383" />
        <path
           inkscape:connector-curvature="0"
           style="fill:#ed8300"
           d="M 335.522,257.865 494.138,99.25 c 22.618,-22.619 22.618,-59.284 0,-81.903 -7.165,-7.165 -15.741,-12.052 -24.833,-14.678 5.663,19.608 0.775,41.617 -14.678,57.07 L 296.011,218.354 Z"
           id="path2385" />
        <g
           id="g2391">
          <polygon
             style="fill:#eb7100"
             points="254.281,160.396 306.344,212.458 264.58,170.694 254.282,160.396 "
             id="polygon2387" />
          <path
             inkscape:connector-curvature="0"
             style="fill:#eb7100"
             d="m 351.076,257.19 c 9.588,9.588 9.588,25.149 0,34.738 -4.808,4.794 -11.088,7.205 -17.369,7.205 -6.294,0 -12.588,-2.41 -17.382,-7.205 l -7.432,-7.432 -81.916,-81.903 -7.432,-7.446 c -9.602,-9.588 -9.602,-25.149 0,-34.751 4.794,-4.794 11.075,-7.191 17.369,-7.191 6.294,0 12.575,2.397 17.369,7.191 l 10.298,10.298 76.211,76.211 z"
             id="path2389" />
        </g>
        <path
           inkscape:connector-curvature="0"
           style="fill:#d65d00"
           d="m 316.629,257.48 c -4.808,4.794 -11.088,7.204 -17.369,7.204 -6.294,0 -12.588,-2.41 -17.382,-7.204 l -7.432,-7.432 -50.36,-50.352 2.891,2.896 81.916,81.902 7.432,7.433 c 4.794,4.794 11.088,7.204 17.382,7.204 6.281,0 12.561,-2.41 17.369,-7.204 9.588,-9.589 9.588,-25.15 0,-34.738 l -10.285,-10.285 -24.163,-24.162 c 9.589,9.589 9.589,25.15 0.001,34.738 z"
           id="path2393" />
        <g
           id="g2395" />
        <g
           id="g2397" />
        <g
           id="g2399" />
        <g
           id="g2401" />
        <g
           id="g2403" />
        <g
           id="g2405" />
        <g
           id="g2407" />
        <g
           id="g2409" />
        <g
           id="g2411" />
        <g
           id="g2413" />
        <g
           id="g2415" />
        <g
           id="g2417" />
        <g
           id="g2419" />
        <g
           id="g2421" />
        <g
           id="g2423" />
      </g>
      <path
         inkscape:connector-curvature="0"
         style="fill:#419139;fill-opacity:1;stroke-width:0.18781495"
         d="m 165.03907,141.98558 c -0.3707,0 -0.71331,-0.18183 -0.97437,-0.47774 -0.25969,-0.31299 -0.39622,-0.74172 -0.39622,-1.16961 0,-0.42873 0.13653,-0.85663 0.39622,-1.16962 0.50723,-0.60974 1.41187,-0.60974 1.93246,0 0.2609,0.31299 0.41216,0.74089 0.41216,1.16962 0,0.42789 -0.15126,0.85662 -0.41216,1.16961 -0.24615,0.29591 -0.60213,0.47774 -0.95809,0.47774 z"
         id="path1777-0" />
      <path
         inkscape:connector-curvature="0"
         style="fill:#419139;fill-opacity:1;stroke-width:0.26458332"
         d="m 164.10636,134.64865 c -0.57256,0 -1.10173,-0.23363 -1.50495,-0.61383 -0.40111,-0.40217 -0.61199,-0.95303 -0.61199,-1.50284 0,-0.55086 0.21088,-1.10066 0.61199,-1.50283 0.78343,-0.78343 2.18069,-0.78343 2.98476,0 0.40296,0.40217 0.63659,0.95197 0.63659,1.50283 0,0.54981 -0.23363,1.10067 -0.63659,1.50284 -0.38021,0.3802 -0.93001,0.61383 -1.47981,0.61383 z"
         id="path1777-09" />
      <path
         inkscape:connector-curvature="0"
         style="fill:#419139;fill-opacity:1;stroke-width:0.2001431"
         d="m 174.2739,131.85023 c -0.4464,0 -0.85897,-0.17147 -1.17334,-0.45051 -0.31272,-0.29516 -0.47713,-0.69946 -0.47713,-1.10298 0,-0.40429 0.16441,-0.80781 0.47713,-1.10297 0.6108,-0.57499 1.70018,-0.57499 2.32707,0 0.31417,0.29516 0.49632,0.69868 0.49632,1.10297 0,0.40352 -0.18215,0.80782 -0.49632,1.10298 -0.29642,0.27904 -0.72508,0.45051 -1.15373,0.45051 z"
         id="path1777-5" />
    </g>
    <path
       id="path1777-09-4"
       d="m 151.40061,165.75241 c -0.57256,0 -1.10173,-0.23363 -1.50495,-0.61384 -0.40111,-0.40216 -0.61199,-0.95302 -0.61199,-1.50283 0,-0.55086 0.21088,-1.10066 0.61199,-1.50283 0.78343,-0.78344 2.18069,-0.78344 2.98476,0 0.40296,0.40217 0.63659,0.95197 0.63659,1.50283 0,0.54981 -0.23363,1.10067 -0.63659,1.50283 -0.38021,0.38021 -0.93001,0.61384 -1.47981,0.61384 z"
       style="fill:#419139;fill-opacity:1;stroke-width:0.26458332"
       inkscape:connector-curvature="0" />
    <path
       id="path1777-09-6"
       d="m 151.99561,192.47994 c -0.57256,0 -1.10173,-0.23363 -1.50495,-0.61383 -0.40111,-0.40217 -0.61199,-0.95303 -0.61199,-1.50284 0,-0.55086 0.21088,-1.10066 0.61199,-1.50283 0.78343,-0.78343 2.18069,-0.78343 2.98476,0 0.40296,0.40217 0.63659,0.95197 0.63659,1.50283 0,0.54981 -0.23363,1.10067 -0.63659,1.50284 -0.38021,0.3802 -0.93001,0.61383 -1.47981,0.61383 z"
       style="fill:#419139;fill-opacity:1;stroke-width:0.26458332"
       inkscape:connector-curvature="0" />
    <g
       id="g2695"
       transform="matrix(0.04619545,0,0,0.04907737,141.86341,255.52337)">
      <path
         id="path2598"
         d="m 463.09,383.5 c -12.299,21.599 -37.8,30.599 -70.199,30.599 -42.601,0 -97.2,-15.599 -150.601,-40.199 -17.999,-8.101 -35.4,-17.1 -52.5,-27.001 C 132.789,313.9 83.889,274.6 51.791,235.899 16.99,193.299 6.19,155.2 21.491,128.5 c 7.5,-13.2 20.7,-22.2 38.699,-27.001 8.101,-2.1 16.199,2.701 18.3,10.8 2.1,8.101 -2.699,16.201 -10.8,18.301 -9.901,2.699 -16.8,6.899 -20.4,12.9 -8.401,14.7 2.1,41.999 27.9,73.2 29.399,36 75.601,73.2 129.6,104.399 12.599,7.2 25.201,13.801 37.5,19.799 96.301,47.1 179.399,54.6 195,27.601 8.401,-14.7 -2.1,-42.001 -27.9,-73.2 -29.399,-36 -75.601,-73.2 -129.6,-104.401 -12.299,-7.2 -24.901,-13.799 -37.5,-19.799 -43.801,-21.301 -87.299,-36 -123.6,-41.1 -8.101,-1.199 -13.801,-8.699 -12.599,-17.1 1.199,-8.101 8.699,-13.801 16.8,-12.599 35.999,5.099 77.1,18.3 119.399,37.8 17.401,7.798 35.099,16.8 52.5,26.999 57.001,33.001 105.901,72.301 137.999,111 34.801,42.6 45.601,80.701 30.301,107.401 z"
         style="fill:#ff4747;fill-opacity:1"
         inkscape:connector-curvature="0" />
      <path
         id="path2600"
         d="m 463.09,383.5 c -12.299,21.599 -37.8,30.599 -70.199,30.599 -42.601,0 -97.2,-15.599 -150.601,-40.199 v -33.001 c 96.301,47.1 179.399,54.6 195,27.601 8.401,-14.7 -2.1,-42.001 -27.9,-73.2 -29.399,-36 -75.601,-73.2 -129.6,-104.401 -12.299,-7.2 -24.901,-13.799 -37.5,-19.799 v -33 c 17.401,7.798 35.099,16.8 52.5,26.999 57.001,33.001 105.901,72.301 137.999,111 34.801,42.6 45.601,80.701 30.301,107.401 z"
         style="fill:#e3001e;fill-opacity:1"
         inkscape:connector-curvature="0" />
      <path
         id="path2602"
         d="m 75.19,295.3 c -25.8,31.199 -36.301,58.5 -27.9,73.2 15.601,26.999 98.699,19.499 195,-27.601 12.299,-5.999 24.901,-12.599 37.5,-19.799 69.3,-40.201 126.899,-91.5 150,-133.801 3.9,-7.2 13.2,-9.899 20.4,-5.999 7.2,3.9 9.901,13.2 6,20.4 -26.1,47.699 -86.4,101.999 -161.4,145.199 -17.1,9.901 -34.501,18.9 -52.5,27.001 -53.401,24.6 -107.999,40.199 -150.601,40.199 -32.399,0 -57.9,-9 -70.199,-30.599 -15.3,-26.7 -4.501,-64.801 30.3,-107.401 32.098,-38.699 80.999,-77.999 137.999,-111 17.1,-9.899 34.799,-18.9 52.5,-26.999 94.2,-43.2 192.299,-59.401 220.8,-9.6 4.2,7.2 1.8,16.199 -5.4,20.4 -7.2,4.201 -16.5,1.8 -20.4,-5.4 -15.601,-27.001 -98.699,-19.501 -195,27.599 -12.299,6 -24.901,12.599 -37.5,19.799 C 150.791,222.1 104.589,259.3 75.19,295.3 Z"
         style="fill:#ff4747;fill-opacity:1"
         inkscape:connector-curvature="0" />
      <g
         id="g2608">
        <path
           id="path2604"
           d="m 456.19,201.7 c -26.1,47.699 -86.4,101.999 -161.4,145.199 -17.1,9.901 -34.501,18.9 -52.5,27.001 v -33.001 c 12.299,-5.999 24.901,-12.599 37.5,-19.799 69.3,-40.201 126.899,-91.5 150,-133.801 3.9,-7.2 13.2,-9.899 20.4,-5.999 7.2,3.9 9.9,13.2 6,20.4 z"
           style="fill:#e3001e;fill-opacity:1"
           inkscape:connector-curvature="0" />
        <path
           id="path2606"
           d="m 457.69,148.9 c -7.2,4.2 -16.5,1.8 -20.4,-5.4 -15.601,-27.001 -98.699,-19.501 -195,27.599 V 138.1 c 94.2,-43.2 192.299,-59.401 220.8,-9.6 4.2,7.2 1.8,16.199 -5.4,20.4 z"
           style="fill:#e3001e;fill-opacity:1"
           inkscape:connector-curvature="0" />
      </g>
      <path
         id="path2610"
         d="m 242.29,211 c -24.901,0 -45,20.099 -45,45 0,24.899 20.099,45 45,45 24.901,0 45,-20.101 45,-45 0,-24.901 -20.099,-45 -45,-45 z"
         style="fill:#fdbf00"
         inkscape:connector-curvature="0" />
      <g
         id="g2616">
        <path
           id="path2612"
           d="m 452.29,211 c -24.814,0 -45,-20.186 -45,-45 0,-24.814 20.186,-45 45,-45 24.814,0 45,20.186 45,45 0,24.814 -20.185,45 -45,45 z"
           style="fill:#ff9f00"
           inkscape:connector-curvature="0" />
        <path
           id="path2614"
           d="m 242.29,301 v -90 c 24.901,0 45,20.099 45,45 0,24.899 -20.099,45 -45,45 z"
           style="fill:#ff9f00"
           inkscape:connector-curvature="0" />
      </g>
      <path
         id="path2618"
         d="m 347.29,256 c 0,123.6 -36.899,256 -105,256 -15.601,0 -30.601,-7.2 -44.099,-21.301 -5.7,-6 -5.402,-15.601 0.599,-21.301 6,-5.698 15.601,-5.4 21.301,0.601 7.5,7.8 15,12.001 22.2,12.001 35.4,0 75,-97.301 75,-226 0,-128.701 -39.6,-226 -75,-226 -35.4,0 -75,97.299 -75,226 0,66.899 10.8,131.199 29.399,175 3.001,7.8 -0.3,16.5 -8.099,19.799 -7.5,3.301 -16.501,-0.298 -19.501,-7.798 -20.4,-47.401 -31.8,-116.201 -31.8,-187 0,-123.6 36.899,-256 105,-256 68.101,0 105,132.399 105,255.999 z"
         style="fill:#ff4747;fill-opacity:1"
         inkscape:connector-curvature="0" />
      <path
         id="path2620"
         d="m 347.29,256 c 0,123.6 -36.899,256 -105,256 v -30 c 35.4,0 75,-97.301 75,-226 0,-128.701 -39.6,-226 -75,-226 V 0 c 68.101,0 105,132.4 105,256 z"
         style="fill:#e3001e;fill-opacity:1"
         inkscape:connector-curvature="0" />
      <g
         id="g2626">
        <path
           id="path2622"
           d="m 92.29,151 c -24.814,0 -45,-20.186 -45,-45 0,-24.814 20.186,-45 45,-45 24.814,0 45,20.186 45,45 0,24.814 -20.185,45 -45,45 z"
           style="fill:#fdbf00"
           inkscape:connector-curvature="0" />
        <path
           id="path2624"
           d="m 182.29,512 c -24.814,0 -45,-20.186 -45,-45 0,-24.814 20.186,-45 45,-45 24.814,0 45,20.186 45,45 0,24.814 -20.185,45 -45,45 z"
           style="fill:#fdbf00"
           inkscape:connector-curvature="0" />
      </g>
      <g
         id="g2628" />
      <g
         id="g2630" />
      <g
         id="g2632" />
      <g
         id="g2634" />
      <g
         id="g2636" />
      <g
         id="g2638" />
      <g
         id="g2640" />
      <g
         id="g2642" />
      <g
         id="g2644" />
      <g
         id="g2646" />
      <g
         id="g2648" />
      <g
         id="g2650" />
      <g
         id="g2652" />
      <g
         id="g2654" />
      <g
         id="g2656" />
    </g>
  </g>
</svg>
