<?xml version="1.0" encoding="UTF-8" standalone="no"?>
<!-- Created with Inkscape (http://www.inkscape.org/) -->

<svg
   xmlns:dc="http://purl.org/dc/elements/1.1/"
   xmlns:cc="http://creativecommons.org/ns#"
   xmlns:rdf="http://www.w3.org/1999/02/22-rdf-syntax-ns#"
   xmlns:svg="http://www.w3.org/2000/svg"
   xmlns="http://www.w3.org/2000/svg"
   xmlns:sodipodi="http://sodipodi.sourceforge.net/DTD/sodipodi-0.dtd"
   xmlns:inkscape="http://www.inkscape.org/namespaces/inkscape"
   width="146.37685mm"
   height="162.64093mm"
   viewBox="0 0 146.37685 162.64093"
   version="1.1"
   id="svg8"
   inkscape:version="0.92.1 r15371"
   sodipodi:docname="sociologia.svg">
  <defs
     id="defs2" />
  <sodipodi:namedview
     id="base"
     pagecolor="#ffffff"
     bordercolor="#666666"
     borderopacity="1.0"
     inkscape:pageopacity="0.0"
     inkscape:pageshadow="2"
     inkscape:zoom="0.73"
     inkscape:cx="59.676404"
     inkscape:cy="297.07011"
     inkscape:document-units="mm"
     inkscape:current-layer="layer12"
     showgrid="false"
     inkscape:window-width="1366"
     inkscape:window-height="706"
     inkscape:window-x="-8"
     inkscape:window-y="-8"
     inkscape:window-maximized="1"
     inkscape:measure-start="0,0"
     inkscape:measure-end="0,0" />
  <metadata
     id="metadata5">
    <rdf:RDF>
      <cc:Work
         rdf:about="">
        <dc:format>image/svg+xml</dc:format>
        <dc:type
           rdf:resource="http://purl.org/dc/dcmitype/StillImage" />
        <dc:title />
      </cc:Work>
    </rdf:RDF>
  </metadata>
  <g
     inkscape:groupmode="layer"
     id="layer12"
     inkscape:label="fundo"
     style="display:inline">
    <rect
       style="fill:#8080ff;stroke-width:0.26458332"
       id="rect2433"
       width="146.0645"
       height="162.73686"
       x="0.36244294"
       y="-0.095941983"
       ry="0" />
  </g>
  <g
     inkscape:label="Camada 1"
     inkscape:groupmode="layer"
     id="layer1"
     transform="translate(-29.179763,-55.588827)"
     style="display:inline">
    <g
       id="g928"
       transform="matrix(0.40660233,0,0,0.40660233,16.20516,15.830117)">
      <g
         id="g926" />
    </g>
    <g
       id="g934"
       transform="matrix(0.40660233,0,0,0.40660233,16.20516,15.830117)">
      <g
         id="g932" />
    </g>
    <g
       id="g940"
       transform="matrix(0.40660233,0,0,0.40660233,16.20516,15.830117)">
      <g
         id="g938" />
    </g>
    <g
       id="g946"
       transform="matrix(0.40660233,0,0,0.40660233,16.20516,15.830117)">
      <g
         id="g944" />
    </g>
    <g
       id="g952"
       transform="matrix(0.40660233,0,0,0.40660233,16.20516,15.830117)">
      <g
         id="g950" />
    </g>
    <g
       id="g958"
       transform="matrix(0.40660233,0,0,0.40660233,16.20516,15.830117)">
      <g
         id="g956" />
    </g>
    <g
       id="g964"
       transform="matrix(0.40660233,0,0,0.40660233,16.20516,15.830117)">
      <g
         id="g962" />
    </g>
    <g
       id="g970"
       transform="matrix(0.40660233,0,0,0.40660233,16.20516,15.830117)">
      <g
         id="g968" />
    </g>
    <g
       id="g976"
       transform="matrix(0.40660233,0,0,0.40660233,16.20516,15.830117)">
      <g
         id="g974" />
    </g>
    <g
       id="g982"
       transform="matrix(0.40660233,0,0,0.40660233,16.20516,15.830117)">
      <g
         id="g980" />
    </g>
    <g
       id="g984"
       transform="matrix(0.40660233,0,0,0.40660233,16.20516,15.830117)" />
    <g
       id="g986"
       transform="matrix(0.40660233,0,0,0.40660233,16.20516,15.830117)" />
    <g
       id="g988"
       transform="matrix(0.40660233,0,0,0.40660233,16.20516,15.830117)" />
    <g
       id="g990"
       transform="matrix(0.40660233,0,0,0.40660233,16.20516,15.830117)" />
    <g
       id="g992"
       transform="matrix(0.40660233,0,0,0.40660233,16.20516,15.830117)" />
    <g
       id="g994"
       transform="matrix(0.40660233,0,0,0.40660233,16.20516,15.830117)" />
    <g
       id="g996"
       transform="matrix(0.40660233,0,0,0.40660233,16.20516,15.830117)" />
    <g
       id="g998"
       transform="matrix(0.40660233,0,0,0.40660233,16.20516,15.830117)" />
    <g
       id="g1000"
       transform="matrix(0.40660233,0,0,0.40660233,16.20516,15.830117)" />
    <g
       id="g1002"
       transform="matrix(0.40660233,0,0,0.40660233,16.20516,15.830117)" />
    <g
       id="g1004"
       transform="matrix(0.40660233,0,0,0.40660233,16.20516,15.830117)" />
    <g
       id="g1006"
       transform="matrix(0.40660233,0,0,0.40660233,16.20516,15.830117)" />
    <g
       id="g1008"
       transform="matrix(0.40660233,0,0,0.40660233,16.20516,15.830117)" />
    <g
       id="g1010"
       transform="matrix(0.40660233,0,0,0.40660233,16.20516,15.830117)" />
    <g
       id="g1012"
       transform="matrix(0.40660233,0,0,0.40660233,16.20516,15.830117)" />
    <g
       id="g2419"
       transform="translate(-13.047945,0.72488584)">
      <g
         id="g2373">
        <g
           id="g922"
           transform="matrix(0.40660233,0,0,0.40660233,16.20516,15.830117)">
          <g
             id="g920">
            <path
               style="fill:#344496;fill-opacity:1"
               sodipodi:nodetypes="sccscscssccsssssssscccccccccccccccccccccssccccsccccccccccccccccccccccccccccccccccccccccccccccccccccscsccccccccccccccccc"
               inkscape:connector-curvature="0"
               d="m 264.624,96 c -70.928,0 -132.272,45.648 -152.648,113.576 l -5.752,19.152 C 100.136,249.04 88.992,267.704 74,282.696 l -7.656,7.656 C 64.84,291.84 64,293.872 64,296 c 0,2.12 0.84,4.16 2.344,5.656 24.28,24.288 37.656,56.576 37.656,90.912 0,26.152 21.272,47.432 47.432,47.432 12.168,0 24.248,-3.048 34.944,-8.816 L 200,423.856 V 488 c 0,4.416 3.576,8 8,8 h 136 c 4.424,0 8,-3.584 8,-8 v -58.808 c 0,-27.008 10.512,-52.4 29.616,-71.504 C 408.944,330.36 424,294.024 424,255.376 424,167.496 352.504,96 264.624,96 Z M 304,117.632 V 168 h -9.536 l -7.416,19.752 -19.208,-8.728 -24.816,24.816 8.736,19.208 -19.76,7.408 v 35.088 l 19.76,7.408 -8.736,19.208 24.816,24.816 19.208,-8.728 7.416,19.752 H 304 v 152 h -88 v -64.76 l 59.792,-32.192 -7.584,-14.088 -89.424,48.144 C 170.416,421.616 160.952,424 151.432,424 134.104,424 120,409.904 120,392.568 120,356.632 106.976,322.696 83.168,296.152 L 85.32,294 c 16.856,-16.864 29.392,-37.848 36.24,-60.68 l 5.752,-19.152 C 145.632,153.056 200.824,112 264.624,112 c 13.664,0 26.848,2.04 39.376,5.632 z m 51.528,150.488 -1.544,3.336 7.832,17.24 -9.128,9.128 -17.24,-7.832 -3.328,1.536 c -1.168,0.544 -2.376,1.032 -3.584,1.48 l -3.432,1.272 -6.64,17.72 h -12.92 l -6.648,-17.72 -3.432,-1.272 c -1.208,-0.448 -2.416,-0.936 -3.584,-1.48 l -3.328,-1.536 -17.24,7.832 -9.128,-9.128 7.832,-17.24 -1.544,-3.336 c -0.544,-1.168 -1.024,-2.36 -1.472,-3.576 l -1.272,-3.44 L 248,254.456 v -12.912 l 17.728,-6.648 1.272,-3.44 c 0.448,-1.216 0.92,-2.408 1.472,-3.576 l 1.544,-3.336 -7.832,-17.24 9.128,-9.128 17.24,7.832 3.328,-1.536 c 1.168,-0.544 2.376,-1.032 3.584,-1.48 l 3.432,-1.272 6.64,-17.72 h 12.92 l 6.648,17.72 3.432,1.272 c 1.208,0.448 2.416,0.936 3.584,1.48 l 3.328,1.536 17.24,-7.832 9.128,9.128 -7.832,17.24 1.544,3.336 c 0.544,1.168 1.024,2.36 1.472,3.576 l 1.272,3.44 17.728,6.648 v 12.912 l -17.728,6.648 -1.272,3.44 c -0.448,1.216 -0.92,2.408 -1.472,3.576 M 320,123.144 c 51.64,21.704 88,72.792 88,132.232 0,34.376 -13.392,66.696 -37.696,91.008 C 348.176,368.496 336,397.904 336,429.192 V 480 H 320 V 328 h 9.536 l 7.416,-19.752 19.208,8.728 24.816,-24.816 -8.736,-19.208 19.76,-7.408 v -35.088 l -19.76,-7.408 8.736,-19.208 -24.816,-24.816 -19.208,8.728 L 329.536,168 H 320 v -44.856"
               id="path918" />
          </g>
        </g>
        <g
           id="g1280"
           transform="matrix(0.06355187,0,0,0.06355187,128.17443,100.94232)">
          <path
             id="path1156"
             d="M 84.776,0 H 395.224 C 442.044,0 480,37.956 480,84.776 V 203.224 C 480,250.044 442.044,288 395.224,288 H 84.776 C 37.956,288 0,250.044 0,203.224 V 84.776 C 0,37.956 37.956,0 84.776,0 Z"
             style="fill:#b6dedc"
             inkscape:connector-curvature="0" />
          <path
             id="path1158"
             d="M 58.748,401.828 C 73.07,391.474 76.287,371.469 65.933,357.147 55.579,342.825 35.574,339.608 21.252,349.962 6.93,360.316 3.713,380.321 14.067,394.643 c 1.997,2.762 4.423,5.188 7.185,7.185 C 8.57,406.132 0.029,418.025 0,431.417 V 480 H 80 V 431.417 C 79.971,418.025 71.43,406.133 58.748,401.828 Z"
             style="fill:#344496"
             inkscape:connector-curvature="0" />
          <path
             id="path1160"
             d="M 16,203.228 V 84.772 C 16,37.954 53.954,0 100.772,0 c 0,0 0,0 0,0 h -16 C 37.954,0 0,37.954 0,84.772 c 0,0 0,0 0,0 V 203.227 C 0,250.046 37.954,288 84.772,288 h 16 C 53.954,288 16,250.046 16,203.228 Z"
             style="fill:#d8efed"
             inkscape:connector-curvature="0" />
          <circle
             id="circle1162"
             r="48"
             cy="80"
             cx="96"
             style="fill:#4bad32" />
          <circle
             id="circle1164"
             r="48"
             cy="80"
             cx="96"
             style="fill:#4cd625" />
          <path
             id="path1166"
             d="M 29.252,401.828 C 14.982,391.575 11.725,371.695 21.978,357.425 27.173,350.194 35.161,345.471 44,344.403 42.677,344.184 41.341,344.049 40,344 22.365,343.962 8.038,358.227 8,375.861 7.978,386.146 12.911,395.811 21.252,401.828 8.57,406.133 0.029,418.025 0,431.417 V 480 h 8 v -48.583 c 0.029,-13.392 8.57,-25.284 21.252,-29.589 z"
             style="fill:#5d6db2"
             inkscape:connector-curvature="0" />
          <path
             id="path1168"
             d="m 186.748,401.828 c 14.322,-10.354 17.539,-30.359 7.185,-44.681 -10.354,-14.322 -30.359,-17.539 -44.681,-7.185 -14.322,10.354 -17.539,30.359 -7.185,44.681 1.997,2.762 4.423,5.188 7.185,7.185 -12.682,4.304 -21.223,16.196 -21.252,29.589 V 480 h 80 v -48.583 c -0.029,-13.392 -8.57,-25.284 -21.252,-29.589 z"
             style="fill:#344496"
             inkscape:connector-curvature="0" />
          <path
             id="path1170"
             d="m 157.252,401.828 c -14.27,-10.253 -17.527,-30.133 -7.274,-44.403 5.195,-7.231 13.183,-11.954 22.022,-13.022 -1.323,-0.219 -2.659,-0.354 -4,-0.403 -17.635,-0.038 -31.962,14.227 -32,31.861 -0.022,10.285 4.911,19.95 13.252,25.967 -12.682,4.304 -21.223,16.196 -21.252,29.589 V 480 h 8 v -48.583 c 0.029,-13.392 8.57,-25.284 21.252,-29.589 z"
             style="fill:#5d6db2"
             inkscape:connector-curvature="0" />
          <path
             id="path1172"
             d="m 330.748,401.828 c 14.322,-10.354 17.539,-30.359 7.185,-44.681 -10.354,-14.322 -30.359,-17.539 -44.681,-7.185 -14.322,10.354 -17.539,30.359 -7.185,44.681 1.997,2.762 4.423,5.188 7.185,7.185 -12.682,4.304 -21.223,16.196 -21.252,29.589 V 480 h 80 v -48.583 c -0.029,-13.392 -8.57,-25.284 -21.252,-29.589 z"
             style="fill:#344496"
             inkscape:connector-curvature="0" />
          <path
             id="path1174"
             d="m 301.252,401.828 c -14.27,-10.253 -17.527,-30.133 -7.274,-44.403 5.195,-7.231 13.183,-11.954 22.022,-13.022 -1.323,-0.219 -2.659,-0.354 -4,-0.403 -17.635,-0.038 -31.962,14.227 -32,31.861 -0.022,10.285 4.911,19.95 13.252,25.967 -12.682,4.304 -21.223,16.196 -21.252,29.589 V 480 h 8 v -48.583 c 0.029,-13.392 8.57,-25.284 21.252,-29.589 z"
             style="fill:#5d6db2"
             inkscape:connector-curvature="0" />
          <path
             id="path1176"
             d="m 458.748,401.828 c 14.322,-10.354 17.539,-30.359 7.185,-44.681 -10.354,-14.322 -30.359,-17.539 -44.681,-7.185 -14.322,10.354 -17.539,30.359 -7.185,44.681 1.997,2.762 4.423,5.188 7.185,7.185 -12.682,4.304 -21.223,16.196 -21.252,29.589 V 480 h 80 v -48.583 c -0.029,-13.392 -8.57,-25.284 -21.252,-29.589 z"
             style="fill:#344496"
             inkscape:connector-curvature="0" />
          <path
             id="path1178"
             d="m 429.252,401.828 c -14.27,-10.253 -17.527,-30.133 -7.274,-44.403 5.195,-7.231 13.183,-11.954 22.022,-13.022 -1.323,-0.219 -2.659,-0.354 -4,-0.403 -17.635,-0.038 -31.962,14.227 -32,31.861 -0.022,10.285 4.911,19.95 13.252,25.967 -12.682,4.304 -21.223,16.196 -21.252,29.589 V 480 h 8 v -48.583 c 0.029,-13.392 8.57,-25.284 21.252,-29.589 z"
             style="fill:#5d6db2"
             inkscape:connector-curvature="0" />
          <path
             id="path1180"
             d="M 176,40 H 288 V 184 H 176 Z"
             style="fill:#fcd821"
             inkscape:connector-curvature="0" />
          <path
             id="path1182"
             d="m 416.764,38.98 c -9.788,-9.306 -25.153,-9.306 -34.94,0 L 376,44.597 370.177,38.98 c -9.788,-9.306 -25.153,-9.306 -34.94,0 -9.306,8.837 -9.687,23.546 -0.849,32.852 0.276,0.29 0.559,0.573 0.849,0.849 L 376,112 416.764,72.681 c 9.306,-8.837 9.687,-23.546 0.849,-32.852 -0.276,-0.291 -0.559,-0.574 -0.849,-0.849 z"
             style="fill:#ec322c"
             inkscape:connector-curvature="0" />
          <path
             id="path1184"
             d="m 232,80 -24,32 24,32 24,-32 z"
             style="fill:#344496"
             inkscape:connector-curvature="0" />
          <circle
             id="circle1186"
             r="56"
             cy="200"
             cx="376"
             style="fill:#4bad32" />
          <path
             id="path1188"
             d="m 376,240 c -13.249,-0.014 -23.986,-10.751 -24,-24 h 16 c 0,4.418 3.582,8 8,8 4.418,0 8,-3.582 8,-8 h 16 c -0.014,13.249 -10.751,23.986 -24,24 z"
             style="fill:#616161"
             inkscape:connector-curvature="0" />
          <path
             id="path1190"
             d="m 48,160 h 96 v 56 h -24 l 8,40 -48,-40 H 48 Z"
             style="fill:#ec322c"
             inkscape:connector-curvature="0" />
          <g
             id="g1196">
            <path
               id="path1192"
               d="M 84.739,91.367 C 75.096,81.721 61.794,76.652 48.177,77.433 c -1.51,26.378 18.65,48.986 45.028,50.495 1.821,0.104 3.646,0.104 5.467,0 0.782,-13.616 -4.287,-26.918 -13.933,-36.561 z"
               style="fill:#74dd37"
               inkscape:connector-curvature="0" />
            <path
               id="path1194"
               d="m 129.994,46.112 c -9.643,-9.646 -22.945,-14.715 -36.562,-13.934 -1.51,26.379 18.651,48.986 45.029,50.496 1.821,0.104 3.646,0.104 5.466,0 0.782,-13.617 -4.287,-26.919 -13.933,-36.562 z"
               style="fill:#74dd37"
               inkscape:connector-curvature="0" />
          </g>
          <g
             id="g1202">
            <circle
               id="circle1198"
               r="8"
               cy="184"
               cx="352"
               style="fill:#616161" />
            <circle
               id="circle1200"
               r="8"
               cy="184"
               cx="400"
               style="fill:#616161" />
          </g>
          <g
             id="g1204" />
          <g
             id="g1206" />
          <g
             id="g1208" />
          <g
             id="g1210" />
          <g
             id="g1212" />
          <g
             id="g1214" />
          <g
             id="g1216" />
          <g
             id="g1218" />
          <g
             id="g1220" />
          <g
             id="g1222" />
          <g
             id="g1224" />
          <g
             id="g1226" />
          <g
             id="g1228" />
          <g
             id="g1230" />
          <g
             id="g1232" />
        </g>
      </g>
    </g>
  </g>
</svg>
