<?xml version="1.0" encoding="UTF-8" standalone="no"?>
<!-- Created with Inkscape (http://www.inkscape.org/) -->

<svg
   xmlns:dc="http://purl.org/dc/elements/1.1/"
   xmlns:cc="http://creativecommons.org/ns#"
   xmlns:rdf="http://www.w3.org/1999/02/22-rdf-syntax-ns#"
   xmlns:svg="http://www.w3.org/2000/svg"
   xmlns="http://www.w3.org/2000/svg"
   xmlns:sodipodi="http://sodipodi.sourceforge.net/DTD/sodipodi-0.dtd"
   xmlns:inkscape="http://www.inkscape.org/namespaces/inkscape"
   width="90.19429mm"
   height="66.291367mm"
   viewBox="0 0 90.19429 66.291367"
   version="1.1"
   id="svg4628"
   inkscape:version="0.92.2 (5c3e80d, 2017-08-06)"
   sodipodi:docname="ideia louca.svg">
  <defs
     id="defs4622" />
  <sodipodi:namedview
     id="base"
     pagecolor="#ffffff"
     bordercolor="#666666"
     borderopacity="1.0"
     inkscape:pageopacity="0.0"
     inkscape:pageshadow="2"
     inkscape:zoom="0.7"
     inkscape:cx="201.61353"
     inkscape:cy="199.08274"
     inkscape:document-units="mm"
     inkscape:current-layer="layer4"
     showgrid="false"
     inkscape:window-width="1024"
     inkscape:window-height="746"
     inkscape:window-x="-8"
     inkscape:window-y="-8"
     inkscape:window-maximized="1" />
  <metadata
     id="metadata4625">
    <rdf:RDF>
      <cc:Work
         rdf:about="">
        <dc:format>image/svg+xml</dc:format>
        <dc:type
           rdf:resource="http://purl.org/dc/dcmitype/StillImage" />
        <dc:title />
      </cc:Work>
    </rdf:RDF>
  </metadata>
  <g
     inkscape:groupmode="layer"
     id="layer4"
     inkscape:label="Camada 3"
     style="display:inline"
     transform="translate(-55.134674,-62.024641)">
    <g
       id="g4499"
       transform="translate(1.889881,-1.889881)">
      <g
         transform="translate(4.667406,51.3642)"
         id="g5254">
        <path
           style="display:inline;opacity:1;fill:#408aff;fill-opacity:1;stroke:#408aff;stroke-width:0.26458332px;stroke-linecap:butt;stroke-linejoin:miter;stroke-opacity:1"
           d="m 124.48078,35.744037 2.20498,-0.601356 -0.0668,19.243405 c 1.47079,0.704376 2.28565,2.77006 0.40091,4.276312 0.47254,0.351545 0.97368,0.808111 0.93544,1.670435 l 0.0668,18.37478 -5.01131,-0.06682 0.13362,-18.441597 c 0.20535,-1.29433 0.7449,-1.407428 1.13589,-1.5368 -1.92454,-1.24796 -1.50756,-3.33505 0.26727,-4.34313 z"
           id="path5224"
           inkscape:connector-curvature="0"
           sodipodi:nodetypes="ccccccccccc" />
        <path
           style="display:inline;opacity:1;fill:#408aff;fill-opacity:1;stroke:#408aff;stroke-width:0.26458332px;stroke-linecap:butt;stroke-linejoin:miter;stroke-opacity:1"
           d="m 67.285102,37.147201 v 12.561667 c 7.944923,-0.0089 15.093343,1.832878 26.726954,8.552625 8.643264,-6.161944 18.449314,-8.640617 26.526504,-8.485807 l -0.13364,-12.695303 -26.660133,9.087164 z"
           id="path5247"
           inkscape:connector-curvature="0"
           sodipodi:nodetypes="ccccccc" />
        <path
           style="display:inline;opacity:1;fill:#408aff;fill-opacity:1;stroke:#408aff;stroke-width:0.26458332px;stroke-linecap:butt;stroke-linejoin:miter;stroke-opacity:1"
           d="M 48.977139,29.864105 94.145689,12.69204 138.3788,29.864105 94.078874,44.363478 Z"
           id="path5245"
           inkscape:connector-curvature="0" />
      </g>
      <path
         sodipodi:nodetypes="ccccccccccccccccccccccccccc"
         inkscape:connector-curvature="0"
         id="path4491"
         d="m 92.020496,75.931419 2.62912,1.464412 c -1.42602,-0.27522 -2.5867,-0.430298 -4.17157,-0.483687 -0.88144,-0.03668 -1.87817,0.101913 -1.98437,0.389194 -0.0945,0.395335 0.86084,0.707985 1.87318,1.020108 1.56376,0.41531 3.11072,0.678561 4.65525,0.564099 1.66618,-0.100145 3.60375,-0.0412 5.700204,0.214045 1.11297,0.15754 2.08029,0.35149 3.01688,0.553125 1.01501,0.232871 2.09796,0.493722 3.48793,0.88099 1.11041,0.358778 2.1128,0.655825 3.36146,1.093601 0.53771,0.202918 1.04174,0.363718 1.662,0.669811 0.50647,0.226211 0.9763,0.476853 1.41597,0.7476 0.87891,0.645969 0.54698,0.86303 0.3126,0.993375 -0.81446,0.506282 -3.37162,0.478393 -5.30956,0.355785 -2.09093,-0.124324 -4.17823,-0.569067 -6.24639,-0.931102 l -3.316664,-1.661158 c 3.137154,0.73773 8.010814,1.128882 8.451314,0.626023 0.31178,-0.228371 -0.058,-0.49966 -0.4016,-0.661459 -1.08137,-0.535438 -2.20235,-0.821584 -3.37816,-1.045339 -1.58389,-0.367082 -3.831404,0.03701 -6.307484,-0.165364 l -2.29148,-0.23033 c -3.18996,-0.434608 -5.8255,-1.194222 -8.378,-2.002512 -1.52785,-0.491319 -2.90932,-1.035735 -4.03674,-1.771764 -0.28045,-0.201691 -0.83372,-0.878447 0.414,-1.118411 0.76197,-0.145197 1.87057,-0.284006 3.66164,-0.209991 1.33005,0.128541 2.69367,0.277219 4.24388,0.537854 z"
         style="display:inline;opacity:1;fill:#ffffff;fill-opacity:0.99500002;stroke:#ffffff;stroke-width:0.1;stroke-linecap:butt;stroke-linejoin:round;stroke-miterlimit:4;stroke-dasharray:none;stroke-opacity:1" />
    </g>
  </g>
</svg>
