<?xml version="1.0" encoding="UTF-8" standalone="no"?>
<!-- Created with Inkscape (http://www.inkscape.org/) -->

<svg
   xmlns:dc="http://purl.org/dc/elements/1.1/"
   xmlns:cc="http://creativecommons.org/ns#"
   xmlns:rdf="http://www.w3.org/1999/02/22-rdf-syntax-ns#"
   xmlns:svg="http://www.w3.org/2000/svg"
   xmlns="http://www.w3.org/2000/svg"
   xmlns:sodipodi="http://sodipodi.sourceforge.net/DTD/sodipodi-0.dtd"
   xmlns:inkscape="http://www.inkscape.org/namespaces/inkscape"
   width="94.952843mm"
   height="132.70406mm"
   viewBox="0 0 94.952845 132.70406"
   version="1.1"
   id="svg8"
   inkscape:version="0.92.2 (5c3e80d, 2017-08-06)"
   sodipodi:docname="marketingStudy.svg">
  <defs
     id="defs2" />
  <sodipodi:namedview
     id="base"
     pagecolor="#ffffff"
     bordercolor="#666666"
     borderopacity="1.0"
     inkscape:pageopacity="0.0"
     inkscape:pageshadow="2"
     inkscape:zoom="1.1191672"
     inkscape:cx="173.62068"
     inkscape:cy="348.65645"
     inkscape:document-units="mm"
     inkscape:current-layer="layer1"
     showgrid="false"
     showguides="true"
     inkscape:guide-bbox="true"
     inkscape:window-width="1024"
     inkscape:window-height="716"
     inkscape:window-x="-8"
     inkscape:window-y="-8"
     inkscape:window-maximized="1" />
  <metadata
     id="metadata5">
    <rdf:RDF>
      <cc:Work
         rdf:about="">
        <dc:format>image/svg+xml</dc:format>
        <dc:type
           rdf:resource="http://purl.org/dc/dcmitype/StillImage" />
        <dc:title />
      </cc:Work>
    </rdf:RDF>
  </metadata>
  <g
     inkscape:label="Camada 1"
     inkscape:groupmode="layer"
     id="layer1"
     style="display:inline"
     transform="translate(-49.948739,-32.906516)">
    <g
       id="g1230">
      <g
         style="fill:#408aff;fill-opacity:1"
         transform="matrix(0.09518998,-0.09350251,0.09350251,0.09518998,49.119883,84.748253)"
         id="g851">
        <path
           style="fill:#4063ff;fill-opacity:1"
           inkscape:connector-curvature="0"
           d="m 15,300 h 30 c 91.125,0 167,75.87109 167,167 v 30 c 0,8.28516 6.71484,15 15,15 h 30 c 8.28516,0 15,-6.71484 15,-15 V 467 C 272,342.73438 169.26563,240 45,240 H 15 c -8.285156,0 -15,6.71484 -15,15 v 30 c 0,8.28516 6.714844,15 15,15 z m 0,0"
           id="path833" />
        <path
           style="fill:#406eff;fill-opacity:1"
           inkscape:connector-curvature="0"
           d="m 15,180 h 30 c 157.40234,0 287,129.59766 287,287 v 30 c 0,8.28516 6.71484,15 15,15 h 30 c 8.28516,0 15,-6.71484 15,-15 V 467 C 392,276.46094 235.53906,120 45,120 H 15 c -8.285156,0 -15,6.71484 -15,15 v 30 c 0,8.28516 6.714844,15 15,15 z m 0,0"
           id="path835" />
        <path
           style="fill:#408aff;fill-opacity:1"
           inkscape:connector-curvature="0"
           d="M 45,0 H 15 C 6.714844,0 0,6.714844 0,15 v 30 c 0,8.285156 6.714844,15 15,15 h 30 c 223.67578,0 407,183.32422 407,407 v 30 c 0,8.28516 6.71484,15 15,15 h 30 c 8.28516,0 15,-6.71484 15,-15 V 467 C 512,210.1875 301.8125,0 45,0 Z m 0,0"
           id="path837" />
      </g>
      <g
         style="fill:#0e0a2b;fill-opacity:1"
         id="g1011"
         transform="matrix(0.09322927,0,0,0.09322927,81.110024,132.98033)">
        <path
           style="fill:#0e0a2b;fill-opacity:1"
           inkscape:connector-curvature="0"
           d="m 175,171.173 c 38.914,0 70.463,-38.318 70.463,-85.586 C 245.463,38.318 235.105,0 175,0 c -60.105,0 -70.465,38.318 -70.465,85.587 0,47.268 31.549,85.586 70.465,85.586 z"
           id="path1003" />
        <path
           style="fill:#0e0a2b;fill-opacity:1"
           inkscape:connector-curvature="0"
           d="m 41.909,301.853 c -0.012,-2.882 -0.024,-0.812 0,0 z"
           id="path1005" />
        <path
           style="fill:#0e0a2b;fill-opacity:1"
           inkscape:connector-curvature="0"
           d="m 308.085,304.104 c 0.038,-0.789 0.013,-5.474 0,0 z"
           id="path1007" />
        <path
           style="fill:#0e0a2b;fill-opacity:1"
           inkscape:connector-curvature="0"
           d="M 307.935,298.397 C 306.63,216.055 295.876,192.592 213.583,177.74 c 0,0 -11.584,14.761 -38.584,14.761 -27,0 -38.586,-14.761 -38.586,-14.761 -81.395,14.69 -92.803,37.805 -94.303,117.982 -0.123,6.547 -0.18,6.891 -0.202,6.131 0.005,1.424 0.011,4.058 0.011,8.651 0,0 19.592,39.496 133.08,39.496 113.486,0 133.08,-39.496 133.08,-39.496 0,-2.951 0.002,-5.003 0.005,-6.399 -0.022,0.47 -0.066,-0.441 -0.149,-5.708 z"
           id="path1009" />
      </g>
      <g
         style="fill:#0e0a2b;fill-opacity:1"
         id="g1013"
         transform="matrix(0.09322927,0,0,0.09322927,81.58203,138.27199)" />
      <g
         style="fill:#0e0a2b;fill-opacity:1"
         id="g1015"
         transform="matrix(0.09322927,0,0,0.09322927,81.58203,138.27199)" />
      <g
         style="fill:#0e0a2b;fill-opacity:1"
         id="g1017"
         transform="matrix(0.09322927,0,0,0.09322927,81.58203,138.27199)" />
      <g
         style="fill:#0e0a2b;fill-opacity:1"
         id="g1019"
         transform="matrix(0.09322927,0,0,0.09322927,81.58203,138.27199)" />
      <g
         style="fill:#0e0a2b;fill-opacity:1"
         id="g1021"
         transform="matrix(0.09322927,0,0,0.09322927,81.58203,138.27199)" />
      <g
         style="fill:#0e0a2b;fill-opacity:1"
         id="g1023"
         transform="matrix(0.09322927,0,0,0.09322927,81.58203,138.27199)" />
      <g
         style="fill:#0e0a2b;fill-opacity:1"
         id="g1025"
         transform="matrix(0.09322927,0,0,0.09322927,81.58203,138.27199)" />
      <g
         style="fill:#0e0a2b;fill-opacity:1"
         id="g1027"
         transform="matrix(0.09322927,0,0,0.09322927,81.58203,138.27199)" />
      <g
         style="fill:#0e0a2b;fill-opacity:1"
         id="g1029"
         transform="matrix(0.09322927,0,0,0.09322927,81.58203,138.27199)" />
      <g
         style="fill:#0e0a2b;fill-opacity:1"
         id="g1031"
         transform="matrix(0.09322927,0,0,0.09322927,81.58203,138.27199)" />
      <g
         style="fill:#0e0a2b;fill-opacity:1"
         id="g1033"
         transform="matrix(0.09322927,0,0,0.09322927,81.58203,138.27199)" />
      <g
         style="fill:#0e0a2b;fill-opacity:1"
         id="g1035"
         transform="matrix(0.09322927,0,0,0.09322927,81.58203,138.27199)" />
      <g
         style="fill:#0e0a2b;fill-opacity:1"
         id="g1037"
         transform="matrix(0.09322927,0,0,0.09322927,81.58203,138.27199)" />
      <g
         style="fill:#0e0a2b;fill-opacity:1"
         id="g1039"
         transform="matrix(0.09322927,0,0,0.09322927,81.58203,138.27199)" />
      <g
         style="fill:#0e0a2b;fill-opacity:1"
         id="g1041"
         transform="matrix(0.09322927,0,0,0.09322927,81.58203,138.27199)" />
      <g
         id="g988"
         transform="matrix(0.07265435,0,0,0.07265435,46.904875,44.553705)"
         style="fill:#4037ff;fill-opacity:1">
        <g
           id="g956"
           style="fill:#4037ff;fill-opacity:1">
          <path
             id="path948"
             d="m 175,171.173 c 38.914,0 70.463,-38.318 70.463,-85.586 C 245.463,38.318 235.105,0 175,0 c -60.105,0 -70.465,38.318 -70.465,85.587 0,47.268 31.549,85.586 70.465,85.586 z"
             inkscape:connector-curvature="0"
             style="fill:#4037ff;fill-opacity:1" />
          <path
             id="path950"
             d="m 41.909,301.853 c -0.012,-2.882 -0.024,-0.812 0,0 z"
             inkscape:connector-curvature="0"
             style="fill:#4037ff;fill-opacity:1" />
          <path
             id="path952"
             d="m 308.085,304.104 c 0.038,-0.789 0.013,-5.474 0,0 z"
             inkscape:connector-curvature="0"
             style="fill:#4037ff;fill-opacity:1" />
          <path
             id="path954"
             d="M 307.935,298.397 C 306.63,216.055 295.876,192.592 213.583,177.74 c 0,0 -11.584,14.761 -38.584,14.761 -27,0 -38.586,-14.761 -38.586,-14.761 -81.395,14.69 -92.803,37.805 -94.303,117.982 -0.123,6.547 -0.18,6.891 -0.202,6.131 0.005,1.424 0.011,4.058 0.011,8.651 0,0 19.592,39.496 133.08,39.496 113.486,0 133.08,-39.496 133.08,-39.496 0,-2.951 0.002,-5.003 0.005,-6.399 -0.022,0.47 -0.066,-0.441 -0.149,-5.708 z"
             inkscape:connector-curvature="0"
             style="fill:#4037ff;fill-opacity:1" />
        </g>
        <g
           id="g958"
           style="fill:#4037ff;fill-opacity:1" />
        <g
           id="g960"
           style="fill:#4037ff;fill-opacity:1" />
        <g
           id="g962"
           style="fill:#4037ff;fill-opacity:1" />
        <g
           id="g964"
           style="fill:#4037ff;fill-opacity:1" />
        <g
           id="g966"
           style="fill:#4037ff;fill-opacity:1" />
        <g
           id="g968"
           style="fill:#4037ff;fill-opacity:1" />
        <g
           id="g970"
           style="fill:#4037ff;fill-opacity:1" />
        <g
           id="g972"
           style="fill:#4037ff;fill-opacity:1" />
        <g
           id="g974"
           style="fill:#4037ff;fill-opacity:1" />
        <g
           id="g976"
           style="fill:#4037ff;fill-opacity:1" />
        <g
           id="g978"
           style="fill:#4037ff;fill-opacity:1" />
        <g
           id="g980"
           style="fill:#4037ff;fill-opacity:1" />
        <g
           id="g982"
           style="fill:#4037ff;fill-opacity:1" />
        <g
           id="g984"
           style="fill:#4037ff;fill-opacity:1" />
        <g
           id="g986"
           style="fill:#4037ff;fill-opacity:1" />
      </g>
      <g
         transform="matrix(1.0604953,0,0,1.0604953,-3.447446,-44.054617)"
         aria-label="STUDY"
         style="font-style:normal;font-variant:normal;font-weight:600;font-stretch:normal;font-size:15.26171494px;line-height:1.25;font-family:Rajdhani;-inkscape-font-specification:'Rajdhani, Semi-Bold';font-variant-ligatures:normal;font-variant-caps:normal;font-variant-numeric:normal;font-feature-settings:normal;text-align:start;letter-spacing:0px;word-spacing:0px;writing-mode:lr-tb;text-anchor:start;fill:#4069ff;fill-opacity:1;stroke:none;stroke-width:0.38154045"
         id="text1831">
        <path
           d="m 75.852382,159.10387 v -0.39681 q 0,-0.25945 0.259449,-0.25945 h 0.97675 q 0.259449,0 0.259449,0.25945 v 0.27471 q 0,0.641 0.274711,0.93097 0.289972,0.27471 0.946226,0.27471 h 1.053058 q 0.656254,0 0.946227,-0.28997 0.289972,-0.30524 0.289972,-0.97675 v -0.35102 q 0,-0.48838 -0.381543,-0.76309 -0.366281,-0.28997 -0.915702,-0.36628 -0.549422,-0.0916 -1.205676,-0.24419 -0.656254,-0.15261 -1.205675,-0.35102 -0.549422,-0.1984 -0.930965,-0.74782 -0.366281,-0.54942 -0.366281,-1.40408 v -0.64099 q 0,-1.1141 0.62573,-1.73984 0.640992,-0.64099 1.755097,-0.64099 h 1.617742 q 1.129367,0 1.755097,0.64099 0.640992,0.62574 0.640992,1.73984 v 0.33576 q 0,0.25945 -0.259449,0.25945 h -0.97675 q -0.259449,0 -0.259449,-0.25945 v -0.1984 q 0,-0.65626 -0.289972,-0.93097 -0.274711,-0.28997 -0.930965,-0.28997 h -0.961488 q -0.656254,0 -0.946226,0.30523 -0.274711,0.28998 -0.274711,1.00728 v 0.47311 q 0,0.68678 0.992011,0.93096 0.44259,0.10684 0.961488,0.18314 0.53416,0.0763 1.06832,0.22893 0.53416,0.15262 0.97675,0.41207 0.44259,0.24418 0.717301,0.76308 0.274711,0.50364 0.274711,1.2362 v 0.59521 q 0,1.1141 -0.640992,1.7551 -0.625731,0.62573 -1.739836,0.62573 h -1.709312 q -1.114105,0 -1.755097,-0.62573 -0.640992,-0.641 -0.640992,-1.7551 z"
           style="font-style:normal;font-variant:normal;font-weight:600;font-stretch:normal;font-size:15.26171494px;font-family:Rajdhani;-inkscape-font-specification:'Rajdhani, Semi-Bold';font-variant-ligatures:normal;font-variant-caps:normal;font-variant-numeric:normal;font-feature-settings:normal;text-align:start;writing-mode:lr-tb;text-anchor:start;fill:#4069ff;fill-opacity:1;stroke-width:0.38154045"
           id="path905"
           inkscape:connector-curvature="0" />
        <path
           d="m 87.097643,161.4847 h -0.961488 q -0.274711,0 -0.274711,-0.25945 v -8.10397 q 0,-0.15262 -0.152617,-0.15262 h -1.922976 q -0.274711,0 -0.274711,-0.25945 v -0.77835 q 0,-0.25945 0.274711,-0.25945 h 5.662096 q 0.274711,0 0.274711,0.25945 v 0.77835 q 0,0.25945 -0.274711,0.25945 h -1.922976 q -0.167879,0 -0.167879,0.15262 v 8.10397 q 0,0.25945 -0.259449,0.25945 z"
           style="font-style:normal;font-variant:normal;font-weight:600;font-stretch:normal;font-size:15.26171494px;font-family:Rajdhani;-inkscape-font-specification:'Rajdhani, Semi-Bold';font-variant-ligatures:normal;font-variant-caps:normal;font-variant-numeric:normal;font-feature-settings:normal;text-align:start;writing-mode:lr-tb;text-anchor:start;fill:#4069ff;fill-opacity:1;stroke-width:0.38154045"
           id="path907"
           inkscape:connector-curvature="0" />
        <path
           d="m 96.156901,151.67141 h 0.961488 q 0.274711,0 0.274711,0.24419 v 7.20353 q 0,1.1141 -0.640992,1.73984 -0.62573,0.62573 -1.739835,0.62573 h -1.694051 q -1.114105,0 -1.739835,-0.62573 -0.625731,-0.62574 -0.625731,-1.73984 v -7.18827 q 0,-0.25945 0.25945,-0.25945 h 0.961488 q 0.259449,0 0.259449,0.25945 v 7.12722 q 0,1.12937 1.098843,1.12937 h 1.251461 q 1.114105,0 1.114105,-1.12937 v -7.12722 q 0,-0.25945 0.259449,-0.25945 z"
           style="font-style:normal;font-variant:normal;font-weight:600;font-stretch:normal;font-size:15.26171494px;font-family:Rajdhani;-inkscape-font-specification:'Rajdhani, Semi-Bold';font-variant-ligatures:normal;font-variant-caps:normal;font-variant-numeric:normal;font-feature-settings:normal;text-align:start;writing-mode:lr-tb;text-anchor:start;fill:#4069ff;fill-opacity:1;stroke-width:0.38154045"
           id="path909"
           inkscape:connector-curvature="0" />
        <path
           d="m 101.17252,160.18745 h 2.1519 q 1.09885,0 1.09885,-1.12937 v -4.96005 q 0,-1.12937 -1.09885,-1.12937 h -2.1519 q -0.16788,0 -0.16788,0.15262 v 6.89829 q 0,0.16788 0.16788,0.16788 z m -1.648264,1.0378 v -9.29439 q 0,-0.25945 0.259449,-0.25945 h 3.754385 q 1.1141,0 1.73983,0.62573 0.64099,0.61047 0.64099,1.73984 v 5.08215 q 0,1.1141 -0.64099,1.73984 -0.62573,0.62573 -1.73983,0.62573 h -3.754385 q -0.259449,0 -0.259449,-0.25945 z"
           style="font-style:normal;font-variant:normal;font-weight:600;font-stretch:normal;font-size:15.26171494px;font-family:Rajdhani;-inkscape-font-specification:'Rajdhani, Semi-Bold';font-variant-ligatures:normal;font-variant-caps:normal;font-variant-numeric:normal;font-feature-settings:normal;text-align:start;writing-mode:lr-tb;text-anchor:start;fill:#4069ff;fill-opacity:1;stroke-width:0.38154045"
           id="path911"
           inkscape:connector-curvature="0" />
        <path
           d="m 111.24048,161.4847 h -0.97675 q -0.25945,0 -0.25945,-0.25945 v -3.37284 l -2.85394,-5.90629 q -0.061,-0.12209 0,-0.1984 0.061,-0.0763 0.16788,-0.0763 h 1.22094 q 0.1984,0 0.30523,0.25945 l 1.8772,4.19697 h 0.0916 l 1.84666,-4.19697 q 0.0916,-0.25945 0.30524,-0.25945 h 1.22093 q 0.1221,0 0.16788,0.0763 0.061,0.0763 0,0.1984 l -2.85394,5.90629 v 3.37284 q 0,0.25945 -0.25945,0.25945 z"
           style="font-style:normal;font-variant:normal;font-weight:600;font-stretch:normal;font-size:15.26171494px;font-family:Rajdhani;-inkscape-font-specification:'Rajdhani, Semi-Bold';font-variant-ligatures:normal;font-variant-caps:normal;font-variant-numeric:normal;font-feature-settings:normal;text-align:start;writing-mode:lr-tb;text-anchor:start;fill:#4069ff;fill-opacity:1;stroke-width:0.38154045"
           id="path913"
           inkscape:connector-curvature="0" />
      </g>
      <g
         style="fill:#4037ff;fill-opacity:1"
         transform="matrix(0.07265435,0,0,0.07265435,84.710638,32.906516)"
         id="g1092">
        <g
           style="fill:#4037ff;fill-opacity:1"
           id="g1060">
          <path
             style="fill:#4037ff;fill-opacity:1"
             inkscape:connector-curvature="0"
             d="m 175,171.173 c 38.914,0 70.463,-38.318 70.463,-85.586 C 245.463,38.318 235.105,0 175,0 c -60.105,0 -70.465,38.318 -70.465,85.587 0,47.268 31.549,85.586 70.465,85.586 z"
             id="path1052" />
          <path
             style="fill:#4037ff;fill-opacity:1"
             inkscape:connector-curvature="0"
             d="m 41.909,301.853 c -0.012,-2.882 -0.024,-0.812 0,0 z"
             id="path1054" />
          <path
             style="fill:#4037ff;fill-opacity:1"
             inkscape:connector-curvature="0"
             d="m 308.085,304.104 c 0.038,-0.789 0.013,-5.474 0,0 z"
             id="path1056" />
          <path
             style="fill:#4037ff;fill-opacity:1"
             inkscape:connector-curvature="0"
             d="M 307.935,298.397 C 306.63,216.055 295.876,192.592 213.583,177.74 c 0,0 -11.584,14.761 -38.584,14.761 -27,0 -38.586,-14.761 -38.586,-14.761 -81.395,14.69 -92.803,37.805 -94.303,117.982 -0.123,6.547 -0.18,6.891 -0.202,6.131 0.005,1.424 0.011,4.058 0.011,8.651 0,0 19.592,39.496 133.08,39.496 113.486,0 133.08,-39.496 133.08,-39.496 0,-2.951 0.002,-5.003 0.005,-6.399 -0.022,0.47 -0.066,-0.441 -0.149,-5.708 z"
             id="path1058" />
        </g>
        <g
           style="fill:#4037ff;fill-opacity:1"
           id="g1062" />
        <g
           style="fill:#4037ff;fill-opacity:1"
           id="g1064" />
        <g
           style="fill:#4037ff;fill-opacity:1"
           id="g1066" />
        <g
           style="fill:#4037ff;fill-opacity:1"
           id="g1068" />
        <g
           style="fill:#4037ff;fill-opacity:1"
           id="g1070" />
        <g
           style="fill:#4037ff;fill-opacity:1"
           id="g1072" />
        <g
           style="fill:#4037ff;fill-opacity:1"
           id="g1074" />
        <g
           style="fill:#4037ff;fill-opacity:1"
           id="g1076" />
        <g
           style="fill:#4037ff;fill-opacity:1"
           id="g1078" />
        <g
           style="fill:#4037ff;fill-opacity:1"
           id="g1080" />
        <g
           style="fill:#4037ff;fill-opacity:1"
           id="g1082" />
        <g
           style="fill:#4037ff;fill-opacity:1"
           id="g1084" />
        <g
           style="fill:#4037ff;fill-opacity:1"
           id="g1086" />
        <g
           style="fill:#4037ff;fill-opacity:1"
           id="g1088" />
        <g
           style="fill:#4037ff;fill-opacity:1"
           id="g1090" />
      </g>
      <g
         id="g1135"
         transform="matrix(0.07265435,0,0,0.07265435,122.5164,44.553705)"
         style="fill:#4037ff;fill-opacity:1">
        <g
           id="g1102"
           style="fill:#4037ff;fill-opacity:1">
          <path
             id="path1094"
             d="m 175,171.173 c 38.914,0 70.463,-38.318 70.463,-85.586 C 245.463,38.318 235.105,0 175,0 c -60.105,0 -70.465,38.318 -70.465,85.587 0,47.268 31.549,85.586 70.465,85.586 z"
             inkscape:connector-curvature="0"
             style="fill:#4037ff;fill-opacity:1" />
          <path
             id="path1096"
             d="m 41.909,301.853 c -0.012,-2.882 -0.024,-0.812 0,0 z"
             inkscape:connector-curvature="0"
             style="fill:#4037ff;fill-opacity:1" />
          <path
             id="path1098"
             d="m 308.085,304.104 c 0.038,-0.789 0.013,-5.474 0,0 z"
             inkscape:connector-curvature="0"
             style="fill:#4037ff;fill-opacity:1" />
          <path
             id="path1100"
             d="M 307.935,298.397 C 306.63,216.055 295.876,192.592 213.583,177.74 c 0,0 -11.584,14.761 -38.584,14.761 -27,0 -38.586,-14.761 -38.586,-14.761 -81.395,14.69 -92.803,37.805 -94.303,117.982 -0.123,6.547 -0.18,6.891 -0.202,6.131 0.005,1.424 0.011,4.058 0.011,8.651 0,0 19.592,39.496 133.08,39.496 113.486,0 133.08,-39.496 133.08,-39.496 0,-2.951 0.002,-5.003 0.005,-6.399 -0.022,0.47 -0.066,-0.441 -0.149,-5.708 z"
             inkscape:connector-curvature="0"
             style="fill:#4037ff;fill-opacity:1" />
        </g>
        <g
           id="g1104"
           style="fill:#4037ff;fill-opacity:1" />
        <g
           id="g1106"
           style="fill:#4037ff;fill-opacity:1" />
        <g
           id="g1108"
           style="fill:#4037ff;fill-opacity:1" />
        <g
           id="g1110"
           style="fill:#4037ff;fill-opacity:1" />
        <g
           id="g1112"
           style="fill:#4037ff;fill-opacity:1" />
        <g
           id="g1114"
           style="fill:#4037ff;fill-opacity:1" />
        <g
           id="g1116"
           style="fill:#4037ff;fill-opacity:1" />
        <g
           id="g1118"
           style="fill:#4037ff;fill-opacity:1" />
        <g
           id="g1120"
           style="fill:#4037ff;fill-opacity:1" />
        <g
           id="g1122"
           style="fill:#4037ff;fill-opacity:1" />
        <g
           id="g1124"
           style="fill:#4037ff;fill-opacity:1" />
        <g
           id="g1126"
           style="fill:#4037ff;fill-opacity:1" />
        <g
           id="g1128"
           style="fill:#4037ff;fill-opacity:1" />
        <g
           id="g1130"
           style="fill:#4037ff;fill-opacity:1" />
        <g
           id="g1132"
           style="fill:#4037ff;fill-opacity:1" />
      </g>
    </g>
  </g>
</svg>
