<?xml version="1.0" encoding="UTF-8" standalone="no"?>
<!-- Created with Inkscape (http://www.inkscape.org/) -->

<svg
   xmlns:dc="http://purl.org/dc/elements/1.1/"
   xmlns:cc="http://creativecommons.org/ns#"
   xmlns:rdf="http://www.w3.org/1999/02/22-rdf-syntax-ns#"
   xmlns:svg="http://www.w3.org/2000/svg"
   xmlns="http://www.w3.org/2000/svg"
   xmlns:sodipodi="http://sodipodi.sourceforge.net/DTD/sodipodi-0.dtd"
   xmlns:inkscape="http://www.inkscape.org/namespaces/inkscape"
   width="60.924999mm"
   height="50.851784mm"
   viewBox="0 0 60.924999 50.851784"
   version="1.1"
   id="svg1295"
   inkscape:version="0.92.2 (5c3e80d, 2017-08-06)"
   sodipodi:docname="nostream.svg">
  <defs
     id="defs1289" />
  <sodipodi:namedview
     id="base"
     pagecolor="#ffffff"
     bordercolor="#666666"
     borderopacity="1.0"
     inkscape:pageopacity="0.0"
     inkscape:pageshadow="2"
     inkscape:zoom="0.73417969"
     inkscape:cx="242.03995"
     inkscape:cy="24.099988"
     inkscape:document-units="mm"
     inkscape:current-layer="layer1"
     showgrid="false"
     inkscape:window-width="1024"
     inkscape:window-height="716"
     inkscape:window-x="-8"
     inkscape:window-y="-8"
     inkscape:window-maximized="1" />
  <metadata
     id="metadata1292">
    <rdf:RDF>
      <cc:Work
         rdf:about="">
        <dc:format>image/svg+xml</dc:format>
        <dc:type
           rdf:resource="http://purl.org/dc/dcmitype/StillImage" />
        <dc:title></dc:title>
      </cc:Work>
    </rdf:RDF>
  </metadata>
  <g
     inkscape:label="Camada 1"
     inkscape:groupmode="layer"
     id="layer1"
     transform="translate(-35.486955,-104.358)">
    <g
       id="g1239"
       transform="matrix(0.09955049,0,0,0.09955049,35.486955,99.321546)">
      <g
         id="g1183">
        <path
           id="path1181"
           d="M 578.766,51.487 V 50.592 H 575.77 35.93 32.934 v 0.895 C 15.272,52.701 2.095,66.753 0,83.808 v 3.002 355.724 c 0,6.898 1.795,12.712 4.791,17.949 6.893,12.137 17.068,18.269 31.14,18.269 h 197.012 v 49.695 h -37.425 c -9.281,0 -16.467,7.218 -16.467,16.48 0,9.262 7.186,16.479 16.467,16.479 h 220.666 c 9.281,0 16.768,-7.218 16.768,-16.479 0,-9.263 -7.486,-16.48 -16.768,-16.48 H 378.759 V 478.752 H 575.77 c 14.078,0 24.343,-6.132 31.14,-18.269 3.085,-5.493 5.091,-11.37 5.091,-17.949 V 86.811 83.809 C 609.905,66.753 595.833,52.701 578.766,51.487 Z m 0,35.324 v 355.724 c 0,2.108 -0.895,3.002 -2.996,3.002 H 35.93 c -2.095,0 -2.996,-0.894 -2.996,-3.002 V 86.811 83.809 h 545.831 v 3.002 z"
           inkscape:connector-curvature="0" />
      </g>
      <g
         id="g1185" />
      <g
         id="g1187" />
      <g
         id="g1189" />
      <g
         id="g1191" />
      <g
         id="g1193" />
      <g
         id="g1195" />
      <g
         id="g1197" />
      <g
         id="g1199" />
      <g
         id="g1201" />
      <g
         id="g1203" />
      <g
         id="g1205" />
      <g
         id="g1207" />
      <g
         id="g1209" />
      <g
         id="g1211" />
      <g
         id="g1213" />
    </g>
    <g
       id="g1451"
       transform="matrix(0.42873332,0,0,0.42873332,53.087456,111.13217)">
      <g
         id="g1394">
        <path
           id="path1390"
           d="M 40.693,17.777 H 3.307 C 1.483,17.777 0,19.261 0,21.084 v 25.387 c 0,1.823 1.483,3.307 3.307,3.307 H 40.693 C 42.517,49.778 44,48.295 44,46.471 V 21.084 c 0,-1.823 -1.483,-3.307 -3.307,-3.307 z"
           inkscape:connector-curvature="0"
           style="fill:#d80027"
           sodipodi:nodetypes="ccssssssc" />
        <path
           id="path1392"
           d="m 56.234,17.332 c -0.545,0 -1.077,0.117 -1.58,0.35 L 46,22.138 v 23.279 l 8.654,4.456 c 0.503,0.232 1.035,0.35 1.58,0.35 2.076,0 3.766,-1.69 3.766,-3.77 V 21.102 c 0,-2.08 -1.689,-3.77 -3.766,-3.77 z"
           inkscape:connector-curvature="0"
           style="fill:#d80027" />
      </g>
      <g
         id="g1396" />
      <g
         id="g1398" />
      <g
         id="g1400" />
      <g
         id="g1402" />
      <g
         id="g1404" />
      <g
         id="g1406" />
      <g
         id="g1408" />
      <g
         id="g1410" />
      <g
         id="g1412" />
      <g
         id="g1414" />
      <g
         id="g1416" />
      <g
         id="g1418" />
      <g
         id="g1420" />
      <g
         id="g1422" />
      <g
         id="g1424" />
    </g>
    <g
       id="g1345"
       transform="matrix(0.1646891,0,0,0.1646891,54.181183,113.84548)">
      <g
         id="g1288">
        <g
           id="g1286">
          <path
             id="path1284"
             d="m 32.901,114.799 -12.015,16.507 c -2.375,3.265 -1.656,7.835 1.608,10.21 1.301,0.945 2.807,1.4 4.295,1.4 2.261,0 4.487,-1.043 5.917,-3.006 l 12.11,-16.638 c 7.951,4.239 17.019,6.651 26.644,6.651 31.342,0 56.84,-25.499 56.84,-56.842 0,-15.979 -6.636,-30.427 -17.283,-40.764 l 15.074,-20.709 c 2.375,-3.265 1.655,-7.834 -1.607,-10.21 -3.273,-2.377 -7.84,-1.651 -10.209,1.608 L 99.313,23.562 c -8.241,-4.655 -17.739,-7.323 -27.856,-7.323 -31.343,0 -56.842,25.499 -56.842,56.841 0,16.477 7.05,31.329 18.286,41.719 z M 113.682,73.08 c 0,23.284 -18.94,42.226 -42.226,42.226 -6.407,0 -12.461,-1.477 -17.905,-4.039 L 102.28,44.316 c 7.051,7.548 11.402,17.648 11.402,28.764 z M 71.457,30.856 c 6.901,0 13.403,1.698 19.159,4.646 L 41.573,102.883 C 33.95,95.24 29.229,84.702 29.229,73.082 29.232,49.798 48.173,30.856 71.457,30.856 Z"
             inkscape:connector-curvature="0" />
        </g>
      </g>
      <g
         id="g1290" />
      <g
         id="g1292" />
      <g
         id="g1294" />
      <g
         id="g1296" />
      <g
         id="g1298" />
      <g
         id="g1300" />
      <g
         id="g1302" />
      <g
         id="g1304" />
      <g
         id="g1306" />
      <g
         id="g1308" />
      <g
         id="g1310" />
      <g
         id="g1312" />
      <g
         id="g1314" />
      <g
         id="g1316" />
      <g
         id="g1318" />
    </g>
  </g>
</svg>
